M48
; DRILL file {KiCad 6.0.7} date Thu 05 Oct 2023 16:11:43
; FORMAT={-:-/ absolute / metric / decimal}
; #@! TF.CreationDate,2023-10-05T16:11:43+13:00
; #@! TF.GenerationSoftware,Kicad,Pcbnew,6.0.7
; #@! TF.FileFunction,Plated,1,2,PTH
FMAT,2
METRIC
; #@! TA.AperFunction,Plated,PTH,ViaDrill
T1C0.400
; #@! TA.AperFunction,Plated,PTH,ComponentDrill
T2C0.750
; #@! TA.AperFunction,Plated,PTH,ComponentDrill
T3C0.800
; #@! TA.AperFunction,Plated,PTH,ComponentDrill
T4C0.900
; #@! TA.AperFunction,Plated,PTH,ComponentDrill
T5C1.000
; #@! TA.AperFunction,Plated,PTH,ComponentDrill
T6C1.700
; #@! TA.AperFunction,Plated,PTH,ComponentDrill
T7C2.000
%
G90
G05
T1
X155.75Y-88.25
X163.5Y-84.5
X168.0Y-76.75
T2
X161.0Y-54.5
X162.27Y-53.23
X163.54Y-54.5
T3
X116.52Y-99.3
X117.0Y-94.3
X117.02Y-60.85
X117.5Y-55.75
X121.6Y-99.3
X122.0Y-94.3
X122.1Y-60.85
X122.5Y-55.75
X125.62Y-99.3
X126.02Y-60.85
X130.7Y-99.3
X131.1Y-60.85
X151.7Y-74.8
X151.7Y-78.4
X152.3Y-52.6
X152.3Y-56.4
X156.78Y-74.8
X156.78Y-78.4
X157.38Y-52.6
X157.38Y-56.4
X161.3Y-74.9
X161.3Y-78.5
X163.8Y-81.1
X163.8Y-86.1
X166.38Y-74.9
X166.38Y-78.5
X170.32Y-61.9
X170.32Y-75.4
X170.32Y-89.6
X170.32Y-102.9
X175.4Y-61.9
X175.4Y-75.4
X175.4Y-89.6
X175.4Y-102.9
T4
X145.2Y-82.2
X145.2Y-85.2
X145.2Y-88.2
T5
X125.9Y-94.4
X126.2Y-55.75
X130.98Y-94.4
X131.28Y-55.75
T6
X108.0Y-61.75
X108.1Y-89.4
X182.5Y-55.4
X182.5Y-68.9
X182.5Y-82.9
X182.5Y-96.4
T7
X102.85Y-63.35
X102.95Y-91.0
X113.15Y-63.35
X113.25Y-91.0
X177.35Y-57.0
X177.35Y-70.5
X177.35Y-84.5
X177.35Y-98.0
X187.65Y-57.0
X187.65Y-70.5
X187.65Y-84.5
X187.65Y-98.0
T5
X140.3Y-56.5G85X140.3Y-58.5
G05
X146.0Y-54.5G85X144.0Y-54.5
G05
X146.0Y-60.5G85X144.0Y-60.5
G05
X144.7Y-79.3G85X145.8Y-79.3
G05
X144.7Y-91.1G85X145.8Y-91.1
G05
T0
M30
