%TF.GenerationSoftware,KiCad,Pcbnew,6.0.7*%
%TF.CreationDate,2023-10-05T16:11:41+13:00*%
%TF.ProjectId,_bisect_,5f626973-6563-4745-9f2e-6b696361645f,rev?*%
%TF.SameCoordinates,Original*%
%TF.FileFunction,Copper,L1,Top*%
%TF.FilePolarity,Positive*%
%FSLAX46Y46*%
G04 Gerber Fmt 4.6, Leading zero omitted, Abs format (unit mm)*
G04 Created by KiCad (PCBNEW 6.0.7) date 2023-10-05 16:11:41*
%MOMM*%
%LPD*%
G01*
G04 APERTURE LIST*
G04 Aperture macros list*
%AMRoundRect*
0 Rectangle with rounded corners*
0 $1 Rounding radius*
0 $2 $3 $4 $5 $6 $7 $8 $9 X,Y pos of 4 corners*
0 Add a 4 corners polygon primitive as box body*
4,1,4,$2,$3,$4,$5,$6,$7,$8,$9,$2,$3,0*
0 Add four circle primitives for the rounded corners*
1,1,$1+$1,$2,$3*
1,1,$1+$1,$4,$5*
1,1,$1+$1,$6,$7*
1,1,$1+$1,$8,$9*
0 Add four rect primitives between the rounded corners*
20,1,$1+$1,$2,$3,$4,$5,0*
20,1,$1+$1,$4,$5,$6,$7,0*
20,1,$1+$1,$6,$7,$8,$9,0*
20,1,$1+$1,$8,$9,$2,$3,0*%
G04 Aperture macros list end*
%TA.AperFunction,ComponentPad*%
%ADD10C,1.600000*%
%TD*%
%TA.AperFunction,ComponentPad*%
%ADD11R,2.000000X2.000000*%
%TD*%
%TA.AperFunction,ComponentPad*%
%ADD12O,2.000000X2.000000*%
%TD*%
%TA.AperFunction,ComponentPad*%
%ADD13C,2.550000*%
%TD*%
%TA.AperFunction,ComponentPad*%
%ADD14C,3.000000*%
%TD*%
%TA.AperFunction,ComponentPad*%
%ADD15R,3.500000X3.500000*%
%TD*%
%TA.AperFunction,ComponentPad*%
%ADD16RoundRect,0.750000X-1.000000X0.750000X-1.000000X-0.750000X1.000000X-0.750000X1.000000X0.750000X0*%
%TD*%
%TA.AperFunction,ComponentPad*%
%ADD17RoundRect,0.875000X-0.875000X0.875000X-0.875000X-0.875000X0.875000X-0.875000X0.875000X0.875000X0*%
%TD*%
%TA.AperFunction,ComponentPad*%
%ADD18O,1.600000X1.600000*%
%TD*%
%TA.AperFunction,ComponentPad*%
%ADD19O,3.000000X1.800000*%
%TD*%
%TA.AperFunction,ComponentPad*%
%ADD20C,1.700000*%
%TD*%
%TA.AperFunction,SMDPad,CuDef*%
%ADD21RoundRect,0.150000X-0.825000X-0.150000X0.825000X-0.150000X0.825000X0.150000X-0.825000X0.150000X0*%
%TD*%
%TA.AperFunction,ComponentPad*%
%ADD22R,1.100000X1.800000*%
%TD*%
%TA.AperFunction,ComponentPad*%
%ADD23RoundRect,0.275000X-0.275000X-0.625000X0.275000X-0.625000X0.275000X0.625000X-0.275000X0.625000X0*%
%TD*%
%TA.AperFunction,ViaPad*%
%ADD24C,0.800000*%
%TD*%
%TA.AperFunction,Conductor*%
%ADD25C,0.250000*%
%TD*%
%TA.AperFunction,Conductor*%
%ADD26C,0.500000*%
%TD*%
G04 APERTURE END LIST*
D10*
%TO.P,C1,1*%
%TO.N,Net-(C1-Pad1)*%
X122500000Y-55750000D03*
%TO.P,C1,2*%
%TO.N,Net-(C1-Pad2)*%
X117500000Y-55750000D03*
%TD*%
%TO.P,C2,1*%
%TO.N,Net-(C2-Pad1)*%
X122000000Y-94300000D03*
%TO.P,C2,2*%
%TO.N,Net-(C2-Pad2)*%
X117000000Y-94300000D03*
%TD*%
D11*
%TO.P,D1,1,K*%
%TO.N,Net-(C1-Pad1)*%
X126200000Y-55750000D03*
D12*
%TO.P,D1,2,A*%
%TO.N,2.5v*%
X131280000Y-55750000D03*
%TD*%
D11*
%TO.P,D2,1,K*%
%TO.N,Net-(C2-Pad1)*%
X125900000Y-94400000D03*
D12*
%TO.P,D2,2,A*%
%TO.N,2.5v*%
X130980000Y-94400000D03*
%TD*%
D13*
%TO.P,J2,1,In*%
%TO.N,Net-(C2-Pad2)*%
X108100000Y-89400000D03*
D14*
%TO.P,J2,2,Ext*%
%TO.N,GND*%
X102950000Y-91000000D03*
X113250000Y-91000000D03*
%TD*%
D13*
%TO.P,J3,1,In*%
%TO.N,Net-(J3-Pad1)*%
X182500000Y-55400000D03*
D14*
%TO.P,J3,2,Ext*%
%TO.N,GND*%
X187650000Y-57000000D03*
X177350000Y-57000000D03*
%TD*%
D13*
%TO.P,J4,1,In*%
%TO.N,Net-(J4-Pad1)*%
X182500000Y-68900000D03*
D14*
%TO.P,J4,2,Ext*%
%TO.N,GND*%
X187650000Y-70500000D03*
X177350000Y-70500000D03*
%TD*%
D13*
%TO.P,J6,1,In*%
%TO.N,Net-(J6-Pad1)*%
X182500000Y-96400000D03*
D14*
%TO.P,J6,2,Ext*%
%TO.N,GND*%
X187650000Y-98000000D03*
X177350000Y-98000000D03*
%TD*%
D15*
%TO.P,J7,1*%
%TO.N,+5V*%
X145000000Y-60500000D03*
D16*
%TO.P,J7,2*%
%TO.N,GND*%
X145000000Y-54500000D03*
D17*
%TO.P,J7,3*%
%TO.N,unconnected-(J7-Pad3)*%
X140300000Y-57500000D03*
%TD*%
D10*
%TO.P,R1,1*%
%TO.N,Net-(C1-Pad2)*%
X122100000Y-60850000D03*
D18*
%TO.P,R1,2*%
%TO.N,GND*%
X117020000Y-60850000D03*
%TD*%
D10*
%TO.P,R2,1*%
%TO.N,Net-(C1-Pad1)*%
X131100000Y-60850000D03*
D18*
%TO.P,R2,2*%
%TO.N,GND*%
X126020000Y-60850000D03*
%TD*%
D10*
%TO.P,R3,1*%
%TO.N,Net-(R3-Pad1)*%
X151700000Y-74800000D03*
D18*
%TO.P,R3,2*%
%TO.N,Net-(R3-Pad2)*%
X156780000Y-74800000D03*
%TD*%
D10*
%TO.P,R4,1*%
%TO.N,2.5v*%
X151700000Y-78400000D03*
D18*
%TO.P,R4,2*%
%TO.N,Net-(R3-Pad2)*%
X156780000Y-78400000D03*
%TD*%
D10*
%TO.P,R5,1*%
%TO.N,Net-(J3-Pad1)*%
X175400000Y-61900000D03*
D18*
%TO.P,R5,2*%
%TO.N,Net-(R3-Pad1)*%
X170320000Y-61900000D03*
%TD*%
D10*
%TO.P,R6,1*%
%TO.N,Net-(J4-Pad1)*%
X175400000Y-75400000D03*
D18*
%TO.P,R6,2*%
%TO.N,Net-(R3-Pad1)*%
X170320000Y-75400000D03*
%TD*%
D10*
%TO.P,R7,1*%
%TO.N,Net-(C2-Pad2)*%
X121600000Y-99300000D03*
D18*
%TO.P,R7,2*%
%TO.N,GND*%
X116520000Y-99300000D03*
%TD*%
D10*
%TO.P,R8,1*%
%TO.N,Net-(C2-Pad1)*%
X130700000Y-99300000D03*
D18*
%TO.P,R8,2*%
%TO.N,GND*%
X125620000Y-99300000D03*
%TD*%
D10*
%TO.P,R9,1*%
%TO.N,Net-(R11-Pad2)*%
X161300000Y-74900000D03*
D18*
%TO.P,R9,2*%
%TO.N,Net-(R10-Pad2)*%
X166380000Y-74900000D03*
%TD*%
D10*
%TO.P,R10,1*%
%TO.N,2.5v*%
X161300000Y-78500000D03*
D18*
%TO.P,R10,2*%
%TO.N,Net-(R10-Pad2)*%
X166380000Y-78500000D03*
%TD*%
D10*
%TO.P,R12,1*%
%TO.N,Net-(J6-Pad1)*%
X175400000Y-102900000D03*
D18*
%TO.P,R12,2*%
%TO.N,Net-(R11-Pad2)*%
X170320000Y-102900000D03*
%TD*%
D10*
%TO.P,R13,1*%
%TO.N,2.5v*%
X152300000Y-52600000D03*
D18*
%TO.P,R13,2*%
%TO.N,Net-(R13-Pad2)*%
X157380000Y-52600000D03*
%TD*%
D10*
%TO.P,R14,1*%
%TO.N,Net-(R13-Pad2)*%
X152300000Y-56400000D03*
D18*
%TO.P,R14,2*%
%TO.N,GND*%
X157380000Y-56400000D03*
%TD*%
D19*
%TO.P,SW1,*%
%TO.N,*%
X145250000Y-79300000D03*
X145250000Y-91100000D03*
D20*
%TO.P,SW1,1,A*%
%TO.N,Net-(C2-Pad1)*%
X145200000Y-88200000D03*
%TO.P,SW1,2,B*%
%TO.N,Net-(SW1-Pad2)*%
X145200000Y-85200000D03*
%TO.P,SW1,3,C*%
%TO.N,Net-(C1-Pad1)*%
X145200000Y-82200000D03*
%TD*%
D21*
%TO.P,U1,1*%
%TO.N,Net-(R3-Pad1)*%
X156025000Y-81795000D03*
%TO.P,U1,2,-*%
%TO.N,Net-(R3-Pad2)*%
X156025000Y-83065000D03*
%TO.P,U1,3,+*%
%TO.N,Net-(C1-Pad1)*%
X156025000Y-84335000D03*
%TO.P,U1,4,V-*%
%TO.N,GND*%
X156025000Y-85605000D03*
%TO.P,U1,5,+*%
%TO.N,Net-(SW1-Pad2)*%
X160975000Y-85605000D03*
%TO.P,U1,6,-*%
%TO.N,Net-(R10-Pad2)*%
X160975000Y-84335000D03*
%TO.P,U1,7*%
%TO.N,Net-(R11-Pad2)*%
X160975000Y-83065000D03*
%TO.P,U1,8,V+*%
%TO.N,+5V*%
X160975000Y-81795000D03*
%TD*%
D22*
%TO.P,U2,1,ADJ*%
%TO.N,Net-(R13-Pad2)*%
X161000000Y-54900000D03*
D23*
%TO.P,U2,2,VO*%
%TO.N,2.5v*%
X162270000Y-52830000D03*
%TO.P,U2,3,VI*%
%TO.N,+5V*%
X163540000Y-54900000D03*
%TD*%
D13*
%TO.P,J5,1,In*%
%TO.N,Net-(J5-Pad1)*%
X182500000Y-82900000D03*
D14*
%TO.P,J5,2,Ext*%
%TO.N,GND*%
X187650000Y-84500000D03*
X177350000Y-84500000D03*
%TD*%
D10*
%TO.P,R11,1*%
%TO.N,Net-(J5-Pad1)*%
X175400000Y-89600000D03*
D18*
%TO.P,R11,2*%
%TO.N,Net-(R11-Pad2)*%
X170320000Y-89600000D03*
%TD*%
D13*
%TO.P,J1,1,In*%
%TO.N,Net-(C1-Pad2)*%
X108000000Y-61750000D03*
D14*
%TO.P,J1,2,Ext*%
%TO.N,GND*%
X102850000Y-63350000D03*
X113150000Y-63350000D03*
%TD*%
D10*
%TO.P,C3,1*%
%TO.N,+5V*%
X163800000Y-81100000D03*
%TO.P,C3,2*%
%TO.N,GND*%
X163800000Y-86100000D03*
%TD*%
D24*
%TO.N,GND*%
X155750000Y-88250000D03*
%TO.N,Net-(R10-Pad2)*%
X163500000Y-84500000D03*
%TO.N,Net-(R11-Pad2)*%
X168000000Y-76750000D03*
%TD*%
D25*
%TO.N,Net-(C1-Pad2)*%
X114000000Y-55750000D02*
X108000000Y-61750000D01*
X117500000Y-56250000D02*
X117500000Y-55750000D01*
X122100000Y-60850000D02*
X117500000Y-56250000D01*
X117500000Y-55750000D02*
X114000000Y-55750000D01*
%TO.N,Net-(C1-Pad1)*%
X147335000Y-84335000D02*
X145200000Y-82200000D01*
X131100000Y-60850000D02*
X126200000Y-55950000D01*
X155875000Y-84335000D02*
X147335000Y-84335000D01*
X131100000Y-68100000D02*
X145200000Y-82200000D01*
X126200000Y-55750000D02*
X122500000Y-55750000D01*
X131100000Y-60850000D02*
X131100000Y-68100000D01*
X126200000Y-55950000D02*
X126200000Y-55750000D01*
%TO.N,Net-(C2-Pad2)*%
X113000000Y-94300000D02*
X108100000Y-89400000D01*
X117000000Y-94700000D02*
X117000000Y-94300000D01*
X117000000Y-94300000D02*
X113000000Y-94300000D01*
X121600000Y-99300000D02*
X117000000Y-94700000D01*
%TO.N,Net-(C2-Pad1)*%
X122100000Y-94400000D02*
X122000000Y-94300000D01*
X125900000Y-94500000D02*
X125900000Y-94400000D01*
X130700000Y-99300000D02*
X125900000Y-94500000D01*
X136000000Y-94000000D02*
X130700000Y-99300000D01*
X136000000Y-94000000D02*
X139400000Y-94000000D01*
X139400000Y-94000000D02*
X145200000Y-88200000D01*
X125900000Y-94400000D02*
X122100000Y-94400000D01*
%TO.N,GND*%
X155875000Y-85605000D02*
X155875000Y-88125000D01*
X155875000Y-88125000D02*
X155750000Y-88250000D01*
%TO.N,Net-(J3-Pad1)*%
X175400000Y-61900000D02*
X181900000Y-55400000D01*
X181900000Y-55400000D02*
X182500000Y-55400000D01*
%TO.N,Net-(J4-Pad1)*%
X175400000Y-75400000D02*
X181900000Y-68900000D01*
X181900000Y-68900000D02*
X182500000Y-68900000D01*
%TO.N,Net-(J5-Pad1)*%
X182100000Y-82900000D02*
X182500000Y-82900000D01*
X175400000Y-89600000D02*
X182100000Y-82900000D01*
%TO.N,Net-(J6-Pad1)*%
X175400000Y-102900000D02*
X181900000Y-96400000D01*
X181900000Y-96400000D02*
X182500000Y-96400000D01*
D26*
%TO.N,+5V*%
X152250000Y-60500000D02*
X160049999Y-68299999D01*
X145000000Y-60500000D02*
X152250000Y-60500000D01*
X160049999Y-68299999D02*
X160049999Y-80719999D01*
X161125000Y-81795000D02*
X163105000Y-81795000D01*
X163105000Y-81795000D02*
X163800000Y-81100000D01*
X160049999Y-80719999D02*
X161125000Y-81795000D01*
D25*
%TO.N,Net-(R3-Pad2)*%
X155875000Y-83065000D02*
X154699998Y-83065000D01*
X155654999Y-73674999D02*
X156780000Y-74800000D01*
X156780000Y-74800000D02*
X156780000Y-78400000D01*
X151159999Y-73674999D02*
X155654999Y-73674999D01*
X150574999Y-74259999D02*
X151159999Y-73674999D01*
X150574999Y-78940001D02*
X150574999Y-74259999D01*
X154699998Y-83065000D02*
X150574999Y-78940001D01*
%TO.N,Net-(R3-Pad1)*%
X164411380Y-82439990D02*
X156519990Y-82439990D01*
X155575000Y-78675000D02*
X151700000Y-74800000D01*
X156519990Y-82439990D02*
X155875000Y-81795000D01*
X170320000Y-76531370D02*
X164411380Y-82439990D01*
X155575000Y-81495000D02*
X155575000Y-78675000D01*
X170320000Y-75400000D02*
X170320000Y-76531370D01*
X170320000Y-75400000D02*
X170320000Y-61900000D01*
X155875000Y-81795000D02*
X155575000Y-81495000D01*
%TO.N,Net-(R10-Pad2)*%
X161125000Y-84335000D02*
X163335000Y-84335000D01*
X163335000Y-84335000D02*
X163500000Y-84500000D01*
%TO.N,Net-(R11-Pad2)*%
X170320000Y-102900000D02*
X170320000Y-89600000D01*
X161300000Y-74900000D02*
X163150000Y-76750000D01*
X170320000Y-89600000D02*
X163785000Y-83065000D01*
X163150000Y-76750000D02*
X168000000Y-76750000D01*
X163785000Y-83065000D02*
X161125000Y-83065000D01*
%TO.N,Net-(SW1-Pad2)*%
X157254999Y-89475001D02*
X161125000Y-85605000D01*
X149475001Y-89475001D02*
X145200000Y-85200000D01*
X157254999Y-89475001D02*
X149475001Y-89475001D01*
%TD*%
%TA.AperFunction,Conductor*%
%TO.N,GND*%
G36*
X186470018Y-50510000D02*
G01*
X186484851Y-50512310D01*
X186484855Y-50512310D01*
X186493724Y-50513691D01*
X186512436Y-50511244D01*
X186535366Y-50510353D01*
X186806103Y-50524542D01*
X186819209Y-50525919D01*
X187034134Y-50559960D01*
X187115445Y-50572838D01*
X187128345Y-50575580D01*
X187273196Y-50614392D01*
X187418052Y-50653207D01*
X187430586Y-50657279D01*
X187710587Y-50764762D01*
X187722635Y-50770126D01*
X187989870Y-50906289D01*
X188001286Y-50912880D01*
X188252832Y-51076236D01*
X188263495Y-51083984D01*
X188496573Y-51272727D01*
X188506374Y-51281552D01*
X188718448Y-51493626D01*
X188727273Y-51503427D01*
X188916016Y-51736505D01*
X188923764Y-51747168D01*
X189055463Y-51949966D01*
X189087117Y-51998709D01*
X189093711Y-52010130D01*
X189229874Y-52277365D01*
X189235237Y-52289412D01*
X189315256Y-52497865D01*
X189342719Y-52569409D01*
X189346793Y-52581948D01*
X189365165Y-52650510D01*
X189424420Y-52871655D01*
X189427162Y-52884555D01*
X189474080Y-53180785D01*
X189475458Y-53193902D01*
X189489262Y-53457299D01*
X189487935Y-53483276D01*
X189487691Y-53484846D01*
X189487691Y-53484850D01*
X189486309Y-53493724D01*
X189487473Y-53502626D01*
X189487473Y-53502628D01*
X189490436Y-53525283D01*
X189491500Y-53541621D01*
X189491500Y-55729585D01*
X189471498Y-55797706D01*
X189417842Y-55844199D01*
X189347568Y-55854303D01*
X189282988Y-55824809D01*
X189262413Y-55802035D01*
X189250032Y-55784418D01*
X189239509Y-55776037D01*
X189226121Y-55783089D01*
X188022022Y-56987188D01*
X188014408Y-57001132D01*
X188014539Y-57002965D01*
X188018790Y-57009580D01*
X189225730Y-58216520D01*
X189237939Y-58223187D01*
X189249440Y-58214497D01*
X189263953Y-58194739D01*
X189320401Y-58151679D01*
X189391168Y-58145974D01*
X189453786Y-58179434D01*
X189488373Y-58241436D01*
X189491500Y-58269332D01*
X189491500Y-69229585D01*
X189471498Y-69297706D01*
X189417842Y-69344199D01*
X189347568Y-69354303D01*
X189282988Y-69324809D01*
X189262413Y-69302035D01*
X189250032Y-69284418D01*
X189239509Y-69276037D01*
X189226121Y-69283089D01*
X188022022Y-70487188D01*
X188014408Y-70501132D01*
X188014539Y-70502965D01*
X188018790Y-70509580D01*
X189225730Y-71716520D01*
X189237939Y-71723187D01*
X189249440Y-71714497D01*
X189263953Y-71694739D01*
X189320401Y-71651679D01*
X189391168Y-71645974D01*
X189453786Y-71679434D01*
X189488373Y-71741436D01*
X189491500Y-71769332D01*
X189491500Y-83229585D01*
X189471498Y-83297706D01*
X189417842Y-83344199D01*
X189347568Y-83354303D01*
X189282988Y-83324809D01*
X189262413Y-83302035D01*
X189250032Y-83284418D01*
X189239509Y-83276037D01*
X189226121Y-83283089D01*
X188022022Y-84487188D01*
X188014408Y-84501132D01*
X188014539Y-84502965D01*
X188018790Y-84509580D01*
X189225730Y-85716520D01*
X189237939Y-85723187D01*
X189249440Y-85714497D01*
X189263953Y-85694739D01*
X189320401Y-85651679D01*
X189391168Y-85645974D01*
X189453786Y-85679434D01*
X189488373Y-85741436D01*
X189491500Y-85769332D01*
X189491500Y-96729585D01*
X189471498Y-96797706D01*
X189417842Y-96844199D01*
X189347568Y-96854303D01*
X189282988Y-96824809D01*
X189262413Y-96802035D01*
X189250032Y-96784418D01*
X189239509Y-96776037D01*
X189226121Y-96783089D01*
X188022022Y-97987188D01*
X188014408Y-98001132D01*
X188014539Y-98002965D01*
X188018790Y-98009580D01*
X189225730Y-99216520D01*
X189237939Y-99223187D01*
X189249440Y-99214497D01*
X189263953Y-99194739D01*
X189320401Y-99151679D01*
X189391168Y-99145974D01*
X189453786Y-99179434D01*
X189488373Y-99241436D01*
X189491500Y-99269332D01*
X189491500Y-101450633D01*
X189490000Y-101470018D01*
X189487690Y-101484851D01*
X189487690Y-101484855D01*
X189486309Y-101493724D01*
X189488135Y-101507683D01*
X189488756Y-101512433D01*
X189489647Y-101535366D01*
X189476626Y-101783819D01*
X189475458Y-101806099D01*
X189474081Y-101819209D01*
X189461649Y-101897699D01*
X189427162Y-102115445D01*
X189424420Y-102128345D01*
X189346795Y-102418047D01*
X189342721Y-102430586D01*
X189252124Y-102666598D01*
X189235238Y-102710587D01*
X189229874Y-102722635D01*
X189093711Y-102989870D01*
X189087120Y-103001286D01*
X188923764Y-103252832D01*
X188916018Y-103263492D01*
X188842544Y-103354225D01*
X188727273Y-103496573D01*
X188718448Y-103506374D01*
X188506374Y-103718448D01*
X188496573Y-103727273D01*
X188280432Y-103902301D01*
X188263495Y-103916016D01*
X188252832Y-103923764D01*
X188001286Y-104087120D01*
X187989870Y-104093711D01*
X187792999Y-104194022D01*
X187722635Y-104229874D01*
X187710588Y-104235237D01*
X187430586Y-104342721D01*
X187418052Y-104346793D01*
X187273196Y-104385607D01*
X187128345Y-104424420D01*
X187115445Y-104427162D01*
X187034134Y-104440040D01*
X186819209Y-104474081D01*
X186806101Y-104475458D01*
X186730937Y-104479397D01*
X186542701Y-104489262D01*
X186516724Y-104487935D01*
X186515154Y-104487691D01*
X186515150Y-104487691D01*
X186506276Y-104486309D01*
X186497374Y-104487473D01*
X186497372Y-104487473D01*
X186482323Y-104489441D01*
X186474714Y-104490436D01*
X186458379Y-104491500D01*
X103549367Y-104491500D01*
X103529982Y-104490000D01*
X103515149Y-104487690D01*
X103515145Y-104487690D01*
X103506276Y-104486309D01*
X103487564Y-104488756D01*
X103464634Y-104489647D01*
X103193897Y-104475458D01*
X103180791Y-104474081D01*
X102965866Y-104440040D01*
X102884555Y-104427162D01*
X102871655Y-104424420D01*
X102726804Y-104385607D01*
X102581948Y-104346793D01*
X102569414Y-104342721D01*
X102289412Y-104235237D01*
X102277365Y-104229874D01*
X102207002Y-104194022D01*
X102010130Y-104093711D01*
X101998714Y-104087120D01*
X101747168Y-103923764D01*
X101736505Y-103916016D01*
X101719569Y-103902301D01*
X101503427Y-103727273D01*
X101493626Y-103718448D01*
X101281552Y-103506374D01*
X101272727Y-103496573D01*
X101157456Y-103354225D01*
X101083982Y-103263492D01*
X101076236Y-103252832D01*
X100912880Y-103001286D01*
X100906289Y-102989870D01*
X100770126Y-102722635D01*
X100764762Y-102710587D01*
X100747876Y-102666598D01*
X100657279Y-102430586D01*
X100653205Y-102418047D01*
X100575580Y-102128345D01*
X100572838Y-102115445D01*
X100538351Y-101897699D01*
X100525919Y-101819209D01*
X100524542Y-101806098D01*
X100523375Y-101783819D01*
X100510932Y-101546409D01*
X100512505Y-101518915D01*
X100513576Y-101512552D01*
X100513729Y-101500000D01*
X100509773Y-101472376D01*
X100508500Y-101454514D01*
X100508500Y-99566522D01*
X115237273Y-99566522D01*
X115284764Y-99743761D01*
X115288510Y-99754053D01*
X115380586Y-99951511D01*
X115386069Y-99961007D01*
X115511028Y-100139467D01*
X115518084Y-100147875D01*
X115672125Y-100301916D01*
X115680533Y-100308972D01*
X115858993Y-100433931D01*
X115868489Y-100439414D01*
X116065947Y-100531490D01*
X116076239Y-100535236D01*
X116248503Y-100581394D01*
X116262599Y-100581058D01*
X116266000Y-100573116D01*
X116266000Y-100567967D01*
X116774000Y-100567967D01*
X116777973Y-100581498D01*
X116786522Y-100582727D01*
X116963761Y-100535236D01*
X116974053Y-100531490D01*
X117171511Y-100439414D01*
X117181007Y-100433931D01*
X117359467Y-100308972D01*
X117367875Y-100301916D01*
X117521916Y-100147875D01*
X117528972Y-100139467D01*
X117653931Y-99961007D01*
X117659414Y-99951511D01*
X117751490Y-99754053D01*
X117755236Y-99743761D01*
X117801394Y-99571497D01*
X117801058Y-99557401D01*
X117793116Y-99554000D01*
X116792115Y-99554000D01*
X116776876Y-99558475D01*
X116775671Y-99559865D01*
X116774000Y-99567548D01*
X116774000Y-100567967D01*
X116266000Y-100567967D01*
X116266000Y-99572115D01*
X116261525Y-99556876D01*
X116260135Y-99555671D01*
X116252452Y-99554000D01*
X115252033Y-99554000D01*
X115238502Y-99557973D01*
X115237273Y-99566522D01*
X100508500Y-99566522D01*
X100508500Y-99028503D01*
X115238606Y-99028503D01*
X115238942Y-99042599D01*
X115246884Y-99046000D01*
X116247885Y-99046000D01*
X116263124Y-99041525D01*
X116264329Y-99040135D01*
X116266000Y-99032452D01*
X116266000Y-99027885D01*
X116774000Y-99027885D01*
X116778475Y-99043124D01*
X116779865Y-99044329D01*
X116787548Y-99046000D01*
X117787967Y-99046000D01*
X117801498Y-99042027D01*
X117802727Y-99033478D01*
X117755236Y-98856239D01*
X117751490Y-98845947D01*
X117659414Y-98648489D01*
X117653931Y-98638993D01*
X117528972Y-98460533D01*
X117521916Y-98452125D01*
X117367875Y-98298084D01*
X117359467Y-98291028D01*
X117181007Y-98166069D01*
X117171511Y-98160586D01*
X116974053Y-98068510D01*
X116963761Y-98064764D01*
X116791497Y-98018606D01*
X116777401Y-98018942D01*
X116774000Y-98026884D01*
X116774000Y-99027885D01*
X116266000Y-99027885D01*
X116266000Y-98032033D01*
X116262027Y-98018502D01*
X116253478Y-98017273D01*
X116076239Y-98064764D01*
X116065947Y-98068510D01*
X115868489Y-98160586D01*
X115858993Y-98166069D01*
X115680533Y-98291028D01*
X115672125Y-98298084D01*
X115518084Y-98452125D01*
X115511028Y-98460533D01*
X115386069Y-98638993D01*
X115380586Y-98648489D01*
X115288510Y-98845947D01*
X115284764Y-98856239D01*
X115238606Y-99028503D01*
X100508500Y-99028503D01*
X100508500Y-92589654D01*
X101725618Y-92589654D01*
X101732673Y-92599627D01*
X101763679Y-92625551D01*
X101770598Y-92630579D01*
X101995272Y-92771515D01*
X102002807Y-92775556D01*
X102244520Y-92884694D01*
X102252551Y-92887680D01*
X102506832Y-92963002D01*
X102515184Y-92964869D01*
X102777340Y-93004984D01*
X102785874Y-93005700D01*
X103051045Y-93009867D01*
X103059596Y-93009418D01*
X103322883Y-92977557D01*
X103331284Y-92975955D01*
X103587824Y-92908653D01*
X103595926Y-92905926D01*
X103840949Y-92804434D01*
X103848617Y-92800628D01*
X104077598Y-92666822D01*
X104084679Y-92662009D01*
X104164655Y-92599301D01*
X104173125Y-92587442D01*
X104166608Y-92575818D01*
X102962812Y-91372022D01*
X102948868Y-91364408D01*
X102947035Y-91364539D01*
X102940420Y-91368790D01*
X101732910Y-92576300D01*
X101725618Y-92589654D01*
X100508500Y-92589654D01*
X100508500Y-90983204D01*
X100937665Y-90983204D01*
X100952932Y-91247969D01*
X100954005Y-91256470D01*
X101005065Y-91516722D01*
X101007276Y-91524974D01*
X101093184Y-91775894D01*
X101096499Y-91783779D01*
X101215664Y-92020713D01*
X101220020Y-92028079D01*
X101349347Y-92216250D01*
X101359601Y-92224594D01*
X101373342Y-92217448D01*
X102577978Y-91012812D01*
X102584356Y-91001132D01*
X103314408Y-91001132D01*
X103314539Y-91002965D01*
X103318790Y-91009580D01*
X104525730Y-92216520D01*
X104537939Y-92223187D01*
X104549439Y-92214497D01*
X104646831Y-92081913D01*
X104651418Y-92074685D01*
X104777962Y-91841621D01*
X104781530Y-91833827D01*
X104875271Y-91585750D01*
X104877748Y-91577544D01*
X104936954Y-91319038D01*
X104938294Y-91310577D01*
X104962031Y-91044616D01*
X104962277Y-91039677D01*
X104962666Y-91002485D01*
X104962523Y-90997519D01*
X104944362Y-90731123D01*
X104943201Y-90722649D01*
X104889419Y-90462944D01*
X104887120Y-90454709D01*
X104798588Y-90204705D01*
X104795191Y-90196854D01*
X104673550Y-89961178D01*
X104669122Y-89953866D01*
X104550031Y-89784417D01*
X104539509Y-89776037D01*
X104526121Y-89783089D01*
X103322022Y-90987188D01*
X103314408Y-91001132D01*
X102584356Y-91001132D01*
X102585592Y-90998868D01*
X102585461Y-90997035D01*
X102581210Y-90990420D01*
X101373814Y-89783024D01*
X101361804Y-89776466D01*
X101350064Y-89785434D01*
X101241935Y-89935911D01*
X101237418Y-89943196D01*
X101113325Y-90177567D01*
X101109839Y-90185395D01*
X101018700Y-90434446D01*
X101016311Y-90442670D01*
X100959812Y-90701795D01*
X100958563Y-90710250D01*
X100937754Y-90974653D01*
X100937665Y-90983204D01*
X100508500Y-90983204D01*
X100508500Y-89412500D01*
X101726584Y-89412500D01*
X101732980Y-89423770D01*
X102937188Y-90627978D01*
X102951132Y-90635592D01*
X102952965Y-90635461D01*
X102959580Y-90631210D01*
X104166604Y-89424186D01*
X104173795Y-89411017D01*
X104166473Y-89400780D01*
X104119233Y-89362115D01*
X104112261Y-89357160D01*
X104105771Y-89353183D01*
X106312112Y-89353183D01*
X106312336Y-89357850D01*
X106312336Y-89357855D01*
X106314890Y-89411017D01*
X106324830Y-89617963D01*
X106347964Y-89734266D01*
X106367684Y-89833402D01*
X106376546Y-89877956D01*
X106378125Y-89882354D01*
X106378127Y-89882361D01*
X106459320Y-90108501D01*
X106466123Y-90127449D01*
X106591594Y-90360961D01*
X106594389Y-90364705D01*
X106594391Y-90364707D01*
X106652609Y-90442670D01*
X106750201Y-90573362D01*
X106753510Y-90576642D01*
X106753515Y-90576648D01*
X106935145Y-90756699D01*
X106938462Y-90759987D01*
X106942224Y-90762745D01*
X106942227Y-90762748D01*
X107118667Y-90892119D01*
X107152239Y-90916735D01*
X107156382Y-90918915D01*
X107156384Y-90918916D01*
X107382687Y-91037980D01*
X107382692Y-91037982D01*
X107386837Y-91040163D01*
X107391260Y-91041708D01*
X107391261Y-91041708D01*
X107535998Y-91092252D01*
X107637102Y-91127559D01*
X107641695Y-91128431D01*
X107892947Y-91176133D01*
X107892950Y-91176133D01*
X107897536Y-91177004D01*
X108023411Y-91181950D01*
X108157750Y-91187228D01*
X108157755Y-91187228D01*
X108162418Y-91187411D01*
X108265397Y-91176133D01*
X108421275Y-91159062D01*
X108421280Y-91159061D01*
X108425928Y-91158552D01*
X108549506Y-91126017D01*
X108677756Y-91092252D01*
X108677759Y-91092251D01*
X108682279Y-91091061D01*
X108752730Y-91060793D01*
X108823213Y-91052281D01*
X108891562Y-91087466D01*
X112496343Y-94692247D01*
X112503887Y-94700537D01*
X112508000Y-94707018D01*
X112513777Y-94712443D01*
X112557667Y-94753658D01*
X112560509Y-94756413D01*
X112580230Y-94776134D01*
X112583425Y-94778612D01*
X112592447Y-94786318D01*
X112624679Y-94816586D01*
X112631628Y-94820406D01*
X112642432Y-94826346D01*
X112658956Y-94837199D01*
X112674959Y-94849613D01*
X112715543Y-94867176D01*
X112726173Y-94872383D01*
X112764940Y-94893695D01*
X112772617Y-94895666D01*
X112772622Y-94895668D01*
X112784558Y-94898732D01*
X112803266Y-94905137D01*
X112821855Y-94913181D01*
X112829680Y-94914420D01*
X112829682Y-94914421D01*
X112865519Y-94920097D01*
X112877140Y-94922504D01*
X112912289Y-94931528D01*
X112919970Y-94933500D01*
X112940231Y-94933500D01*
X112959940Y-94935051D01*
X112979943Y-94938219D01*
X112987835Y-94937473D01*
X112993062Y-94936979D01*
X113023954Y-94934059D01*
X113035811Y-94933500D01*
X115780606Y-94933500D01*
X115848727Y-94953502D01*
X115883819Y-94987229D01*
X115990643Y-95139789D01*
X115993802Y-95144300D01*
X116155700Y-95306198D01*
X116160208Y-95309355D01*
X116160211Y-95309357D01*
X116229419Y-95357817D01*
X116343251Y-95437523D01*
X116348233Y-95439846D01*
X116348238Y-95439849D01*
X116499357Y-95510316D01*
X116550757Y-95534284D01*
X116556065Y-95535706D01*
X116556067Y-95535707D01*
X116766598Y-95592119D01*
X116766600Y-95592119D01*
X116771913Y-95593543D01*
X116973597Y-95611188D01*
X117039715Y-95637051D01*
X117051710Y-95647614D01*
X120290848Y-98886752D01*
X120324874Y-98949064D01*
X120323459Y-99008459D01*
X120307882Y-99066591D01*
X120307881Y-99066598D01*
X120306457Y-99071913D01*
X120286502Y-99300000D01*
X120306457Y-99528087D01*
X120307881Y-99533400D01*
X120307881Y-99533402D01*
X120342342Y-99662009D01*
X120365716Y-99749243D01*
X120368039Y-99754224D01*
X120368039Y-99754225D01*
X120460151Y-99951762D01*
X120460154Y-99951767D01*
X120462477Y-99956749D01*
X120593802Y-100144300D01*
X120755700Y-100306198D01*
X120760208Y-100309355D01*
X120760211Y-100309357D01*
X120838389Y-100364098D01*
X120943251Y-100437523D01*
X120948233Y-100439846D01*
X120948238Y-100439849D01*
X121144765Y-100531490D01*
X121150757Y-100534284D01*
X121156065Y-100535706D01*
X121156067Y-100535707D01*
X121366598Y-100592119D01*
X121366600Y-100592119D01*
X121371913Y-100593543D01*
X121600000Y-100613498D01*
X121828087Y-100593543D01*
X121833400Y-100592119D01*
X121833402Y-100592119D01*
X122043933Y-100535707D01*
X122043935Y-100535706D01*
X122049243Y-100534284D01*
X122055235Y-100531490D01*
X122251762Y-100439849D01*
X122251767Y-100439846D01*
X122256749Y-100437523D01*
X122361611Y-100364098D01*
X122439789Y-100309357D01*
X122439792Y-100309355D01*
X122444300Y-100306198D01*
X122606198Y-100144300D01*
X122737523Y-99956749D01*
X122739846Y-99951767D01*
X122739849Y-99951762D01*
X122831961Y-99754225D01*
X122831961Y-99754224D01*
X122834284Y-99749243D01*
X122857659Y-99662009D01*
X122883245Y-99566522D01*
X124337273Y-99566522D01*
X124384764Y-99743761D01*
X124388510Y-99754053D01*
X124480586Y-99951511D01*
X124486069Y-99961007D01*
X124611028Y-100139467D01*
X124618084Y-100147875D01*
X124772125Y-100301916D01*
X124780533Y-100308972D01*
X124958993Y-100433931D01*
X124968489Y-100439414D01*
X125165947Y-100531490D01*
X125176239Y-100535236D01*
X125348503Y-100581394D01*
X125362599Y-100581058D01*
X125366000Y-100573116D01*
X125366000Y-100567967D01*
X125874000Y-100567967D01*
X125877973Y-100581498D01*
X125886522Y-100582727D01*
X126063761Y-100535236D01*
X126074053Y-100531490D01*
X126271511Y-100439414D01*
X126281007Y-100433931D01*
X126459467Y-100308972D01*
X126467875Y-100301916D01*
X126621916Y-100147875D01*
X126628972Y-100139467D01*
X126753931Y-99961007D01*
X126759414Y-99951511D01*
X126851490Y-99754053D01*
X126855236Y-99743761D01*
X126901394Y-99571497D01*
X126901058Y-99557401D01*
X126893116Y-99554000D01*
X125892115Y-99554000D01*
X125876876Y-99558475D01*
X125875671Y-99559865D01*
X125874000Y-99567548D01*
X125874000Y-100567967D01*
X125366000Y-100567967D01*
X125366000Y-99572115D01*
X125361525Y-99556876D01*
X125360135Y-99555671D01*
X125352452Y-99554000D01*
X124352033Y-99554000D01*
X124338502Y-99557973D01*
X124337273Y-99566522D01*
X122883245Y-99566522D01*
X122892119Y-99533402D01*
X122892119Y-99533400D01*
X122893543Y-99528087D01*
X122913498Y-99300000D01*
X122893543Y-99071913D01*
X122883244Y-99033478D01*
X122881911Y-99028503D01*
X124338606Y-99028503D01*
X124338942Y-99042599D01*
X124346884Y-99046000D01*
X125347885Y-99046000D01*
X125363124Y-99041525D01*
X125364329Y-99040135D01*
X125366000Y-99032452D01*
X125366000Y-99027885D01*
X125874000Y-99027885D01*
X125878475Y-99043124D01*
X125879865Y-99044329D01*
X125887548Y-99046000D01*
X126887967Y-99046000D01*
X126901498Y-99042027D01*
X126902727Y-99033478D01*
X126855236Y-98856239D01*
X126851490Y-98845947D01*
X126759414Y-98648489D01*
X126753931Y-98638993D01*
X126628972Y-98460533D01*
X126621916Y-98452125D01*
X126467875Y-98298084D01*
X126459467Y-98291028D01*
X126281007Y-98166069D01*
X126271511Y-98160586D01*
X126074053Y-98068510D01*
X126063761Y-98064764D01*
X125891497Y-98018606D01*
X125877401Y-98018942D01*
X125874000Y-98026884D01*
X125874000Y-99027885D01*
X125366000Y-99027885D01*
X125366000Y-98032033D01*
X125362027Y-98018502D01*
X125353478Y-98017273D01*
X125176239Y-98064764D01*
X125165947Y-98068510D01*
X124968489Y-98160586D01*
X124958993Y-98166069D01*
X124780533Y-98291028D01*
X124772125Y-98298084D01*
X124618084Y-98452125D01*
X124611028Y-98460533D01*
X124486069Y-98638993D01*
X124480586Y-98648489D01*
X124388510Y-98845947D01*
X124384764Y-98856239D01*
X124338606Y-99028503D01*
X122881911Y-99028503D01*
X122835707Y-98856067D01*
X122835706Y-98856065D01*
X122834284Y-98850757D01*
X122739966Y-98648489D01*
X122739849Y-98648238D01*
X122739846Y-98648233D01*
X122737523Y-98643251D01*
X122606198Y-98455700D01*
X122444300Y-98293802D01*
X122439792Y-98290645D01*
X122439789Y-98290643D01*
X122291631Y-98186902D01*
X122256749Y-98162477D01*
X122251767Y-98160154D01*
X122251762Y-98160151D01*
X122054225Y-98068039D01*
X122054224Y-98068039D01*
X122049243Y-98065716D01*
X122043935Y-98064294D01*
X122043933Y-98064293D01*
X121833402Y-98007881D01*
X121833400Y-98007881D01*
X121828087Y-98006457D01*
X121600000Y-97986502D01*
X121371913Y-98006457D01*
X121308458Y-98023460D01*
X121237482Y-98021770D01*
X121186753Y-97990848D01*
X118204720Y-95008815D01*
X118170694Y-94946503D01*
X118175759Y-94875688D01*
X118179614Y-94866483D01*
X118234284Y-94749243D01*
X118260890Y-94649951D01*
X118292119Y-94533402D01*
X118292119Y-94533400D01*
X118293543Y-94528087D01*
X118313498Y-94300000D01*
X120686502Y-94300000D01*
X120706457Y-94528087D01*
X120707881Y-94533400D01*
X120707881Y-94533402D01*
X120739111Y-94649951D01*
X120765716Y-94749243D01*
X120768039Y-94754224D01*
X120768039Y-94754225D01*
X120860151Y-94951762D01*
X120860154Y-94951767D01*
X120862477Y-94956749D01*
X120993802Y-95144300D01*
X121155700Y-95306198D01*
X121160208Y-95309355D01*
X121160211Y-95309357D01*
X121229419Y-95357817D01*
X121343251Y-95437523D01*
X121348233Y-95439846D01*
X121348238Y-95439849D01*
X121499357Y-95510316D01*
X121550757Y-95534284D01*
X121556065Y-95535706D01*
X121556067Y-95535707D01*
X121766598Y-95592119D01*
X121766600Y-95592119D01*
X121771913Y-95593543D01*
X122000000Y-95613498D01*
X122228087Y-95593543D01*
X122233400Y-95592119D01*
X122233402Y-95592119D01*
X122443933Y-95535707D01*
X122443935Y-95535706D01*
X122449243Y-95534284D01*
X122500643Y-95510316D01*
X122651762Y-95439849D01*
X122651767Y-95439846D01*
X122656749Y-95437523D01*
X122770581Y-95357817D01*
X122839789Y-95309357D01*
X122839792Y-95309355D01*
X122844300Y-95306198D01*
X123006198Y-95144300D01*
X123028398Y-95112595D01*
X123046160Y-95087229D01*
X123101618Y-95042901D01*
X123149373Y-95033500D01*
X124265500Y-95033500D01*
X124333621Y-95053502D01*
X124380114Y-95107158D01*
X124391500Y-95159500D01*
X124391500Y-95448134D01*
X124398255Y-95510316D01*
X124449385Y-95646705D01*
X124536739Y-95763261D01*
X124653295Y-95850615D01*
X124789684Y-95901745D01*
X124851866Y-95908500D01*
X126360406Y-95908500D01*
X126428527Y-95928502D01*
X126449501Y-95945405D01*
X129390848Y-98886752D01*
X129424874Y-98949064D01*
X129423459Y-99008459D01*
X129407882Y-99066591D01*
X129407881Y-99066598D01*
X129406457Y-99071913D01*
X129386502Y-99300000D01*
X129406457Y-99528087D01*
X129407881Y-99533400D01*
X129407881Y-99533402D01*
X129442342Y-99662009D01*
X129465716Y-99749243D01*
X129468039Y-99754224D01*
X129468039Y-99754225D01*
X129560151Y-99951762D01*
X129560154Y-99951767D01*
X129562477Y-99956749D01*
X129693802Y-100144300D01*
X129855700Y-100306198D01*
X129860208Y-100309355D01*
X129860211Y-100309357D01*
X129938389Y-100364098D01*
X130043251Y-100437523D01*
X130048233Y-100439846D01*
X130048238Y-100439849D01*
X130244765Y-100531490D01*
X130250757Y-100534284D01*
X130256065Y-100535706D01*
X130256067Y-100535707D01*
X130466598Y-100592119D01*
X130466600Y-100592119D01*
X130471913Y-100593543D01*
X130700000Y-100613498D01*
X130928087Y-100593543D01*
X130933400Y-100592119D01*
X130933402Y-100592119D01*
X131143933Y-100535707D01*
X131143935Y-100535706D01*
X131149243Y-100534284D01*
X131155235Y-100531490D01*
X131351762Y-100439849D01*
X131351767Y-100439846D01*
X131356749Y-100437523D01*
X131461611Y-100364098D01*
X131539789Y-100309357D01*
X131539792Y-100309355D01*
X131544300Y-100306198D01*
X131706198Y-100144300D01*
X131837523Y-99956749D01*
X131839846Y-99951767D01*
X131839849Y-99951762D01*
X131931961Y-99754225D01*
X131931961Y-99754224D01*
X131934284Y-99749243D01*
X131957659Y-99662009D01*
X131992119Y-99533402D01*
X131992119Y-99533400D01*
X131993543Y-99528087D01*
X132013498Y-99300000D01*
X131993543Y-99071913D01*
X131992119Y-99066598D01*
X131992118Y-99066591D01*
X131976541Y-99008459D01*
X131978230Y-98937483D01*
X132009152Y-98886752D01*
X134110471Y-96785434D01*
X136225500Y-94670405D01*
X136287812Y-94636379D01*
X136314595Y-94633500D01*
X139321233Y-94633500D01*
X139332416Y-94634027D01*
X139339909Y-94635702D01*
X139347835Y-94635453D01*
X139347836Y-94635453D01*
X139407986Y-94633562D01*
X139411945Y-94633500D01*
X139439856Y-94633500D01*
X139443791Y-94633003D01*
X139443856Y-94632995D01*
X139455693Y-94632062D01*
X139487951Y-94631048D01*
X139491970Y-94630922D01*
X139499889Y-94630673D01*
X139519343Y-94625021D01*
X139538700Y-94621013D01*
X139550930Y-94619468D01*
X139550931Y-94619468D01*
X139558797Y-94618474D01*
X139566168Y-94615555D01*
X139566170Y-94615555D01*
X139599912Y-94602196D01*
X139611142Y-94598351D01*
X139645983Y-94588229D01*
X139645984Y-94588229D01*
X139653593Y-94586018D01*
X139660412Y-94581985D01*
X139660417Y-94581983D01*
X139671028Y-94575707D01*
X139688776Y-94567012D01*
X139707617Y-94559552D01*
X139743387Y-94533564D01*
X139753307Y-94527048D01*
X139784535Y-94508580D01*
X139784538Y-94508578D01*
X139791362Y-94504542D01*
X139805683Y-94490221D01*
X139820717Y-94477380D01*
X139830694Y-94470131D01*
X139837107Y-94465472D01*
X139865298Y-94431395D01*
X139873288Y-94422616D01*
X143043608Y-91252296D01*
X143105920Y-91218270D01*
X143176735Y-91223335D01*
X143233571Y-91265882D01*
X143256018Y-91315517D01*
X143294933Y-91500984D01*
X143296030Y-91506211D01*
X143383829Y-91728533D01*
X143507832Y-91932883D01*
X143511329Y-91936913D01*
X143637154Y-92081913D01*
X143664493Y-92113419D01*
X143668619Y-92116802D01*
X143668623Y-92116806D01*
X143767629Y-92197985D01*
X143849333Y-92264978D01*
X143853969Y-92267617D01*
X143853972Y-92267619D01*
X143967386Y-92332178D01*
X144057066Y-92383227D01*
X144281753Y-92464784D01*
X144287002Y-92465733D01*
X144287005Y-92465734D01*
X144512885Y-92506580D01*
X144512893Y-92506581D01*
X144516969Y-92507318D01*
X144535359Y-92508185D01*
X144540544Y-92508430D01*
X144540551Y-92508430D01*
X144542032Y-92508500D01*
X145910012Y-92508500D01*
X146088175Y-92493383D01*
X146093339Y-92492043D01*
X146093343Y-92492042D01*
X146314375Y-92434673D01*
X146314380Y-92434671D01*
X146319540Y-92433332D01*
X146436636Y-92380584D01*
X146532619Y-92337347D01*
X146532622Y-92337346D01*
X146537480Y-92335157D01*
X146735762Y-92201666D01*
X146908718Y-92036674D01*
X147051402Y-91844900D01*
X147082478Y-91783779D01*
X147157314Y-91636586D01*
X147157314Y-91636585D01*
X147159733Y-91631828D01*
X147200361Y-91500984D01*
X147229032Y-91408651D01*
X147229033Y-91408645D01*
X147230616Y-91403548D01*
X147255173Y-91218270D01*
X147261323Y-91171873D01*
X147261323Y-91171869D01*
X147262023Y-91166589D01*
X147261741Y-91159062D01*
X147256785Y-91027087D01*
X147253055Y-90927726D01*
X147230325Y-90819394D01*
X147205067Y-90699016D01*
X147205066Y-90699013D01*
X147203970Y-90693789D01*
X147116171Y-90471467D01*
X146992168Y-90267117D01*
X146931197Y-90196854D01*
X146839007Y-90090614D01*
X146839005Y-90090612D01*
X146835507Y-90086581D01*
X146831381Y-90083198D01*
X146831377Y-90083194D01*
X146687499Y-89965222D01*
X146650667Y-89935022D01*
X146646031Y-89932383D01*
X146646028Y-89932381D01*
X146447577Y-89819416D01*
X146442934Y-89816773D01*
X146218247Y-89735216D01*
X146212998Y-89734267D01*
X146212995Y-89734266D01*
X145987115Y-89693420D01*
X145987107Y-89693419D01*
X145983031Y-89692682D01*
X145964641Y-89691815D01*
X145959456Y-89691570D01*
X145959449Y-89691570D01*
X145957968Y-89691500D01*
X145787160Y-89691500D01*
X145719039Y-89671498D01*
X145672546Y-89617842D01*
X145662442Y-89547568D01*
X145691936Y-89482988D01*
X145731728Y-89452349D01*
X145893346Y-89373173D01*
X145897994Y-89370896D01*
X146079860Y-89241173D01*
X146238096Y-89083489D01*
X146368453Y-88902077D01*
X146398392Y-88841501D01*
X146465136Y-88706453D01*
X146465137Y-88706451D01*
X146467430Y-88701811D01*
X146532370Y-88488069D01*
X146561529Y-88266590D01*
X146563156Y-88200000D01*
X146544852Y-87977361D01*
X146490431Y-87760702D01*
X146467054Y-87706938D01*
X146458234Y-87636494D01*
X146488901Y-87572462D01*
X146549317Y-87535174D01*
X146620302Y-87536470D01*
X146671699Y-87567603D01*
X148971344Y-89867248D01*
X148978888Y-89875538D01*
X148983001Y-89882019D01*
X148988778Y-89887444D01*
X149032668Y-89928659D01*
X149035510Y-89931414D01*
X149055231Y-89951135D01*
X149058426Y-89953613D01*
X149067448Y-89961319D01*
X149099680Y-89991587D01*
X149106629Y-89995407D01*
X149117433Y-90001347D01*
X149133957Y-90012200D01*
X149149960Y-90024614D01*
X149190544Y-90042177D01*
X149201174Y-90047384D01*
X149239941Y-90068696D01*
X149247618Y-90070667D01*
X149247623Y-90070669D01*
X149259559Y-90073733D01*
X149278267Y-90080138D01*
X149296856Y-90088182D01*
X149304681Y-90089421D01*
X149304683Y-90089422D01*
X149340520Y-90095098D01*
X149352141Y-90097505D01*
X149383960Y-90105674D01*
X149394971Y-90108501D01*
X149415232Y-90108501D01*
X149434941Y-90110052D01*
X149454944Y-90113220D01*
X149462836Y-90112474D01*
X149468063Y-90111980D01*
X149498955Y-90109060D01*
X149510812Y-90108501D01*
X157176232Y-90108501D01*
X157187415Y-90109028D01*
X157194908Y-90110703D01*
X157202834Y-90110454D01*
X157202835Y-90110454D01*
X157262985Y-90108563D01*
X157266944Y-90108501D01*
X157294855Y-90108501D01*
X157298790Y-90108004D01*
X157298855Y-90107996D01*
X157310692Y-90107063D01*
X157342950Y-90106049D01*
X157346969Y-90105923D01*
X157354888Y-90105674D01*
X157374342Y-90100022D01*
X157393699Y-90096014D01*
X157405929Y-90094469D01*
X157405930Y-90094469D01*
X157413796Y-90093475D01*
X157421167Y-90090556D01*
X157421169Y-90090556D01*
X157454911Y-90077197D01*
X157466141Y-90073352D01*
X157500982Y-90063230D01*
X157500983Y-90063230D01*
X157508592Y-90061019D01*
X157515411Y-90056986D01*
X157515416Y-90056984D01*
X157526027Y-90050708D01*
X157543775Y-90042013D01*
X157562616Y-90034553D01*
X157582986Y-90019754D01*
X157598386Y-90008565D01*
X157608306Y-90002049D01*
X157639534Y-89983581D01*
X157639537Y-89983579D01*
X157646361Y-89979543D01*
X157660682Y-89965222D01*
X157675716Y-89952381D01*
X157677431Y-89951135D01*
X157692106Y-89940473D01*
X157720297Y-89906396D01*
X157728287Y-89897617D01*
X160439843Y-87186062D01*
X163078493Y-87186062D01*
X163087789Y-87198077D01*
X163138994Y-87233931D01*
X163148489Y-87239414D01*
X163345947Y-87331490D01*
X163356239Y-87335236D01*
X163566688Y-87391625D01*
X163577481Y-87393528D01*
X163794525Y-87412517D01*
X163805475Y-87412517D01*
X164022519Y-87393528D01*
X164033312Y-87391625D01*
X164243761Y-87335236D01*
X164254053Y-87331490D01*
X164451511Y-87239414D01*
X164461006Y-87233931D01*
X164513048Y-87197491D01*
X164521424Y-87187012D01*
X164514356Y-87173566D01*
X163812812Y-86472022D01*
X163798868Y-86464408D01*
X163797035Y-86464539D01*
X163790420Y-86468790D01*
X163084923Y-87174287D01*
X163078493Y-87186062D01*
X160439843Y-87186062D01*
X161175500Y-86450405D01*
X161237812Y-86416379D01*
X161264595Y-86413500D01*
X161866502Y-86413500D01*
X161868950Y-86413307D01*
X161868958Y-86413307D01*
X161897421Y-86411067D01*
X161897426Y-86411066D01*
X161903831Y-86410562D01*
X162003769Y-86381528D01*
X162055988Y-86366357D01*
X162055990Y-86366356D01*
X162063601Y-86364145D01*
X162143941Y-86316632D01*
X162199980Y-86283491D01*
X162199983Y-86283489D01*
X162206807Y-86279453D01*
X162287833Y-86198427D01*
X162350145Y-86164401D01*
X162420960Y-86169466D01*
X162477796Y-86212013D01*
X162502449Y-86276540D01*
X162506472Y-86322520D01*
X162508375Y-86333312D01*
X162564764Y-86543761D01*
X162568510Y-86554053D01*
X162660586Y-86751511D01*
X162666069Y-86761006D01*
X162702509Y-86813048D01*
X162712988Y-86821424D01*
X162726434Y-86814356D01*
X163710905Y-85829885D01*
X163773217Y-85795859D01*
X163844032Y-85800924D01*
X163889095Y-85829885D01*
X164874287Y-86815077D01*
X164886062Y-86821507D01*
X164898077Y-86812211D01*
X164933931Y-86761006D01*
X164939414Y-86751511D01*
X165031490Y-86554053D01*
X165035236Y-86543761D01*
X165091625Y-86333312D01*
X165093528Y-86322519D01*
X165112517Y-86105475D01*
X165112517Y-86094525D01*
X165093528Y-85877481D01*
X165091625Y-85866688D01*
X165035236Y-85656239D01*
X165031490Y-85645947D01*
X164950303Y-85471842D01*
X164939642Y-85401651D01*
X164968622Y-85336838D01*
X165028042Y-85297981D01*
X165099036Y-85297418D01*
X165153593Y-85329497D01*
X169010848Y-89186752D01*
X169044874Y-89249064D01*
X169043459Y-89308459D01*
X169027882Y-89366591D01*
X169027881Y-89366598D01*
X169026457Y-89371913D01*
X169006502Y-89600000D01*
X169026457Y-89828087D01*
X169027881Y-89833400D01*
X169027881Y-89833402D01*
X169083821Y-90042169D01*
X169085716Y-90049243D01*
X169088039Y-90054224D01*
X169088039Y-90054225D01*
X169180151Y-90251762D01*
X169180154Y-90251767D01*
X169182477Y-90256749D01*
X169313802Y-90444300D01*
X169475700Y-90606198D01*
X169480208Y-90609355D01*
X169480211Y-90609357D01*
X169632771Y-90716181D01*
X169677099Y-90771638D01*
X169686500Y-90819394D01*
X169686500Y-101680606D01*
X169666498Y-101748727D01*
X169632771Y-101783819D01*
X169480211Y-101890643D01*
X169480208Y-101890645D01*
X169475700Y-101893802D01*
X169313802Y-102055700D01*
X169310645Y-102060208D01*
X169310643Y-102060211D01*
X169262935Y-102128345D01*
X169182477Y-102243251D01*
X169180154Y-102248233D01*
X169180151Y-102248238D01*
X169100969Y-102418047D01*
X169085716Y-102450757D01*
X169084294Y-102456065D01*
X169084293Y-102456067D01*
X169027883Y-102666591D01*
X169026457Y-102671913D01*
X169006502Y-102900000D01*
X169026457Y-103128087D01*
X169085716Y-103349243D01*
X169088039Y-103354224D01*
X169088039Y-103354225D01*
X169180151Y-103551762D01*
X169180154Y-103551767D01*
X169182477Y-103556749D01*
X169185634Y-103561257D01*
X169301880Y-103727273D01*
X169313802Y-103744300D01*
X169475700Y-103906198D01*
X169480208Y-103909355D01*
X169480211Y-103909357D01*
X169500794Y-103923769D01*
X169663251Y-104037523D01*
X169668233Y-104039846D01*
X169668238Y-104039849D01*
X169769606Y-104087117D01*
X169870757Y-104134284D01*
X169876065Y-104135706D01*
X169876067Y-104135707D01*
X170086598Y-104192119D01*
X170086600Y-104192119D01*
X170091913Y-104193543D01*
X170320000Y-104213498D01*
X170548087Y-104193543D01*
X170553400Y-104192119D01*
X170553402Y-104192119D01*
X170763933Y-104135707D01*
X170763935Y-104135706D01*
X170769243Y-104134284D01*
X170870394Y-104087117D01*
X170971762Y-104039849D01*
X170971767Y-104039846D01*
X170976749Y-104037523D01*
X171139206Y-103923769D01*
X171159789Y-103909357D01*
X171159792Y-103909355D01*
X171164300Y-103906198D01*
X171326198Y-103744300D01*
X171338121Y-103727273D01*
X171454366Y-103561257D01*
X171457523Y-103556749D01*
X171459846Y-103551767D01*
X171459849Y-103551762D01*
X171551961Y-103354225D01*
X171551961Y-103354224D01*
X171554284Y-103349243D01*
X171613543Y-103128087D01*
X171633498Y-102900000D01*
X174086502Y-102900000D01*
X174106457Y-103128087D01*
X174165716Y-103349243D01*
X174168039Y-103354224D01*
X174168039Y-103354225D01*
X174260151Y-103551762D01*
X174260154Y-103551767D01*
X174262477Y-103556749D01*
X174265634Y-103561257D01*
X174381880Y-103727273D01*
X174393802Y-103744300D01*
X174555700Y-103906198D01*
X174560208Y-103909355D01*
X174560211Y-103909357D01*
X174580794Y-103923769D01*
X174743251Y-104037523D01*
X174748233Y-104039846D01*
X174748238Y-104039849D01*
X174849606Y-104087117D01*
X174950757Y-104134284D01*
X174956065Y-104135706D01*
X174956067Y-104135707D01*
X175166598Y-104192119D01*
X175166600Y-104192119D01*
X175171913Y-104193543D01*
X175400000Y-104213498D01*
X175628087Y-104193543D01*
X175633400Y-104192119D01*
X175633402Y-104192119D01*
X175843933Y-104135707D01*
X175843935Y-104135706D01*
X175849243Y-104134284D01*
X175950394Y-104087117D01*
X176051762Y-104039849D01*
X176051767Y-104039846D01*
X176056749Y-104037523D01*
X176219206Y-103923769D01*
X176239789Y-103909357D01*
X176239792Y-103909355D01*
X176244300Y-103906198D01*
X176406198Y-103744300D01*
X176418121Y-103727273D01*
X176534366Y-103561257D01*
X176537523Y-103556749D01*
X176539846Y-103551767D01*
X176539849Y-103551762D01*
X176631961Y-103354225D01*
X176631961Y-103354224D01*
X176634284Y-103349243D01*
X176693543Y-103128087D01*
X176713498Y-102900000D01*
X176693543Y-102671913D01*
X176692119Y-102666598D01*
X176692118Y-102666591D01*
X176676541Y-102608459D01*
X176678230Y-102537483D01*
X176709152Y-102486752D01*
X179606250Y-99589654D01*
X186425618Y-99589654D01*
X186432673Y-99599627D01*
X186463679Y-99625551D01*
X186470598Y-99630579D01*
X186695272Y-99771515D01*
X186702807Y-99775556D01*
X186944520Y-99884694D01*
X186952551Y-99887680D01*
X187206832Y-99963002D01*
X187215184Y-99964869D01*
X187477340Y-100004984D01*
X187485874Y-100005700D01*
X187751045Y-100009867D01*
X187759596Y-100009418D01*
X188022883Y-99977557D01*
X188031284Y-99975955D01*
X188287824Y-99908653D01*
X188295926Y-99905926D01*
X188540949Y-99804434D01*
X188548617Y-99800628D01*
X188777598Y-99666822D01*
X188784679Y-99662009D01*
X188864655Y-99599301D01*
X188873125Y-99587442D01*
X188866608Y-99575818D01*
X187662812Y-98372022D01*
X187648868Y-98364408D01*
X187647035Y-98364539D01*
X187640420Y-98368790D01*
X186432910Y-99576300D01*
X186425618Y-99589654D01*
X179606250Y-99589654D01*
X181318258Y-97877646D01*
X181380570Y-97843620D01*
X181451385Y-97848685D01*
X181481854Y-97865127D01*
X181552239Y-97916735D01*
X181556382Y-97918915D01*
X181556384Y-97918916D01*
X181782687Y-98037980D01*
X181782692Y-98037982D01*
X181786837Y-98040163D01*
X181791260Y-98041708D01*
X181791261Y-98041708D01*
X181935998Y-98092252D01*
X182037102Y-98127559D01*
X182041695Y-98128431D01*
X182292947Y-98176133D01*
X182292950Y-98176133D01*
X182297536Y-98177004D01*
X182423411Y-98181950D01*
X182557750Y-98187228D01*
X182557755Y-98187228D01*
X182562418Y-98187411D01*
X182665397Y-98176133D01*
X182821275Y-98159062D01*
X182821280Y-98159061D01*
X182825928Y-98158552D01*
X182949506Y-98126017D01*
X183077756Y-98092252D01*
X183077759Y-98092251D01*
X183082279Y-98091061D01*
X183134768Y-98068510D01*
X183321544Y-97988265D01*
X183321546Y-97988264D01*
X183325838Y-97986420D01*
X183331035Y-97983204D01*
X185637665Y-97983204D01*
X185652932Y-98247969D01*
X185654005Y-98256470D01*
X185705065Y-98516722D01*
X185707276Y-98524974D01*
X185793184Y-98775894D01*
X185796499Y-98783779D01*
X185915664Y-99020713D01*
X185920020Y-99028079D01*
X186049347Y-99216250D01*
X186059601Y-99224594D01*
X186073342Y-99217448D01*
X187277978Y-98012812D01*
X187285592Y-97998868D01*
X187285461Y-97997035D01*
X187281210Y-97990420D01*
X186073814Y-96783024D01*
X186061804Y-96776466D01*
X186050064Y-96785434D01*
X185941935Y-96935911D01*
X185937418Y-96943196D01*
X185813325Y-97177567D01*
X185809839Y-97185395D01*
X185718700Y-97434446D01*
X185716311Y-97442670D01*
X185659812Y-97701795D01*
X185658563Y-97710250D01*
X185637754Y-97974653D01*
X185637665Y-97983204D01*
X183331035Y-97983204D01*
X183425458Y-97924773D01*
X183547282Y-97849387D01*
X183547286Y-97849384D01*
X183551255Y-97846928D01*
X183753577Y-97675649D01*
X183795383Y-97627978D01*
X183925278Y-97479862D01*
X183925281Y-97479857D01*
X183928360Y-97476347D01*
X184071765Y-97253399D01*
X184180641Y-97011703D01*
X184202017Y-96935911D01*
X184251326Y-96761074D01*
X184251327Y-96761071D01*
X184252596Y-96756570D01*
X184262174Y-96681283D01*
X184285652Y-96496733D01*
X184285652Y-96496729D01*
X184286050Y-96493603D01*
X184288174Y-96412500D01*
X186426584Y-96412500D01*
X186432980Y-96423770D01*
X187637188Y-97627978D01*
X187651132Y-97635592D01*
X187652965Y-97635461D01*
X187659580Y-97631210D01*
X188866604Y-96424186D01*
X188873795Y-96411017D01*
X188866473Y-96400780D01*
X188819233Y-96362115D01*
X188812261Y-96357160D01*
X188586122Y-96218582D01*
X188578552Y-96214624D01*
X188335704Y-96108022D01*
X188327644Y-96105120D01*
X188072592Y-96032467D01*
X188064214Y-96030685D01*
X187801656Y-95993318D01*
X187793111Y-95992691D01*
X187527908Y-95991302D01*
X187519374Y-95991839D01*
X187256433Y-96026456D01*
X187248035Y-96028149D01*
X186992238Y-96098127D01*
X186984143Y-96100946D01*
X186740199Y-96204997D01*
X186732577Y-96208881D01*
X186505013Y-96345075D01*
X186497981Y-96349962D01*
X186435053Y-96400377D01*
X186426584Y-96412500D01*
X184288174Y-96412500D01*
X184288501Y-96400000D01*
X184285369Y-96357855D01*
X184269202Y-96140295D01*
X184269201Y-96140291D01*
X184268856Y-96135643D01*
X184210352Y-95877093D01*
X184201281Y-95853767D01*
X184115968Y-95634383D01*
X184115967Y-95634380D01*
X184114275Y-95630030D01*
X184104553Y-95613019D01*
X184004248Y-95437523D01*
X183982735Y-95399883D01*
X183818621Y-95191706D01*
X183625540Y-95010074D01*
X183465042Y-94898732D01*
X183411575Y-94861640D01*
X183411572Y-94861638D01*
X183407733Y-94858975D01*
X183403543Y-94856909D01*
X183403540Y-94856907D01*
X183174172Y-94743796D01*
X183174169Y-94743795D01*
X183169984Y-94741731D01*
X182917517Y-94660915D01*
X182749180Y-94633500D01*
X182660490Y-94619056D01*
X182660489Y-94619056D01*
X182655878Y-94618305D01*
X182523347Y-94616570D01*
X182395492Y-94614896D01*
X182395489Y-94614896D01*
X182390815Y-94614835D01*
X182128150Y-94650582D01*
X182123660Y-94651891D01*
X182123654Y-94651892D01*
X182015430Y-94683437D01*
X181873654Y-94724761D01*
X181869407Y-94726719D01*
X181869404Y-94726720D01*
X181778574Y-94768593D01*
X181632918Y-94835742D01*
X181629009Y-94838305D01*
X181415143Y-94978521D01*
X181415138Y-94978525D01*
X181411230Y-94981087D01*
X181378753Y-95010074D01*
X181222539Y-95149500D01*
X181213460Y-95157603D01*
X181043954Y-95361412D01*
X180906434Y-95588038D01*
X180904625Y-95592352D01*
X180904624Y-95592354D01*
X180838461Y-95750135D01*
X180803922Y-95832500D01*
X180802771Y-95837032D01*
X180802770Y-95837035D01*
X180763079Y-95993318D01*
X180738670Y-96089430D01*
X180712112Y-96353183D01*
X180712336Y-96357850D01*
X180712336Y-96357855D01*
X180724830Y-96617963D01*
X180723231Y-96618040D01*
X180712815Y-96681283D01*
X180688390Y-96715705D01*
X179561289Y-97842806D01*
X179498977Y-97876832D01*
X179428162Y-97871767D01*
X179371326Y-97829220D01*
X179346486Y-97762282D01*
X179344362Y-97731123D01*
X179343201Y-97722649D01*
X179289419Y-97462944D01*
X179287120Y-97454709D01*
X179198588Y-97204705D01*
X179195191Y-97196854D01*
X179073550Y-96961178D01*
X179069122Y-96953866D01*
X178950031Y-96784417D01*
X178939509Y-96776037D01*
X178926121Y-96783089D01*
X176132910Y-99576300D01*
X176125618Y-99589654D01*
X176132673Y-99599627D01*
X176163679Y-99625551D01*
X176170598Y-99630579D01*
X176395272Y-99771515D01*
X176402807Y-99775556D01*
X176644520Y-99884694D01*
X176652551Y-99887680D01*
X176906832Y-99963002D01*
X176915184Y-99964869D01*
X177123646Y-99996768D01*
X177187957Y-100026844D01*
X177225799Y-100086915D01*
X177225157Y-100157908D01*
X177193682Y-100210413D01*
X175813247Y-101590848D01*
X175750935Y-101624874D01*
X175691542Y-101623460D01*
X175628087Y-101606457D01*
X175400000Y-101586502D01*
X175171913Y-101606457D01*
X175166600Y-101607881D01*
X175166598Y-101607881D01*
X174956067Y-101664293D01*
X174956065Y-101664294D01*
X174950757Y-101665716D01*
X174945776Y-101668039D01*
X174945775Y-101668039D01*
X174748238Y-101760151D01*
X174748233Y-101760154D01*
X174743251Y-101762477D01*
X174712772Y-101783819D01*
X174560211Y-101890643D01*
X174560208Y-101890645D01*
X174555700Y-101893802D01*
X174393802Y-102055700D01*
X174390645Y-102060208D01*
X174390643Y-102060211D01*
X174342935Y-102128345D01*
X174262477Y-102243251D01*
X174260154Y-102248233D01*
X174260151Y-102248238D01*
X174180969Y-102418047D01*
X174165716Y-102450757D01*
X174164294Y-102456065D01*
X174164293Y-102456067D01*
X174107883Y-102666591D01*
X174106457Y-102671913D01*
X174086502Y-102900000D01*
X171633498Y-102900000D01*
X171613543Y-102671913D01*
X171612117Y-102666591D01*
X171555707Y-102456067D01*
X171555706Y-102456065D01*
X171554284Y-102450757D01*
X171539031Y-102418047D01*
X171459849Y-102248238D01*
X171459846Y-102248233D01*
X171457523Y-102243251D01*
X171377065Y-102128345D01*
X171329357Y-102060211D01*
X171329355Y-102060208D01*
X171326198Y-102055700D01*
X171164300Y-101893802D01*
X171159792Y-101890645D01*
X171159789Y-101890643D01*
X171007229Y-101783819D01*
X170962901Y-101728362D01*
X170953500Y-101680606D01*
X170953500Y-97983204D01*
X175337665Y-97983204D01*
X175352932Y-98247969D01*
X175354005Y-98256470D01*
X175405065Y-98516722D01*
X175407276Y-98524974D01*
X175493184Y-98775894D01*
X175496499Y-98783779D01*
X175615664Y-99020713D01*
X175620020Y-99028079D01*
X175749347Y-99216250D01*
X175759601Y-99224594D01*
X175773342Y-99217448D01*
X176977978Y-98012812D01*
X176985592Y-97998868D01*
X176985461Y-97997035D01*
X176981210Y-97990420D01*
X175773814Y-96783024D01*
X175761804Y-96776466D01*
X175750064Y-96785434D01*
X175641935Y-96935911D01*
X175637418Y-96943196D01*
X175513325Y-97177567D01*
X175509839Y-97185395D01*
X175418700Y-97434446D01*
X175416311Y-97442670D01*
X175359812Y-97701795D01*
X175358563Y-97710250D01*
X175337754Y-97974653D01*
X175337665Y-97983204D01*
X170953500Y-97983204D01*
X170953500Y-96412500D01*
X176126584Y-96412500D01*
X176132980Y-96423770D01*
X177337188Y-97627978D01*
X177351132Y-97635592D01*
X177352965Y-97635461D01*
X177359580Y-97631210D01*
X178566604Y-96424186D01*
X178573795Y-96411017D01*
X178566473Y-96400780D01*
X178519233Y-96362115D01*
X178512261Y-96357160D01*
X178286122Y-96218582D01*
X178278552Y-96214624D01*
X178035704Y-96108022D01*
X178027644Y-96105120D01*
X177772592Y-96032467D01*
X177764214Y-96030685D01*
X177501656Y-95993318D01*
X177493111Y-95992691D01*
X177227908Y-95991302D01*
X177219374Y-95991839D01*
X176956433Y-96026456D01*
X176948035Y-96028149D01*
X176692238Y-96098127D01*
X176684143Y-96100946D01*
X176440199Y-96204997D01*
X176432577Y-96208881D01*
X176205013Y-96345075D01*
X176197981Y-96349962D01*
X176135053Y-96400377D01*
X176126584Y-96412500D01*
X170953500Y-96412500D01*
X170953500Y-90819394D01*
X170973502Y-90751273D01*
X171007229Y-90716181D01*
X171159789Y-90609357D01*
X171159792Y-90609355D01*
X171164300Y-90606198D01*
X171326198Y-90444300D01*
X171457523Y-90256749D01*
X171459846Y-90251767D01*
X171459849Y-90251762D01*
X171551961Y-90054225D01*
X171551961Y-90054224D01*
X171554284Y-90049243D01*
X171556180Y-90042169D01*
X171612119Y-89833402D01*
X171612119Y-89833400D01*
X171613543Y-89828087D01*
X171633498Y-89600000D01*
X174086502Y-89600000D01*
X174106457Y-89828087D01*
X174107881Y-89833400D01*
X174107881Y-89833402D01*
X174163821Y-90042169D01*
X174165716Y-90049243D01*
X174168039Y-90054224D01*
X174168039Y-90054225D01*
X174260151Y-90251762D01*
X174260154Y-90251767D01*
X174262477Y-90256749D01*
X174393802Y-90444300D01*
X174555700Y-90606198D01*
X174560208Y-90609355D01*
X174560211Y-90609357D01*
X174597492Y-90635461D01*
X174743251Y-90737523D01*
X174748233Y-90739846D01*
X174748238Y-90739849D01*
X174918825Y-90819394D01*
X174950757Y-90834284D01*
X174956065Y-90835706D01*
X174956067Y-90835707D01*
X175166598Y-90892119D01*
X175166600Y-90892119D01*
X175171913Y-90893543D01*
X175400000Y-90913498D01*
X175628087Y-90893543D01*
X175633400Y-90892119D01*
X175633402Y-90892119D01*
X175843933Y-90835707D01*
X175843935Y-90835706D01*
X175849243Y-90834284D01*
X175881175Y-90819394D01*
X176051762Y-90739849D01*
X176051767Y-90739846D01*
X176056749Y-90737523D01*
X176202508Y-90635461D01*
X176239789Y-90609357D01*
X176239792Y-90609355D01*
X176244300Y-90606198D01*
X176406198Y-90444300D01*
X176537523Y-90256749D01*
X176539846Y-90251767D01*
X176539849Y-90251762D01*
X176631961Y-90054225D01*
X176631961Y-90054224D01*
X176634284Y-90049243D01*
X176636180Y-90042169D01*
X176692119Y-89833402D01*
X176692119Y-89833400D01*
X176693543Y-89828087D01*
X176713498Y-89600000D01*
X176693543Y-89371913D01*
X176692119Y-89366598D01*
X176692118Y-89366591D01*
X176676541Y-89308459D01*
X176678230Y-89237483D01*
X176709152Y-89186752D01*
X179806251Y-86089654D01*
X186425618Y-86089654D01*
X186432673Y-86099627D01*
X186463679Y-86125551D01*
X186470598Y-86130579D01*
X186695272Y-86271515D01*
X186702807Y-86275556D01*
X186944520Y-86384694D01*
X186952551Y-86387680D01*
X187206832Y-86463002D01*
X187215184Y-86464869D01*
X187477340Y-86504984D01*
X187485874Y-86505700D01*
X187751045Y-86509867D01*
X187759596Y-86509418D01*
X188022883Y-86477557D01*
X188031284Y-86475955D01*
X188287824Y-86408653D01*
X188295926Y-86405926D01*
X188540949Y-86304434D01*
X188548617Y-86300628D01*
X188777598Y-86166822D01*
X188784679Y-86162009D01*
X188864655Y-86099301D01*
X188873125Y-86087442D01*
X188866608Y-86075818D01*
X187662812Y-84872022D01*
X187648868Y-84864408D01*
X187647035Y-84864539D01*
X187640420Y-84868790D01*
X186432910Y-86076300D01*
X186425618Y-86089654D01*
X179806251Y-86089654D01*
X181438734Y-84457171D01*
X181501046Y-84423145D01*
X181571861Y-84428210D01*
X181586484Y-84434752D01*
X181786837Y-84540163D01*
X181791260Y-84541708D01*
X181791261Y-84541708D01*
X181943890Y-84595008D01*
X182037102Y-84627559D01*
X182041695Y-84628431D01*
X182292947Y-84676133D01*
X182292950Y-84676133D01*
X182297536Y-84677004D01*
X182423411Y-84681950D01*
X182557750Y-84687228D01*
X182557755Y-84687228D01*
X182562418Y-84687411D01*
X182665397Y-84676133D01*
X182821275Y-84659062D01*
X182821280Y-84659061D01*
X182825928Y-84658552D01*
X182949506Y-84626017D01*
X183077756Y-84592252D01*
X183077759Y-84592251D01*
X183082279Y-84591061D01*
X183086576Y-84589215D01*
X183321544Y-84488265D01*
X183321546Y-84488264D01*
X183325838Y-84486420D01*
X183331035Y-84483204D01*
X185637665Y-84483204D01*
X185652932Y-84747969D01*
X185654005Y-84756470D01*
X185705065Y-85016722D01*
X185707276Y-85024974D01*
X185793184Y-85275894D01*
X185796499Y-85283779D01*
X185915664Y-85520713D01*
X185920020Y-85528079D01*
X186049347Y-85716250D01*
X186059601Y-85724594D01*
X186073342Y-85717448D01*
X187277978Y-84512812D01*
X187285592Y-84498868D01*
X187285461Y-84497035D01*
X187281210Y-84490420D01*
X186073814Y-83283024D01*
X186061804Y-83276466D01*
X186050064Y-83285434D01*
X185941935Y-83435911D01*
X185937418Y-83443196D01*
X185813325Y-83677567D01*
X185809839Y-83685395D01*
X185718700Y-83934446D01*
X185716311Y-83942670D01*
X185659812Y-84201795D01*
X185658563Y-84210250D01*
X185637754Y-84474653D01*
X185637665Y-84483204D01*
X183331035Y-84483204D01*
X183488400Y-84385824D01*
X183547282Y-84349387D01*
X183547286Y-84349384D01*
X183551255Y-84346928D01*
X183753577Y-84175649D01*
X183850966Y-84064598D01*
X183925278Y-83979862D01*
X183925281Y-83979857D01*
X183928360Y-83976347D01*
X184071765Y-83753399D01*
X184180641Y-83511703D01*
X184216788Y-83383536D01*
X184251326Y-83261074D01*
X184251327Y-83261071D01*
X184252596Y-83256570D01*
X184274152Y-83087127D01*
X184285652Y-82996733D01*
X184285652Y-82996729D01*
X184286050Y-82993603D01*
X184286667Y-82970063D01*
X184287868Y-82924186D01*
X184288174Y-82912500D01*
X186426584Y-82912500D01*
X186432980Y-82923770D01*
X187637188Y-84127978D01*
X187651132Y-84135592D01*
X187652965Y-84135461D01*
X187659580Y-84131210D01*
X188866604Y-82924186D01*
X188873795Y-82911017D01*
X188866473Y-82900780D01*
X188819233Y-82862115D01*
X188812261Y-82857160D01*
X188586122Y-82718582D01*
X188578552Y-82714624D01*
X188335704Y-82608022D01*
X188327644Y-82605120D01*
X188072592Y-82532467D01*
X188064214Y-82530685D01*
X187801656Y-82493318D01*
X187793111Y-82492691D01*
X187527908Y-82491302D01*
X187519374Y-82491839D01*
X187256433Y-82526456D01*
X187248035Y-82528149D01*
X186992238Y-82598127D01*
X186984143Y-82600946D01*
X186740199Y-82704997D01*
X186732577Y-82708881D01*
X186505013Y-82845075D01*
X186497981Y-82849962D01*
X186435053Y-82900377D01*
X186426584Y-82912500D01*
X184288174Y-82912500D01*
X184288501Y-82900000D01*
X184285369Y-82857855D01*
X184269202Y-82640295D01*
X184269201Y-82640291D01*
X184268856Y-82635643D01*
X184210352Y-82377093D01*
X184208659Y-82372739D01*
X184115968Y-82134383D01*
X184115967Y-82134380D01*
X184114275Y-82130030D01*
X183982735Y-81899883D01*
X183818621Y-81691706D01*
X183625540Y-81510074D01*
X183439965Y-81381335D01*
X183411575Y-81361640D01*
X183411572Y-81361638D01*
X183407733Y-81358975D01*
X183403543Y-81356909D01*
X183403540Y-81356907D01*
X183174172Y-81243796D01*
X183174169Y-81243795D01*
X183169984Y-81241731D01*
X183158932Y-81238193D01*
X182921962Y-81162338D01*
X182921964Y-81162338D01*
X182917517Y-81160915D01*
X182773876Y-81137522D01*
X182660490Y-81119056D01*
X182660489Y-81119056D01*
X182655878Y-81118305D01*
X182519069Y-81116514D01*
X182395492Y-81114896D01*
X182395489Y-81114896D01*
X182390815Y-81114835D01*
X182128150Y-81150582D01*
X182123660Y-81151891D01*
X182123654Y-81151892D01*
X182015430Y-81183437D01*
X181873654Y-81224761D01*
X181869407Y-81226719D01*
X181869404Y-81226720D01*
X181839930Y-81240308D01*
X181632918Y-81335742D01*
X181629009Y-81338305D01*
X181415143Y-81478521D01*
X181415138Y-81478525D01*
X181411230Y-81481087D01*
X181213460Y-81657603D01*
X181043954Y-81861412D01*
X180906434Y-82088038D01*
X180904625Y-82092352D01*
X180904624Y-82092354D01*
X180831561Y-82266590D01*
X180803922Y-82332500D01*
X180802771Y-82337032D01*
X180802770Y-82337035D01*
X180753589Y-82530685D01*
X180738670Y-82589430D01*
X180712112Y-82853183D01*
X180712336Y-82857850D01*
X180712336Y-82857855D01*
X180717726Y-82970063D01*
X180724830Y-83117963D01*
X180731091Y-83149439D01*
X180755044Y-83269860D01*
X180748716Y-83340574D01*
X180720560Y-83383536D01*
X179574053Y-84530043D01*
X179511741Y-84564069D01*
X179440926Y-84559004D01*
X179384090Y-84516457D01*
X179359250Y-84449518D01*
X179344362Y-84231123D01*
X179343201Y-84222649D01*
X179289419Y-83962944D01*
X179287120Y-83954709D01*
X179198588Y-83704705D01*
X179195191Y-83696854D01*
X179073550Y-83461178D01*
X179069122Y-83453866D01*
X178950031Y-83284417D01*
X178939509Y-83276037D01*
X178926121Y-83283089D01*
X176132910Y-86076300D01*
X176125618Y-86089654D01*
X176132673Y-86099627D01*
X176163679Y-86125551D01*
X176170598Y-86130579D01*
X176395272Y-86271515D01*
X176402807Y-86275556D01*
X176644520Y-86384694D01*
X176652551Y-86387680D01*
X176906832Y-86463002D01*
X176915184Y-86464869D01*
X177177340Y-86504984D01*
X177185874Y-86505700D01*
X177294494Y-86507407D01*
X177362293Y-86528476D01*
X177407937Y-86582856D01*
X177416935Y-86653280D01*
X177381610Y-86722486D01*
X175813248Y-88290848D01*
X175750936Y-88324874D01*
X175691541Y-88323459D01*
X175633409Y-88307882D01*
X175633398Y-88307880D01*
X175628087Y-88306457D01*
X175400000Y-88286502D01*
X175171913Y-88306457D01*
X175166600Y-88307881D01*
X175166598Y-88307881D01*
X174956067Y-88364293D01*
X174956065Y-88364294D01*
X174950757Y-88365716D01*
X174945776Y-88368039D01*
X174945775Y-88368039D01*
X174748238Y-88460151D01*
X174748233Y-88460154D01*
X174743251Y-88462477D01*
X174706702Y-88488069D01*
X174560211Y-88590643D01*
X174560208Y-88590645D01*
X174555700Y-88593802D01*
X174393802Y-88755700D01*
X174390645Y-88760208D01*
X174390643Y-88760211D01*
X174347729Y-88821499D01*
X174262477Y-88943251D01*
X174260154Y-88948233D01*
X174260151Y-88948238D01*
X174174887Y-89131089D01*
X174165716Y-89150757D01*
X174164294Y-89156065D01*
X174164293Y-89156067D01*
X174113648Y-89345075D01*
X174106457Y-89371913D01*
X174086502Y-89600000D01*
X171633498Y-89600000D01*
X171613543Y-89371913D01*
X171606352Y-89345075D01*
X171555707Y-89156067D01*
X171555706Y-89156065D01*
X171554284Y-89150757D01*
X171545113Y-89131089D01*
X171459849Y-88948238D01*
X171459846Y-88948233D01*
X171457523Y-88943251D01*
X171372271Y-88821499D01*
X171329357Y-88760211D01*
X171329355Y-88760208D01*
X171326198Y-88755700D01*
X171164300Y-88593802D01*
X171159792Y-88590645D01*
X171159789Y-88590643D01*
X171013298Y-88488069D01*
X170976749Y-88462477D01*
X170971767Y-88460154D01*
X170971762Y-88460151D01*
X170774225Y-88368039D01*
X170774224Y-88368039D01*
X170769243Y-88365716D01*
X170763935Y-88364294D01*
X170763933Y-88364293D01*
X170553402Y-88307881D01*
X170553400Y-88307881D01*
X170548087Y-88306457D01*
X170320000Y-88286502D01*
X170091913Y-88306457D01*
X170086602Y-88307880D01*
X170086591Y-88307882D01*
X170028459Y-88323459D01*
X169957483Y-88321770D01*
X169906752Y-88290848D01*
X166099109Y-84483204D01*
X175337665Y-84483204D01*
X175352932Y-84747969D01*
X175354005Y-84756470D01*
X175405065Y-85016722D01*
X175407276Y-85024974D01*
X175493184Y-85275894D01*
X175496499Y-85283779D01*
X175615664Y-85520713D01*
X175620020Y-85528079D01*
X175749347Y-85716250D01*
X175759601Y-85724594D01*
X175773342Y-85717448D01*
X176977978Y-84512812D01*
X176985592Y-84498868D01*
X176985461Y-84497035D01*
X176981210Y-84490420D01*
X175773814Y-83283024D01*
X175761804Y-83276466D01*
X175750064Y-83285434D01*
X175641935Y-83435911D01*
X175637418Y-83443196D01*
X175513325Y-83677567D01*
X175509839Y-83685395D01*
X175418700Y-83934446D01*
X175416311Y-83942670D01*
X175359812Y-84201795D01*
X175358563Y-84210250D01*
X175337754Y-84474653D01*
X175337665Y-84483204D01*
X166099109Y-84483204D01*
X164765344Y-83149439D01*
X164731318Y-83087127D01*
X164736383Y-83016312D01*
X164778930Y-82959476D01*
X164790292Y-82951895D01*
X164802742Y-82944532D01*
X164817063Y-82930211D01*
X164832097Y-82917370D01*
X164838800Y-82912500D01*
X176126584Y-82912500D01*
X176132980Y-82923770D01*
X177337188Y-84127978D01*
X177351132Y-84135592D01*
X177352965Y-84135461D01*
X177359580Y-84131210D01*
X178566604Y-82924186D01*
X178573795Y-82911017D01*
X178566473Y-82900780D01*
X178519233Y-82862115D01*
X178512261Y-82857160D01*
X178286122Y-82718582D01*
X178278552Y-82714624D01*
X178035704Y-82608022D01*
X178027644Y-82605120D01*
X177772592Y-82532467D01*
X177764214Y-82530685D01*
X177501656Y-82493318D01*
X177493111Y-82492691D01*
X177227908Y-82491302D01*
X177219374Y-82491839D01*
X176956433Y-82526456D01*
X176948035Y-82528149D01*
X176692238Y-82598127D01*
X176684143Y-82600946D01*
X176440199Y-82704997D01*
X176432577Y-82708881D01*
X176205013Y-82845075D01*
X176197981Y-82849962D01*
X176135053Y-82900377D01*
X176126584Y-82912500D01*
X164838800Y-82912500D01*
X164842074Y-82910121D01*
X164848487Y-82905462D01*
X164876678Y-82871385D01*
X164884668Y-82862606D01*
X170712247Y-77035027D01*
X170720537Y-77027483D01*
X170727018Y-77023370D01*
X170773659Y-76973702D01*
X170776413Y-76970861D01*
X170796135Y-76951139D01*
X170798612Y-76947946D01*
X170806317Y-76938925D01*
X170831159Y-76912470D01*
X170836586Y-76906691D01*
X170840407Y-76899741D01*
X170846346Y-76888938D01*
X170857202Y-76872411D01*
X170864757Y-76862672D01*
X170864758Y-76862670D01*
X170869614Y-76856410D01*
X170887174Y-76815830D01*
X170892391Y-76805182D01*
X170909875Y-76773379D01*
X170909876Y-76773377D01*
X170913695Y-76766430D01*
X170918733Y-76746807D01*
X170925137Y-76728104D01*
X170930033Y-76716790D01*
X170930033Y-76716789D01*
X170933181Y-76709515D01*
X170934420Y-76701692D01*
X170934423Y-76701682D01*
X170940099Y-76665846D01*
X170942505Y-76654226D01*
X170951528Y-76619081D01*
X170951528Y-76619080D01*
X170953500Y-76611400D01*
X170953500Y-76604116D01*
X170981765Y-76539303D01*
X171006119Y-76516958D01*
X171121030Y-76436496D01*
X171159789Y-76409357D01*
X171159792Y-76409355D01*
X171164300Y-76406198D01*
X171326198Y-76244300D01*
X171343881Y-76219047D01*
X171415685Y-76116500D01*
X171457523Y-76056749D01*
X171459846Y-76051767D01*
X171459849Y-76051762D01*
X171551961Y-75854225D01*
X171551961Y-75854224D01*
X171554284Y-75849243D01*
X171564972Y-75809357D01*
X171612119Y-75633402D01*
X171612119Y-75633400D01*
X171613543Y-75628087D01*
X171633498Y-75400000D01*
X174086502Y-75400000D01*
X174106457Y-75628087D01*
X174107881Y-75633400D01*
X174107881Y-75633402D01*
X174155029Y-75809357D01*
X174165716Y-75849243D01*
X174168039Y-75854224D01*
X174168039Y-75854225D01*
X174260151Y-76051762D01*
X174260154Y-76051767D01*
X174262477Y-76056749D01*
X174304315Y-76116500D01*
X174376120Y-76219047D01*
X174393802Y-76244300D01*
X174555700Y-76406198D01*
X174560208Y-76409355D01*
X174560211Y-76409357D01*
X174598970Y-76436496D01*
X174743251Y-76537523D01*
X174748233Y-76539846D01*
X174748238Y-76539849D01*
X174945775Y-76631961D01*
X174950757Y-76634284D01*
X174956065Y-76635706D01*
X174956067Y-76635707D01*
X175166598Y-76692119D01*
X175166600Y-76692119D01*
X175171913Y-76693543D01*
X175400000Y-76713498D01*
X175628087Y-76693543D01*
X175633400Y-76692119D01*
X175633402Y-76692119D01*
X175843933Y-76635707D01*
X175843935Y-76635706D01*
X175849243Y-76634284D01*
X175854225Y-76631961D01*
X176051762Y-76539849D01*
X176051767Y-76539846D01*
X176056749Y-76537523D01*
X176201030Y-76436496D01*
X176239789Y-76409357D01*
X176239792Y-76409355D01*
X176244300Y-76406198D01*
X176406198Y-76244300D01*
X176423881Y-76219047D01*
X176495685Y-76116500D01*
X176537523Y-76056749D01*
X176539846Y-76051767D01*
X176539849Y-76051762D01*
X176631961Y-75854225D01*
X176631961Y-75854224D01*
X176634284Y-75849243D01*
X176644972Y-75809357D01*
X176692119Y-75633402D01*
X176692119Y-75633400D01*
X176693543Y-75628087D01*
X176713498Y-75400000D01*
X176693543Y-75171913D01*
X176692119Y-75166598D01*
X176692118Y-75166591D01*
X176676541Y-75108459D01*
X176678230Y-75037483D01*
X176709152Y-74986752D01*
X179606250Y-72089654D01*
X186425618Y-72089654D01*
X186432673Y-72099627D01*
X186463679Y-72125551D01*
X186470598Y-72130579D01*
X186695272Y-72271515D01*
X186702807Y-72275556D01*
X186944520Y-72384694D01*
X186952551Y-72387680D01*
X187206832Y-72463002D01*
X187215184Y-72464869D01*
X187477340Y-72504984D01*
X187485874Y-72505700D01*
X187751045Y-72509867D01*
X187759596Y-72509418D01*
X188022883Y-72477557D01*
X188031284Y-72475955D01*
X188287824Y-72408653D01*
X188295926Y-72405926D01*
X188540949Y-72304434D01*
X188548617Y-72300628D01*
X188777598Y-72166822D01*
X188784679Y-72162009D01*
X188864655Y-72099301D01*
X188873125Y-72087442D01*
X188866608Y-72075818D01*
X187662812Y-70872022D01*
X187648868Y-70864408D01*
X187647035Y-70864539D01*
X187640420Y-70868790D01*
X186432910Y-72076300D01*
X186425618Y-72089654D01*
X179606250Y-72089654D01*
X181318258Y-70377646D01*
X181380570Y-70343620D01*
X181451385Y-70348685D01*
X181481854Y-70365127D01*
X181552239Y-70416735D01*
X181556382Y-70418915D01*
X181556384Y-70418916D01*
X181782687Y-70537980D01*
X181782692Y-70537982D01*
X181786837Y-70540163D01*
X181791260Y-70541708D01*
X181791261Y-70541708D01*
X181935998Y-70592252D01*
X182037102Y-70627559D01*
X182041695Y-70628431D01*
X182292947Y-70676133D01*
X182292950Y-70676133D01*
X182297536Y-70677004D01*
X182423411Y-70681950D01*
X182557750Y-70687228D01*
X182557755Y-70687228D01*
X182562418Y-70687411D01*
X182665397Y-70676133D01*
X182821275Y-70659062D01*
X182821280Y-70659061D01*
X182825928Y-70658552D01*
X182949506Y-70626017D01*
X183077756Y-70592252D01*
X183077759Y-70592251D01*
X183082279Y-70591061D01*
X183086576Y-70589215D01*
X183321544Y-70488265D01*
X183321546Y-70488264D01*
X183325838Y-70486420D01*
X183331035Y-70483204D01*
X185637665Y-70483204D01*
X185652932Y-70747969D01*
X185654005Y-70756470D01*
X185705065Y-71016722D01*
X185707276Y-71024974D01*
X185793184Y-71275894D01*
X185796499Y-71283779D01*
X185915664Y-71520713D01*
X185920020Y-71528079D01*
X186049347Y-71716250D01*
X186059601Y-71724594D01*
X186073342Y-71717448D01*
X187277978Y-70512812D01*
X187285592Y-70498868D01*
X187285461Y-70497035D01*
X187281210Y-70490420D01*
X186073814Y-69283024D01*
X186061804Y-69276466D01*
X186050064Y-69285434D01*
X185941935Y-69435911D01*
X185937418Y-69443196D01*
X185813325Y-69677567D01*
X185809839Y-69685395D01*
X185718700Y-69934446D01*
X185716311Y-69942670D01*
X185659812Y-70201795D01*
X185658563Y-70210250D01*
X185637754Y-70474653D01*
X185637665Y-70483204D01*
X183331035Y-70483204D01*
X183425458Y-70424773D01*
X183547282Y-70349387D01*
X183547286Y-70349384D01*
X183551255Y-70346928D01*
X183753577Y-70175649D01*
X183795383Y-70127978D01*
X183925278Y-69979862D01*
X183925281Y-69979857D01*
X183928360Y-69976347D01*
X184071765Y-69753399D01*
X184180641Y-69511703D01*
X184202017Y-69435911D01*
X184251326Y-69261074D01*
X184251327Y-69261071D01*
X184252596Y-69256570D01*
X184262174Y-69181283D01*
X184285652Y-68996733D01*
X184285652Y-68996729D01*
X184286050Y-68993603D01*
X184288174Y-68912500D01*
X186426584Y-68912500D01*
X186432980Y-68923770D01*
X187637188Y-70127978D01*
X187651132Y-70135592D01*
X187652965Y-70135461D01*
X187659580Y-70131210D01*
X188866604Y-68924186D01*
X188873795Y-68911017D01*
X188866473Y-68900780D01*
X188819233Y-68862115D01*
X188812261Y-68857160D01*
X188586122Y-68718582D01*
X188578552Y-68714624D01*
X188335704Y-68608022D01*
X188327644Y-68605120D01*
X188072592Y-68532467D01*
X188064214Y-68530685D01*
X187801656Y-68493318D01*
X187793111Y-68492691D01*
X187527908Y-68491302D01*
X187519374Y-68491839D01*
X187256433Y-68526456D01*
X187248035Y-68528149D01*
X186992238Y-68598127D01*
X186984143Y-68600946D01*
X186740199Y-68704997D01*
X186732577Y-68708881D01*
X186505013Y-68845075D01*
X186497981Y-68849962D01*
X186435053Y-68900377D01*
X186426584Y-68912500D01*
X184288174Y-68912500D01*
X184288501Y-68900000D01*
X184285369Y-68857855D01*
X184269202Y-68640295D01*
X184269201Y-68640291D01*
X184268856Y-68635643D01*
X184210352Y-68377093D01*
X184208659Y-68372739D01*
X184115968Y-68134383D01*
X184115967Y-68134380D01*
X184114275Y-68130030D01*
X184111011Y-68124318D01*
X184052092Y-68021233D01*
X183982735Y-67899883D01*
X183818621Y-67691706D01*
X183625540Y-67510074D01*
X183407733Y-67358975D01*
X183403543Y-67356909D01*
X183403540Y-67356907D01*
X183174172Y-67243796D01*
X183174169Y-67243795D01*
X183169984Y-67241731D01*
X182917517Y-67160915D01*
X182773876Y-67137522D01*
X182660490Y-67119056D01*
X182660489Y-67119056D01*
X182655878Y-67118305D01*
X182523347Y-67116570D01*
X182395492Y-67114896D01*
X182395489Y-67114896D01*
X182390815Y-67114835D01*
X182128150Y-67150582D01*
X182123660Y-67151891D01*
X182123654Y-67151892D01*
X182015430Y-67183437D01*
X181873654Y-67224761D01*
X181869407Y-67226719D01*
X181869404Y-67226720D01*
X181839930Y-67240308D01*
X181632918Y-67335742D01*
X181629009Y-67338305D01*
X181415143Y-67478521D01*
X181415138Y-67478525D01*
X181411230Y-67481087D01*
X181213460Y-67657603D01*
X181043954Y-67861412D01*
X180906434Y-68088038D01*
X180904625Y-68092352D01*
X180904624Y-68092354D01*
X180831737Y-68266170D01*
X180803922Y-68332500D01*
X180802771Y-68337032D01*
X180802770Y-68337035D01*
X180741757Y-68577275D01*
X180738670Y-68589430D01*
X180712112Y-68853183D01*
X180712336Y-68857850D01*
X180712336Y-68857855D01*
X180724830Y-69117963D01*
X180723231Y-69118040D01*
X180712815Y-69181283D01*
X180688390Y-69215705D01*
X179561289Y-70342806D01*
X179498977Y-70376832D01*
X179428162Y-70371767D01*
X179371326Y-70329220D01*
X179346486Y-70262282D01*
X179344362Y-70231123D01*
X179343201Y-70222649D01*
X179289419Y-69962944D01*
X179287120Y-69954709D01*
X179198588Y-69704705D01*
X179195191Y-69696854D01*
X179073550Y-69461178D01*
X179069122Y-69453866D01*
X178950031Y-69284417D01*
X178939509Y-69276037D01*
X178926121Y-69283089D01*
X176132910Y-72076300D01*
X176125618Y-72089654D01*
X176132673Y-72099627D01*
X176163679Y-72125551D01*
X176170598Y-72130579D01*
X176395272Y-72271515D01*
X176402807Y-72275556D01*
X176644520Y-72384694D01*
X176652551Y-72387680D01*
X176906832Y-72463002D01*
X176915184Y-72464869D01*
X177123646Y-72496768D01*
X177187957Y-72526844D01*
X177225799Y-72586915D01*
X177225157Y-72657908D01*
X177193682Y-72710413D01*
X175813247Y-74090848D01*
X175750935Y-74124874D01*
X175691542Y-74123460D01*
X175628087Y-74106457D01*
X175400000Y-74086502D01*
X175171913Y-74106457D01*
X175166600Y-74107881D01*
X175166598Y-74107881D01*
X174956067Y-74164293D01*
X174956065Y-74164294D01*
X174950757Y-74165716D01*
X174945776Y-74168039D01*
X174945775Y-74168039D01*
X174748238Y-74260151D01*
X174748233Y-74260154D01*
X174743251Y-74262477D01*
X174648959Y-74328501D01*
X174560211Y-74390643D01*
X174560208Y-74390645D01*
X174555700Y-74393802D01*
X174393802Y-74555700D01*
X174390645Y-74560208D01*
X174390643Y-74560211D01*
X174378612Y-74577393D01*
X174262477Y-74743251D01*
X174260154Y-74748233D01*
X174260151Y-74748238D01*
X174191937Y-74894525D01*
X174165716Y-74950757D01*
X174164294Y-74956065D01*
X174164293Y-74956067D01*
X174107883Y-75166591D01*
X174106457Y-75171913D01*
X174086502Y-75400000D01*
X171633498Y-75400000D01*
X171613543Y-75171913D01*
X171612117Y-75166591D01*
X171555707Y-74956067D01*
X171555706Y-74956065D01*
X171554284Y-74950757D01*
X171528063Y-74894525D01*
X171459849Y-74748238D01*
X171459846Y-74748233D01*
X171457523Y-74743251D01*
X171341388Y-74577393D01*
X171329357Y-74560211D01*
X171329355Y-74560208D01*
X171326198Y-74555700D01*
X171164300Y-74393802D01*
X171159792Y-74390645D01*
X171159789Y-74390643D01*
X171007229Y-74283819D01*
X170962901Y-74228362D01*
X170953500Y-74180606D01*
X170953500Y-70483204D01*
X175337665Y-70483204D01*
X175352932Y-70747969D01*
X175354005Y-70756470D01*
X175405065Y-71016722D01*
X175407276Y-71024974D01*
X175493184Y-71275894D01*
X175496499Y-71283779D01*
X175615664Y-71520713D01*
X175620020Y-71528079D01*
X175749347Y-71716250D01*
X175759601Y-71724594D01*
X175773342Y-71717448D01*
X176977978Y-70512812D01*
X176985592Y-70498868D01*
X176985461Y-70497035D01*
X176981210Y-70490420D01*
X175773814Y-69283024D01*
X175761804Y-69276466D01*
X175750064Y-69285434D01*
X175641935Y-69435911D01*
X175637418Y-69443196D01*
X175513325Y-69677567D01*
X175509839Y-69685395D01*
X175418700Y-69934446D01*
X175416311Y-69942670D01*
X175359812Y-70201795D01*
X175358563Y-70210250D01*
X175337754Y-70474653D01*
X175337665Y-70483204D01*
X170953500Y-70483204D01*
X170953500Y-68912500D01*
X176126584Y-68912500D01*
X176132980Y-68923770D01*
X177337188Y-70127978D01*
X177351132Y-70135592D01*
X177352965Y-70135461D01*
X177359580Y-70131210D01*
X178566604Y-68924186D01*
X178573795Y-68911017D01*
X178566473Y-68900780D01*
X178519233Y-68862115D01*
X178512261Y-68857160D01*
X178286122Y-68718582D01*
X178278552Y-68714624D01*
X178035704Y-68608022D01*
X178027644Y-68605120D01*
X177772592Y-68532467D01*
X177764214Y-68530685D01*
X177501656Y-68493318D01*
X177493111Y-68492691D01*
X177227908Y-68491302D01*
X177219374Y-68491839D01*
X176956433Y-68526456D01*
X176948035Y-68528149D01*
X176692238Y-68598127D01*
X176684143Y-68600946D01*
X176440199Y-68704997D01*
X176432577Y-68708881D01*
X176205013Y-68845075D01*
X176197981Y-68849962D01*
X176135053Y-68900377D01*
X176126584Y-68912500D01*
X170953500Y-68912500D01*
X170953500Y-63119394D01*
X170973502Y-63051273D01*
X171007229Y-63016181D01*
X171159789Y-62909357D01*
X171159792Y-62909355D01*
X171164300Y-62906198D01*
X171326198Y-62744300D01*
X171346920Y-62714707D01*
X171454366Y-62561257D01*
X171457523Y-62556749D01*
X171459846Y-62551767D01*
X171459849Y-62551762D01*
X171551961Y-62354225D01*
X171551961Y-62354224D01*
X171554284Y-62349243D01*
X171567069Y-62301531D01*
X171612119Y-62133402D01*
X171612119Y-62133400D01*
X171613543Y-62128087D01*
X171633498Y-61900000D01*
X174086502Y-61900000D01*
X174106457Y-62128087D01*
X174107881Y-62133400D01*
X174107881Y-62133402D01*
X174152932Y-62301531D01*
X174165716Y-62349243D01*
X174168039Y-62354224D01*
X174168039Y-62354225D01*
X174260151Y-62551762D01*
X174260154Y-62551767D01*
X174262477Y-62556749D01*
X174265634Y-62561257D01*
X174373081Y-62714707D01*
X174393802Y-62744300D01*
X174555700Y-62906198D01*
X174560208Y-62909355D01*
X174560211Y-62909357D01*
X174638389Y-62964098D01*
X174743251Y-63037523D01*
X174748233Y-63039846D01*
X174748238Y-63039849D01*
X174918825Y-63119394D01*
X174950757Y-63134284D01*
X174956065Y-63135706D01*
X174956067Y-63135707D01*
X175166598Y-63192119D01*
X175166600Y-63192119D01*
X175171913Y-63193543D01*
X175400000Y-63213498D01*
X175628087Y-63193543D01*
X175633400Y-63192119D01*
X175633402Y-63192119D01*
X175843933Y-63135707D01*
X175843935Y-63135706D01*
X175849243Y-63134284D01*
X175881175Y-63119394D01*
X176051762Y-63039849D01*
X176051767Y-63039846D01*
X176056749Y-63037523D01*
X176161611Y-62964098D01*
X176239789Y-62909357D01*
X176239792Y-62909355D01*
X176244300Y-62906198D01*
X176406198Y-62744300D01*
X176426920Y-62714707D01*
X176534366Y-62561257D01*
X176537523Y-62556749D01*
X176539846Y-62551767D01*
X176539849Y-62551762D01*
X176631961Y-62354225D01*
X176631961Y-62354224D01*
X176634284Y-62349243D01*
X176647069Y-62301531D01*
X176692119Y-62133402D01*
X176692119Y-62133400D01*
X176693543Y-62128087D01*
X176713498Y-61900000D01*
X176693543Y-61671913D01*
X176692119Y-61666598D01*
X176692118Y-61666591D01*
X176676541Y-61608459D01*
X176678230Y-61537483D01*
X176709152Y-61486752D01*
X179606250Y-58589654D01*
X186425618Y-58589654D01*
X186432673Y-58599627D01*
X186463679Y-58625551D01*
X186470598Y-58630579D01*
X186695272Y-58771515D01*
X186702807Y-58775556D01*
X186944520Y-58884694D01*
X186952551Y-58887680D01*
X187206832Y-58963002D01*
X187215184Y-58964869D01*
X187477340Y-59004984D01*
X187485874Y-59005700D01*
X187751045Y-59009867D01*
X187759596Y-59009418D01*
X188022883Y-58977557D01*
X188031284Y-58975955D01*
X188287824Y-58908653D01*
X188295926Y-58905926D01*
X188540949Y-58804434D01*
X188548617Y-58800628D01*
X188777598Y-58666822D01*
X188784679Y-58662009D01*
X188864655Y-58599301D01*
X188873125Y-58587442D01*
X188866608Y-58575818D01*
X187662812Y-57372022D01*
X187648868Y-57364408D01*
X187647035Y-57364539D01*
X187640420Y-57368790D01*
X186432910Y-58576300D01*
X186425618Y-58589654D01*
X179606250Y-58589654D01*
X181318258Y-56877646D01*
X181380570Y-56843620D01*
X181451385Y-56848685D01*
X181481854Y-56865127D01*
X181552239Y-56916735D01*
X181556382Y-56918915D01*
X181556384Y-56918916D01*
X181782687Y-57037980D01*
X181782692Y-57037982D01*
X181786837Y-57040163D01*
X181791260Y-57041708D01*
X181791261Y-57041708D01*
X182011568Y-57118642D01*
X182037102Y-57127559D01*
X182041695Y-57128431D01*
X182292947Y-57176133D01*
X182292950Y-57176133D01*
X182297536Y-57177004D01*
X182423411Y-57181950D01*
X182557750Y-57187228D01*
X182557755Y-57187228D01*
X182562418Y-57187411D01*
X182665397Y-57176133D01*
X182821275Y-57159062D01*
X182821280Y-57159061D01*
X182825928Y-57158552D01*
X182949506Y-57126017D01*
X183077756Y-57092252D01*
X183077759Y-57092251D01*
X183082279Y-57091061D01*
X183089343Y-57088026D01*
X183321544Y-56988265D01*
X183321546Y-56988264D01*
X183325838Y-56986420D01*
X183331035Y-56983204D01*
X185637665Y-56983204D01*
X185652932Y-57247969D01*
X185654005Y-57256470D01*
X185705065Y-57516722D01*
X185707276Y-57524974D01*
X185793184Y-57775894D01*
X185796499Y-57783779D01*
X185915664Y-58020713D01*
X185920020Y-58028079D01*
X186049347Y-58216250D01*
X186059601Y-58224594D01*
X186073342Y-58217448D01*
X187277978Y-57012812D01*
X187285592Y-56998868D01*
X187285461Y-56997035D01*
X187281210Y-56990420D01*
X186073814Y-55783024D01*
X186061804Y-55776466D01*
X186050064Y-55785434D01*
X185941935Y-55935911D01*
X185937418Y-55943196D01*
X185813325Y-56177567D01*
X185809839Y-56185395D01*
X185718700Y-56434446D01*
X185716311Y-56442670D01*
X185659812Y-56701795D01*
X185658563Y-56710250D01*
X185637754Y-56974653D01*
X185637665Y-56983204D01*
X183331035Y-56983204D01*
X183425458Y-56924773D01*
X183547282Y-56849387D01*
X183547286Y-56849384D01*
X183551255Y-56846928D01*
X183753577Y-56675649D01*
X183782056Y-56643175D01*
X183925278Y-56479862D01*
X183925281Y-56479857D01*
X183928360Y-56476347D01*
X183935851Y-56464702D01*
X184069237Y-56257329D01*
X184071765Y-56253399D01*
X184180641Y-56011703D01*
X184186332Y-55991524D01*
X184251326Y-55761074D01*
X184251327Y-55761071D01*
X184252596Y-55756570D01*
X184262753Y-55676731D01*
X184285652Y-55496733D01*
X184285652Y-55496729D01*
X184286050Y-55493603D01*
X184286169Y-55489083D01*
X184287868Y-55424186D01*
X184288174Y-55412500D01*
X186426584Y-55412500D01*
X186432980Y-55423770D01*
X187637188Y-56627978D01*
X187651132Y-56635592D01*
X187652965Y-56635461D01*
X187659580Y-56631210D01*
X188866604Y-55424186D01*
X188873795Y-55411017D01*
X188866473Y-55400780D01*
X188819233Y-55362115D01*
X188812261Y-55357160D01*
X188586122Y-55218582D01*
X188578552Y-55214624D01*
X188335704Y-55108022D01*
X188327644Y-55105120D01*
X188072592Y-55032467D01*
X188064214Y-55030685D01*
X187801656Y-54993318D01*
X187793111Y-54992691D01*
X187527908Y-54991302D01*
X187519374Y-54991839D01*
X187256433Y-55026456D01*
X187248035Y-55028149D01*
X186992238Y-55098127D01*
X186984143Y-55100946D01*
X186740199Y-55204997D01*
X186732577Y-55208881D01*
X186505013Y-55345075D01*
X186497981Y-55349962D01*
X186435053Y-55400377D01*
X186426584Y-55412500D01*
X184288174Y-55412500D01*
X184288501Y-55400000D01*
X184285369Y-55357855D01*
X184269202Y-55140295D01*
X184269201Y-55140291D01*
X184268856Y-55135643D01*
X184210352Y-54877093D01*
X184202470Y-54856825D01*
X184115968Y-54634383D01*
X184115967Y-54634380D01*
X184114275Y-54630030D01*
X183982735Y-54399883D01*
X183818621Y-54191706D01*
X183625540Y-54010074D01*
X183407733Y-53858975D01*
X183403543Y-53856909D01*
X183403540Y-53856907D01*
X183174172Y-53743796D01*
X183174169Y-53743795D01*
X183169984Y-53741731D01*
X183156839Y-53737523D01*
X183043750Y-53701323D01*
X182917517Y-53660915D01*
X182736028Y-53631358D01*
X182660490Y-53619056D01*
X182660489Y-53619056D01*
X182655878Y-53618305D01*
X182523347Y-53616570D01*
X182395492Y-53614896D01*
X182395489Y-53614896D01*
X182390815Y-53614835D01*
X182128150Y-53650582D01*
X182123660Y-53651891D01*
X182123654Y-53651892D01*
X182015430Y-53683437D01*
X181873654Y-53724761D01*
X181869407Y-53726719D01*
X181869404Y-53726720D01*
X181811759Y-53753295D01*
X181632918Y-53835742D01*
X181629009Y-53838305D01*
X181415143Y-53978521D01*
X181415138Y-53978525D01*
X181411230Y-53981087D01*
X181213460Y-54157603D01*
X181043954Y-54361412D01*
X180906434Y-54588038D01*
X180904625Y-54592352D01*
X180904624Y-54592354D01*
X180829244Y-54772115D01*
X180803922Y-54832500D01*
X180802771Y-54837032D01*
X180802770Y-54837035D01*
X180745373Y-55063037D01*
X180738670Y-55089430D01*
X180738201Y-55094086D01*
X180738201Y-55094087D01*
X180735950Y-55116438D01*
X180712112Y-55353183D01*
X180712336Y-55357850D01*
X180712336Y-55357855D01*
X180724830Y-55617963D01*
X180723231Y-55618040D01*
X180712815Y-55681283D01*
X180688390Y-55715705D01*
X179561289Y-56842806D01*
X179498977Y-56876832D01*
X179428162Y-56871767D01*
X179371326Y-56829220D01*
X179346486Y-56762282D01*
X179344362Y-56731123D01*
X179343201Y-56722649D01*
X179289419Y-56462944D01*
X179287120Y-56454709D01*
X179198588Y-56204705D01*
X179195191Y-56196854D01*
X179073550Y-55961178D01*
X179069122Y-55953866D01*
X178950031Y-55784417D01*
X178939509Y-55776037D01*
X178926121Y-55783089D01*
X176132910Y-58576300D01*
X176125618Y-58589654D01*
X176132673Y-58599627D01*
X176163679Y-58625551D01*
X176170598Y-58630579D01*
X176395272Y-58771515D01*
X176402807Y-58775556D01*
X176644520Y-58884694D01*
X176652551Y-58887680D01*
X176906832Y-58963002D01*
X176915184Y-58964869D01*
X177123646Y-58996768D01*
X177187957Y-59026844D01*
X177225799Y-59086915D01*
X177225157Y-59157908D01*
X177193682Y-59210413D01*
X175813247Y-60590848D01*
X175750935Y-60624874D01*
X175691542Y-60623460D01*
X175628087Y-60606457D01*
X175400000Y-60586502D01*
X175171913Y-60606457D01*
X175166600Y-60607881D01*
X175166598Y-60607881D01*
X174956067Y-60664293D01*
X174956065Y-60664294D01*
X174950757Y-60665716D01*
X174945776Y-60668039D01*
X174945775Y-60668039D01*
X174748238Y-60760151D01*
X174748233Y-60760154D01*
X174743251Y-60762477D01*
X174638389Y-60835902D01*
X174560211Y-60890643D01*
X174560208Y-60890645D01*
X174555700Y-60893802D01*
X174393802Y-61055700D01*
X174390645Y-61060208D01*
X174390643Y-61060211D01*
X174378126Y-61078087D01*
X174262477Y-61243251D01*
X174260154Y-61248233D01*
X174260151Y-61248238D01*
X174215815Y-61343318D01*
X174165716Y-61450757D01*
X174164294Y-61456065D01*
X174164293Y-61456067D01*
X174107883Y-61666591D01*
X174106457Y-61671913D01*
X174086502Y-61900000D01*
X171633498Y-61900000D01*
X171613543Y-61671913D01*
X171612117Y-61666591D01*
X171555707Y-61456067D01*
X171555706Y-61456065D01*
X171554284Y-61450757D01*
X171504185Y-61343318D01*
X171459849Y-61248238D01*
X171459846Y-61248233D01*
X171457523Y-61243251D01*
X171341874Y-61078087D01*
X171329357Y-61060211D01*
X171329355Y-61060208D01*
X171326198Y-61055700D01*
X171164300Y-60893802D01*
X171159792Y-60890645D01*
X171159789Y-60890643D01*
X171081611Y-60835902D01*
X170976749Y-60762477D01*
X170971767Y-60760154D01*
X170971762Y-60760151D01*
X170774225Y-60668039D01*
X170774224Y-60668039D01*
X170769243Y-60665716D01*
X170763935Y-60664294D01*
X170763933Y-60664293D01*
X170553402Y-60607881D01*
X170553400Y-60607881D01*
X170548087Y-60606457D01*
X170320000Y-60586502D01*
X170091913Y-60606457D01*
X170086600Y-60607881D01*
X170086598Y-60607881D01*
X169876067Y-60664293D01*
X169876065Y-60664294D01*
X169870757Y-60665716D01*
X169865776Y-60668039D01*
X169865775Y-60668039D01*
X169668238Y-60760151D01*
X169668233Y-60760154D01*
X169663251Y-60762477D01*
X169558389Y-60835902D01*
X169480211Y-60890643D01*
X169480208Y-60890645D01*
X169475700Y-60893802D01*
X169313802Y-61055700D01*
X169310645Y-61060208D01*
X169310643Y-61060211D01*
X169298126Y-61078087D01*
X169182477Y-61243251D01*
X169180154Y-61248233D01*
X169180151Y-61248238D01*
X169135815Y-61343318D01*
X169085716Y-61450757D01*
X169084294Y-61456065D01*
X169084293Y-61456067D01*
X169027883Y-61666591D01*
X169026457Y-61671913D01*
X169006502Y-61900000D01*
X169026457Y-62128087D01*
X169027881Y-62133400D01*
X169027881Y-62133402D01*
X169072932Y-62301531D01*
X169085716Y-62349243D01*
X169088039Y-62354224D01*
X169088039Y-62354225D01*
X169180151Y-62551762D01*
X169180154Y-62551767D01*
X169182477Y-62556749D01*
X169185634Y-62561257D01*
X169293081Y-62714707D01*
X169313802Y-62744300D01*
X169475700Y-62906198D01*
X169480208Y-62909355D01*
X169480211Y-62909357D01*
X169632771Y-63016181D01*
X169677099Y-63071638D01*
X169686500Y-63119394D01*
X169686500Y-74180606D01*
X169666498Y-74248727D01*
X169632771Y-74283819D01*
X169480211Y-74390643D01*
X169480208Y-74390645D01*
X169475700Y-74393802D01*
X169313802Y-74555700D01*
X169310645Y-74560208D01*
X169310643Y-74560211D01*
X169298612Y-74577393D01*
X169182477Y-74743251D01*
X169180154Y-74748233D01*
X169180151Y-74748238D01*
X169111937Y-74894525D01*
X169085716Y-74950757D01*
X169084294Y-74956065D01*
X169084293Y-74956067D01*
X169027883Y-75166591D01*
X169026457Y-75171913D01*
X169006502Y-75400000D01*
X169026457Y-75628087D01*
X169027881Y-75633400D01*
X169027881Y-75633402D01*
X169075029Y-75809357D01*
X169085716Y-75849243D01*
X169088039Y-75854224D01*
X169088039Y-75854225D01*
X169180151Y-76051762D01*
X169180154Y-76051767D01*
X169182477Y-76056749D01*
X169224315Y-76116500D01*
X169296120Y-76219047D01*
X169313802Y-76244300D01*
X169423389Y-76353887D01*
X169457415Y-76416199D01*
X169452350Y-76487014D01*
X169423389Y-76532077D01*
X169127909Y-76827557D01*
X169065597Y-76861583D01*
X168994782Y-76856518D01*
X168937946Y-76813971D01*
X168914064Y-76749941D01*
X168913504Y-76750000D01*
X168913276Y-76747828D01*
X168913276Y-76747827D01*
X168903438Y-76654226D01*
X168894232Y-76566635D01*
X168894232Y-76566633D01*
X168893542Y-76560072D01*
X168834527Y-76378444D01*
X168739040Y-76213056D01*
X168721471Y-76193543D01*
X168615675Y-76076045D01*
X168615674Y-76076044D01*
X168611253Y-76071134D01*
X168456752Y-75958882D01*
X168450724Y-75956198D01*
X168450722Y-75956197D01*
X168288319Y-75883891D01*
X168288318Y-75883891D01*
X168282288Y-75881206D01*
X168188887Y-75861353D01*
X168101944Y-75842872D01*
X168101939Y-75842872D01*
X168095487Y-75841500D01*
X167904513Y-75841500D01*
X167898061Y-75842872D01*
X167898056Y-75842872D01*
X167811113Y-75861353D01*
X167717712Y-75881206D01*
X167711682Y-75883891D01*
X167711681Y-75883891D01*
X167549278Y-75956197D01*
X167549276Y-75956198D01*
X167543248Y-75958882D01*
X167537907Y-75962762D01*
X167537906Y-75962763D01*
X167479453Y-76005232D01*
X167412585Y-76029090D01*
X167343434Y-76013010D01*
X167293954Y-75962096D01*
X167279854Y-75892514D01*
X167305612Y-75826355D01*
X167316297Y-75814201D01*
X167386198Y-75744300D01*
X167517523Y-75556749D01*
X167519846Y-75551767D01*
X167519849Y-75551762D01*
X167611961Y-75354225D01*
X167611961Y-75354224D01*
X167614284Y-75349243D01*
X167640626Y-75250936D01*
X167672119Y-75133402D01*
X167672119Y-75133400D01*
X167673543Y-75128087D01*
X167693498Y-74900000D01*
X167673543Y-74671913D01*
X167642404Y-74555700D01*
X167615707Y-74456067D01*
X167615706Y-74456065D01*
X167614284Y-74450757D01*
X167567654Y-74350757D01*
X167519849Y-74248238D01*
X167519846Y-74248233D01*
X167517523Y-74243251D01*
X167407766Y-74086502D01*
X167389357Y-74060211D01*
X167389355Y-74060208D01*
X167386198Y-74055700D01*
X167224300Y-73893802D01*
X167219792Y-73890645D01*
X167219789Y-73890643D01*
X167087051Y-73797699D01*
X167036749Y-73762477D01*
X167031767Y-73760154D01*
X167031762Y-73760151D01*
X166834225Y-73668039D01*
X166834224Y-73668039D01*
X166829243Y-73665716D01*
X166823935Y-73664294D01*
X166823933Y-73664293D01*
X166613402Y-73607881D01*
X166613400Y-73607881D01*
X166608087Y-73606457D01*
X166380000Y-73586502D01*
X166151913Y-73606457D01*
X166146600Y-73607881D01*
X166146598Y-73607881D01*
X165936067Y-73664293D01*
X165936065Y-73664294D01*
X165930757Y-73665716D01*
X165925776Y-73668039D01*
X165925775Y-73668039D01*
X165728238Y-73760151D01*
X165728233Y-73760154D01*
X165723251Y-73762477D01*
X165672949Y-73797699D01*
X165540211Y-73890643D01*
X165540208Y-73890645D01*
X165535700Y-73893802D01*
X165373802Y-74055700D01*
X165370645Y-74060208D01*
X165370643Y-74060211D01*
X165352234Y-74086502D01*
X165242477Y-74243251D01*
X165240154Y-74248233D01*
X165240151Y-74248238D01*
X165192346Y-74350757D01*
X165145716Y-74450757D01*
X165144294Y-74456065D01*
X165144293Y-74456067D01*
X165117596Y-74555700D01*
X165086457Y-74671913D01*
X165066502Y-74900000D01*
X165086457Y-75128087D01*
X165087881Y-75133400D01*
X165087881Y-75133402D01*
X165119375Y-75250936D01*
X165145716Y-75349243D01*
X165148039Y-75354224D01*
X165148039Y-75354225D01*
X165240151Y-75551762D01*
X165240154Y-75551767D01*
X165242477Y-75556749D01*
X165373802Y-75744300D01*
X165530907Y-75901405D01*
X165564933Y-75963717D01*
X165559868Y-76034532D01*
X165517321Y-76091368D01*
X165450801Y-76116179D01*
X165441812Y-76116500D01*
X163464594Y-76116500D01*
X163396473Y-76096498D01*
X163375499Y-76079595D01*
X162609152Y-75313248D01*
X162575126Y-75250936D01*
X162576541Y-75191541D01*
X162592118Y-75133409D01*
X162592120Y-75133398D01*
X162593543Y-75128087D01*
X162613498Y-74900000D01*
X162593543Y-74671913D01*
X162562404Y-74555700D01*
X162535707Y-74456067D01*
X162535706Y-74456065D01*
X162534284Y-74450757D01*
X162487654Y-74350757D01*
X162439849Y-74248238D01*
X162439846Y-74248233D01*
X162437523Y-74243251D01*
X162327766Y-74086502D01*
X162309357Y-74060211D01*
X162309355Y-74060208D01*
X162306198Y-74055700D01*
X162144300Y-73893802D01*
X162139792Y-73890645D01*
X162139789Y-73890643D01*
X162007051Y-73797699D01*
X161956749Y-73762477D01*
X161951767Y-73760154D01*
X161951762Y-73760151D01*
X161754225Y-73668039D01*
X161754224Y-73668039D01*
X161749243Y-73665716D01*
X161743935Y-73664294D01*
X161743933Y-73664293D01*
X161533402Y-73607881D01*
X161533400Y-73607881D01*
X161528087Y-73606457D01*
X161300000Y-73586502D01*
X161071913Y-73606457D01*
X161066600Y-73607881D01*
X161066598Y-73607881D01*
X160967110Y-73634539D01*
X160896134Y-73632849D01*
X160837338Y-73593055D01*
X160809390Y-73527791D01*
X160808499Y-73512832D01*
X160808499Y-68367062D01*
X160809932Y-68348113D01*
X160812096Y-68333885D01*
X160813197Y-68326650D01*
X160811023Y-68299912D01*
X160808914Y-68273990D01*
X160808499Y-68263776D01*
X160808499Y-68255706D01*
X160808077Y-68252086D01*
X160808076Y-68252068D01*
X160805207Y-68227460D01*
X160804774Y-68223085D01*
X160804470Y-68219339D01*
X160798859Y-68150362D01*
X160796603Y-68143398D01*
X160795412Y-68137439D01*
X160794028Y-68131584D01*
X160793181Y-68124318D01*
X160768264Y-68055672D01*
X160766847Y-68051544D01*
X160746606Y-67989063D01*
X160746605Y-67989061D01*
X160744350Y-67982100D01*
X160740554Y-67975845D01*
X160738048Y-67970371D01*
X160735329Y-67964941D01*
X160732832Y-67958062D01*
X160692808Y-67897015D01*
X160690471Y-67893311D01*
X160655508Y-67835692D01*
X160655504Y-67835687D01*
X160652594Y-67830891D01*
X160645196Y-67822515D01*
X160645222Y-67822492D01*
X160642573Y-67819502D01*
X160639865Y-67816263D01*
X160635855Y-67810147D01*
X160630548Y-67805120D01*
X160630545Y-67805116D01*
X160579616Y-67756871D01*
X160577174Y-67754493D01*
X152833770Y-60011089D01*
X152821384Y-59996677D01*
X152812851Y-59985082D01*
X152812846Y-59985077D01*
X152808508Y-59979182D01*
X152802930Y-59974443D01*
X152802927Y-59974440D01*
X152768232Y-59944965D01*
X152760716Y-59938035D01*
X152755021Y-59932340D01*
X152748880Y-59927482D01*
X152732749Y-59914719D01*
X152729345Y-59911928D01*
X152679297Y-59869409D01*
X152679295Y-59869408D01*
X152673715Y-59864667D01*
X152667199Y-59861339D01*
X152662150Y-59857972D01*
X152657021Y-59854805D01*
X152651284Y-59850266D01*
X152585125Y-59819345D01*
X152581225Y-59817439D01*
X152516192Y-59784231D01*
X152509084Y-59782492D01*
X152503441Y-59780393D01*
X152497678Y-59778476D01*
X152491050Y-59775378D01*
X152419583Y-59760513D01*
X152415299Y-59759543D01*
X152344390Y-59742192D01*
X152338788Y-59741844D01*
X152338785Y-59741844D01*
X152333236Y-59741500D01*
X152333238Y-59741464D01*
X152329245Y-59741225D01*
X152325053Y-59740851D01*
X152317885Y-59739360D01*
X152251675Y-59741151D01*
X152240479Y-59741454D01*
X152237072Y-59741500D01*
X147384500Y-59741500D01*
X147316379Y-59721498D01*
X147269886Y-59667842D01*
X147258500Y-59615500D01*
X147258500Y-58701866D01*
X147251745Y-58639684D01*
X147200615Y-58503295D01*
X147113261Y-58386739D01*
X146996705Y-58299385D01*
X146860316Y-58248255D01*
X146798134Y-58241500D01*
X143201866Y-58241500D01*
X143139684Y-58248255D01*
X143003295Y-58299385D01*
X142886739Y-58386739D01*
X142799385Y-58503295D01*
X142796236Y-58511696D01*
X142795019Y-58513918D01*
X142744760Y-58564064D01*
X142675369Y-58579077D01*
X142608877Y-58554191D01*
X142566395Y-58497307D01*
X142558500Y-58453408D01*
X142558500Y-56532636D01*
X142557155Y-56507791D01*
X142555617Y-56479401D01*
X142555381Y-56475043D01*
X142547996Y-56437229D01*
X142511402Y-56249840D01*
X142511402Y-56249839D01*
X142510380Y-56244607D01*
X142427196Y-56025048D01*
X142308209Y-55822644D01*
X142156819Y-55643181D01*
X141977356Y-55491791D01*
X141774952Y-55372804D01*
X141609082Y-55309961D01*
X142742001Y-55309961D01*
X142742209Y-55315071D01*
X142753082Y-55448767D01*
X142754852Y-55459320D01*
X142807967Y-55666185D01*
X142811701Y-55676731D01*
X142900510Y-55870705D01*
X142906046Y-55880412D01*
X143027803Y-56055597D01*
X143034976Y-56064176D01*
X143185824Y-56215024D01*
X143194403Y-56222197D01*
X143369588Y-56343954D01*
X143379295Y-56349490D01*
X143573269Y-56438299D01*
X143583815Y-56442033D01*
X143790679Y-56495147D01*
X143801234Y-56496918D01*
X143934930Y-56507793D01*
X143940036Y-56508000D01*
X144727885Y-56508000D01*
X144743124Y-56503525D01*
X144744329Y-56502135D01*
X144746000Y-56494452D01*
X144746000Y-56489884D01*
X145254000Y-56489884D01*
X145258475Y-56505123D01*
X145259865Y-56506328D01*
X145267548Y-56507999D01*
X146059961Y-56507999D01*
X146065071Y-56507791D01*
X146198767Y-56496918D01*
X146209320Y-56495148D01*
X146416185Y-56442033D01*
X146426731Y-56438299D01*
X146510383Y-56400000D01*
X150986502Y-56400000D01*
X151006457Y-56628087D01*
X151007881Y-56633400D01*
X151007881Y-56633402D01*
X151058732Y-56823177D01*
X151065716Y-56849243D01*
X151068039Y-56854224D01*
X151068039Y-56854225D01*
X151160151Y-57051762D01*
X151160154Y-57051767D01*
X151162477Y-57056749D01*
X151293802Y-57244300D01*
X151455700Y-57406198D01*
X151460208Y-57409355D01*
X151460211Y-57409357D01*
X151538389Y-57464098D01*
X151643251Y-57537523D01*
X151648233Y-57539846D01*
X151648238Y-57539849D01*
X151844765Y-57631490D01*
X151850757Y-57634284D01*
X151856065Y-57635706D01*
X151856067Y-57635707D01*
X152066598Y-57692119D01*
X152066600Y-57692119D01*
X152071913Y-57693543D01*
X152300000Y-57713498D01*
X152528087Y-57693543D01*
X152533400Y-57692119D01*
X152533402Y-57692119D01*
X152743933Y-57635707D01*
X152743935Y-57635706D01*
X152749243Y-57634284D01*
X152755235Y-57631490D01*
X152951762Y-57539849D01*
X152951767Y-57539846D01*
X152956749Y-57537523D01*
X153061611Y-57464098D01*
X153139789Y-57409357D01*
X153139792Y-57409355D01*
X153144300Y-57406198D01*
X153306198Y-57244300D01*
X153437523Y-57056749D01*
X153439846Y-57051767D01*
X153439849Y-57051762D01*
X153531961Y-56854225D01*
X153531961Y-56854224D01*
X153534284Y-56849243D01*
X153541269Y-56823177D01*
X153583245Y-56666522D01*
X156097273Y-56666522D01*
X156144764Y-56843761D01*
X156148510Y-56854053D01*
X156240586Y-57051511D01*
X156246069Y-57061007D01*
X156371028Y-57239467D01*
X156378084Y-57247875D01*
X156532125Y-57401916D01*
X156540533Y-57408972D01*
X156718993Y-57533931D01*
X156728489Y-57539414D01*
X156925947Y-57631490D01*
X156936239Y-57635236D01*
X157108503Y-57681394D01*
X157122599Y-57681058D01*
X157126000Y-57673116D01*
X157126000Y-57667967D01*
X157634000Y-57667967D01*
X157637973Y-57681498D01*
X157646522Y-57682727D01*
X157823761Y-57635236D01*
X157834053Y-57631490D01*
X158031511Y-57539414D01*
X158041007Y-57533931D01*
X158219467Y-57408972D01*
X158227875Y-57401916D01*
X158381916Y-57247875D01*
X158388972Y-57239467D01*
X158513931Y-57061007D01*
X158519414Y-57051511D01*
X158551266Y-56983204D01*
X175337665Y-56983204D01*
X175352932Y-57247969D01*
X175354005Y-57256470D01*
X175405065Y-57516722D01*
X175407276Y-57524974D01*
X175493184Y-57775894D01*
X175496499Y-57783779D01*
X175615664Y-58020713D01*
X175620020Y-58028079D01*
X175749347Y-58216250D01*
X175759601Y-58224594D01*
X175773342Y-58217448D01*
X176977978Y-57012812D01*
X176985592Y-56998868D01*
X176985461Y-56997035D01*
X176981210Y-56990420D01*
X175773814Y-55783024D01*
X175761804Y-55776466D01*
X175750064Y-55785434D01*
X175641935Y-55935911D01*
X175637418Y-55943196D01*
X175513325Y-56177567D01*
X175509839Y-56185395D01*
X175418700Y-56434446D01*
X175416311Y-56442670D01*
X175359812Y-56701795D01*
X175358563Y-56710250D01*
X175337754Y-56974653D01*
X175337665Y-56983204D01*
X158551266Y-56983204D01*
X158611490Y-56854053D01*
X158615236Y-56843761D01*
X158661394Y-56671497D01*
X158661058Y-56657401D01*
X158653116Y-56654000D01*
X157652115Y-56654000D01*
X157636876Y-56658475D01*
X157635671Y-56659865D01*
X157634000Y-56667548D01*
X157634000Y-57667967D01*
X157126000Y-57667967D01*
X157126000Y-56672115D01*
X157121525Y-56656876D01*
X157120135Y-56655671D01*
X157112452Y-56654000D01*
X156112033Y-56654000D01*
X156098502Y-56657973D01*
X156097273Y-56666522D01*
X153583245Y-56666522D01*
X153592119Y-56633402D01*
X153592119Y-56633400D01*
X153593543Y-56628087D01*
X153613498Y-56400000D01*
X153593543Y-56171913D01*
X153583244Y-56133478D01*
X153581911Y-56128503D01*
X156098606Y-56128503D01*
X156098942Y-56142599D01*
X156106884Y-56146000D01*
X157107885Y-56146000D01*
X157123124Y-56141525D01*
X157124329Y-56140135D01*
X157126000Y-56132452D01*
X157126000Y-56127885D01*
X157634000Y-56127885D01*
X157638475Y-56143124D01*
X157639865Y-56144329D01*
X157647548Y-56146000D01*
X158647967Y-56146000D01*
X158661498Y-56142027D01*
X158662727Y-56133478D01*
X158615236Y-55956239D01*
X158611490Y-55945947D01*
X158565879Y-55848134D01*
X159941500Y-55848134D01*
X159948255Y-55910316D01*
X159999385Y-56046705D01*
X160086739Y-56163261D01*
X160203295Y-56250615D01*
X160339684Y-56301745D01*
X160401866Y-56308500D01*
X161598134Y-56308500D01*
X161660316Y-56301745D01*
X161796705Y-56250615D01*
X161913261Y-56163261D01*
X162000615Y-56046705D01*
X162051745Y-55910316D01*
X162058500Y-55848134D01*
X162058500Y-54364500D01*
X162078502Y-54296379D01*
X162132158Y-54249886D01*
X162184500Y-54238500D01*
X162355500Y-54238500D01*
X162423621Y-54258502D01*
X162470114Y-54312158D01*
X162481500Y-54364500D01*
X162481500Y-55610992D01*
X162481767Y-55615623D01*
X162521309Y-55786895D01*
X162549261Y-55844717D01*
X162577175Y-55902460D01*
X162597812Y-55945151D01*
X162707476Y-56082524D01*
X162844849Y-56192188D01*
X163003105Y-56268691D01*
X163174377Y-56308233D01*
X163179008Y-56308500D01*
X163900992Y-56308500D01*
X163905623Y-56308233D01*
X164076895Y-56268691D01*
X164235151Y-56192188D01*
X164372524Y-56082524D01*
X164482188Y-55945151D01*
X164502826Y-55902460D01*
X164530739Y-55844717D01*
X164558691Y-55786895D01*
X164598233Y-55615623D01*
X164598500Y-55610992D01*
X164598500Y-55412500D01*
X176126584Y-55412500D01*
X176132980Y-55423770D01*
X177337188Y-56627978D01*
X177351132Y-56635592D01*
X177352965Y-56635461D01*
X177359580Y-56631210D01*
X178566604Y-55424186D01*
X178573795Y-55411017D01*
X178566473Y-55400780D01*
X178519233Y-55362115D01*
X178512261Y-55357160D01*
X178286122Y-55218582D01*
X178278552Y-55214624D01*
X178035704Y-55108022D01*
X178027644Y-55105120D01*
X177772592Y-55032467D01*
X177764214Y-55030685D01*
X177501656Y-54993318D01*
X177493111Y-54992691D01*
X177227908Y-54991302D01*
X177219374Y-54991839D01*
X176956433Y-55026456D01*
X176948035Y-55028149D01*
X176692238Y-55098127D01*
X176684143Y-55100946D01*
X176440199Y-55204997D01*
X176432577Y-55208881D01*
X176205013Y-55345075D01*
X176197981Y-55349962D01*
X176135053Y-55400377D01*
X176126584Y-55412500D01*
X164598500Y-55412500D01*
X164598500Y-54189008D01*
X164598233Y-54184377D01*
X164558691Y-54013105D01*
X164510308Y-53913019D01*
X164485255Y-53861193D01*
X164485254Y-53861191D01*
X164482188Y-53854849D01*
X164372524Y-53717476D01*
X164235151Y-53607812D01*
X164076895Y-53531309D01*
X163905623Y-53491767D01*
X163900992Y-53491500D01*
X163454500Y-53491500D01*
X163386379Y-53471498D01*
X163339886Y-53417842D01*
X163328500Y-53365500D01*
X163328500Y-52119008D01*
X163328233Y-52114377D01*
X163288691Y-51943105D01*
X163212188Y-51784849D01*
X163102524Y-51647476D01*
X162965151Y-51537812D01*
X162806895Y-51461309D01*
X162635623Y-51421767D01*
X162630992Y-51421500D01*
X161909008Y-51421500D01*
X161904377Y-51421767D01*
X161733105Y-51461309D01*
X161574849Y-51537812D01*
X161437476Y-51647476D01*
X161327812Y-51784849D01*
X161251309Y-51943105D01*
X161211767Y-52114377D01*
X161211500Y-52119008D01*
X161211500Y-53365500D01*
X161191498Y-53433621D01*
X161137842Y-53480114D01*
X161085500Y-53491500D01*
X160401866Y-53491500D01*
X160339684Y-53498255D01*
X160203295Y-53549385D01*
X160086739Y-53636739D01*
X159999385Y-53753295D01*
X159948255Y-53889684D01*
X159941500Y-53951866D01*
X159941500Y-55848134D01*
X158565879Y-55848134D01*
X158519414Y-55748489D01*
X158513931Y-55738993D01*
X158388972Y-55560533D01*
X158381916Y-55552125D01*
X158227875Y-55398084D01*
X158219467Y-55391028D01*
X158041007Y-55266069D01*
X158031511Y-55260586D01*
X157834053Y-55168510D01*
X157823761Y-55164764D01*
X157651497Y-55118606D01*
X157637401Y-55118942D01*
X157634000Y-55126884D01*
X157634000Y-56127885D01*
X157126000Y-56127885D01*
X157126000Y-55132033D01*
X157122027Y-55118502D01*
X157113478Y-55117273D01*
X156936239Y-55164764D01*
X156925947Y-55168510D01*
X156728489Y-55260586D01*
X156718993Y-55266069D01*
X156540533Y-55391028D01*
X156532125Y-55398084D01*
X156378084Y-55552125D01*
X156371028Y-55560533D01*
X156246069Y-55738993D01*
X156240586Y-55748489D01*
X156148510Y-55945947D01*
X156144764Y-55956239D01*
X156098606Y-56128503D01*
X153581911Y-56128503D01*
X153535707Y-55956067D01*
X153535706Y-55956065D01*
X153534284Y-55950757D01*
X153527361Y-55935911D01*
X153439849Y-55748238D01*
X153439846Y-55748233D01*
X153437523Y-55743251D01*
X153344871Y-55610930D01*
X153309357Y-55560211D01*
X153309355Y-55560208D01*
X153306198Y-55555700D01*
X153144300Y-55393802D01*
X153139792Y-55390645D01*
X153139789Y-55390643D01*
X153004303Y-55295775D01*
X152956749Y-55262477D01*
X152951767Y-55260154D01*
X152951762Y-55260151D01*
X152754225Y-55168039D01*
X152754224Y-55168039D01*
X152749243Y-55165716D01*
X152743935Y-55164294D01*
X152743933Y-55164293D01*
X152533402Y-55107881D01*
X152533400Y-55107881D01*
X152528087Y-55106457D01*
X152300000Y-55086502D01*
X152071913Y-55106457D01*
X152066600Y-55107881D01*
X152066598Y-55107881D01*
X151856067Y-55164293D01*
X151856065Y-55164294D01*
X151850757Y-55165716D01*
X151845776Y-55168039D01*
X151845775Y-55168039D01*
X151648238Y-55260151D01*
X151648233Y-55260154D01*
X151643251Y-55262477D01*
X151595697Y-55295775D01*
X151460211Y-55390643D01*
X151460208Y-55390645D01*
X151455700Y-55393802D01*
X151293802Y-55555700D01*
X151290645Y-55560208D01*
X151290643Y-55560211D01*
X151255129Y-55610930D01*
X151162477Y-55743251D01*
X151160154Y-55748233D01*
X151160151Y-55748238D01*
X151072639Y-55935911D01*
X151065716Y-55950757D01*
X151064294Y-55956065D01*
X151064293Y-55956067D01*
X151016756Y-56133478D01*
X151006457Y-56171913D01*
X150986502Y-56400000D01*
X146510383Y-56400000D01*
X146620705Y-56349490D01*
X146630412Y-56343954D01*
X146805597Y-56222197D01*
X146814176Y-56215024D01*
X146965024Y-56064176D01*
X146972197Y-56055597D01*
X147093954Y-55880412D01*
X147099490Y-55870705D01*
X147188299Y-55676731D01*
X147192033Y-55666185D01*
X147245147Y-55459321D01*
X147246918Y-55448766D01*
X147257793Y-55315070D01*
X147258000Y-55309964D01*
X147258000Y-54772115D01*
X147253525Y-54756876D01*
X147252135Y-54755671D01*
X147244452Y-54754000D01*
X145272115Y-54754000D01*
X145256876Y-54758475D01*
X145255671Y-54759865D01*
X145254000Y-54767548D01*
X145254000Y-56489884D01*
X144746000Y-56489884D01*
X144746000Y-54772115D01*
X144741525Y-54756876D01*
X144740135Y-54755671D01*
X144732452Y-54754000D01*
X142760116Y-54754000D01*
X142744877Y-54758475D01*
X142743672Y-54759865D01*
X142742001Y-54767548D01*
X142742001Y-55309961D01*
X141609082Y-55309961D01*
X141555393Y-55289620D01*
X141529319Y-55284528D01*
X141329243Y-55245456D01*
X141324957Y-55244619D01*
X141319227Y-55244309D01*
X141269052Y-55241591D01*
X141269037Y-55241591D01*
X141267364Y-55241500D01*
X139332636Y-55241500D01*
X139330963Y-55241591D01*
X139330948Y-55241591D01*
X139280773Y-55244309D01*
X139275043Y-55244619D01*
X139270757Y-55245456D01*
X139070682Y-55284528D01*
X139044607Y-55289620D01*
X138825048Y-55372804D01*
X138622644Y-55491791D01*
X138443181Y-55643181D01*
X138291791Y-55822644D01*
X138172804Y-56025048D01*
X138089620Y-56244607D01*
X138088598Y-56249839D01*
X138088598Y-56249840D01*
X138052004Y-56437229D01*
X138044619Y-56475043D01*
X138044383Y-56479401D01*
X138042846Y-56507791D01*
X138041500Y-56532636D01*
X138041500Y-58467364D01*
X138041591Y-58469037D01*
X138041591Y-58469052D01*
X138043446Y-58503295D01*
X138044619Y-58524957D01*
X138045456Y-58529243D01*
X138078504Y-58698469D01*
X138089620Y-58755393D01*
X138172804Y-58974952D01*
X138291791Y-59177356D01*
X138443181Y-59356819D01*
X138622644Y-59508209D01*
X138825048Y-59627196D01*
X139044607Y-59710380D01*
X139049839Y-59711402D01*
X139049840Y-59711402D01*
X139203727Y-59741454D01*
X139275043Y-59755381D01*
X139279401Y-59755617D01*
X139330948Y-59758409D01*
X139330963Y-59758409D01*
X139332636Y-59758500D01*
X141267364Y-59758500D01*
X141269037Y-59758409D01*
X141269052Y-59758409D01*
X141320599Y-59755617D01*
X141324957Y-59755381D01*
X141396273Y-59741454D01*
X141550160Y-59711402D01*
X141550161Y-59711402D01*
X141555393Y-59710380D01*
X141774952Y-59627196D01*
X141977356Y-59508209D01*
X142156819Y-59356819D01*
X142308209Y-59177356D01*
X142427196Y-58974952D01*
X142497673Y-58788932D01*
X142540512Y-58732317D01*
X142607160Y-58707849D01*
X142676455Y-58723298D01*
X142726398Y-58773759D01*
X142741500Y-58833573D01*
X142741500Y-62298134D01*
X142748255Y-62360316D01*
X142799385Y-62496705D01*
X142886739Y-62613261D01*
X143003295Y-62700615D01*
X143139684Y-62751745D01*
X143201866Y-62758500D01*
X146798134Y-62758500D01*
X146860316Y-62751745D01*
X146996705Y-62700615D01*
X147113261Y-62613261D01*
X147200615Y-62496705D01*
X147251745Y-62360316D01*
X147258500Y-62298134D01*
X147258500Y-61384500D01*
X147278502Y-61316379D01*
X147332158Y-61269886D01*
X147384500Y-61258500D01*
X151883629Y-61258500D01*
X151951750Y-61278502D01*
X151972724Y-61295405D01*
X159254594Y-68577275D01*
X159288620Y-68639587D01*
X159291499Y-68666370D01*
X159291499Y-80652929D01*
X159290066Y-80671879D01*
X159286800Y-80693348D01*
X159287393Y-80700640D01*
X159287393Y-80700643D01*
X159291084Y-80746017D01*
X159291499Y-80756232D01*
X159291499Y-80764292D01*
X159291924Y-80767936D01*
X159294788Y-80792506D01*
X159295221Y-80796881D01*
X159301139Y-80869636D01*
X159303395Y-80876600D01*
X159304586Y-80882559D01*
X159305970Y-80888414D01*
X159306817Y-80895680D01*
X159331734Y-80964326D01*
X159333151Y-80968454D01*
X159355648Y-81037898D01*
X159359444Y-81044153D01*
X159361950Y-81049627D01*
X159364669Y-81055057D01*
X159367166Y-81061936D01*
X159371179Y-81068056D01*
X159371179Y-81068057D01*
X159407185Y-81122975D01*
X159409522Y-81126679D01*
X159447404Y-81189106D01*
X159451120Y-81193314D01*
X159451121Y-81193315D01*
X159454802Y-81197483D01*
X159454775Y-81197507D01*
X159457428Y-81200499D01*
X159460132Y-81203733D01*
X159464143Y-81209851D01*
X159469451Y-81214879D01*
X159469454Y-81214883D01*
X159507980Y-81251378D01*
X159543678Y-81312747D01*
X159540635Y-81381335D01*
X159540855Y-81381399D01*
X159494438Y-81541169D01*
X159493934Y-81547574D01*
X159493933Y-81547579D01*
X159493283Y-81555840D01*
X159491500Y-81578498D01*
X159491500Y-81680490D01*
X159471498Y-81748611D01*
X159417842Y-81795104D01*
X159365500Y-81806490D01*
X157634500Y-81806490D01*
X157566379Y-81786488D01*
X157519886Y-81732832D01*
X157508500Y-81680490D01*
X157508500Y-81578498D01*
X157506717Y-81555840D01*
X157506067Y-81547579D01*
X157506066Y-81547574D01*
X157505562Y-81541169D01*
X157459145Y-81381399D01*
X157433659Y-81338305D01*
X157378491Y-81245020D01*
X157378489Y-81245017D01*
X157374453Y-81238193D01*
X157256807Y-81120547D01*
X157249983Y-81116511D01*
X157249980Y-81116509D01*
X157120427Y-81039892D01*
X157120428Y-81039892D01*
X157113601Y-81035855D01*
X157105990Y-81033644D01*
X157105988Y-81033643D01*
X157053769Y-81018472D01*
X156953831Y-80989438D01*
X156947426Y-80988934D01*
X156947421Y-80988933D01*
X156918958Y-80986693D01*
X156918950Y-80986693D01*
X156916502Y-80986500D01*
X156334500Y-80986500D01*
X156266379Y-80966498D01*
X156219886Y-80912842D01*
X156208500Y-80860500D01*
X156208500Y-79765732D01*
X156228502Y-79697611D01*
X156282158Y-79651118D01*
X156352432Y-79641014D01*
X156367111Y-79644025D01*
X156546598Y-79692119D01*
X156546600Y-79692119D01*
X156551913Y-79693543D01*
X156780000Y-79713498D01*
X157008087Y-79693543D01*
X157013400Y-79692119D01*
X157013402Y-79692119D01*
X157223933Y-79635707D01*
X157223935Y-79635706D01*
X157229243Y-79634284D01*
X157240116Y-79629214D01*
X157431762Y-79539849D01*
X157431767Y-79539846D01*
X157436749Y-79537523D01*
X157541611Y-79464098D01*
X157619789Y-79409357D01*
X157619792Y-79409355D01*
X157624300Y-79406198D01*
X157786198Y-79244300D01*
X157803519Y-79219564D01*
X157844098Y-79161611D01*
X157917523Y-79056749D01*
X157919846Y-79051767D01*
X157919849Y-79051762D01*
X158011961Y-78854225D01*
X158011961Y-78854224D01*
X158014284Y-78849243D01*
X158073543Y-78628087D01*
X158093498Y-78400000D01*
X158073543Y-78171913D01*
X158063658Y-78135022D01*
X158015707Y-77956067D01*
X158015706Y-77956065D01*
X158014284Y-77950757D01*
X157994327Y-77907958D01*
X157919849Y-77748238D01*
X157919846Y-77748233D01*
X157917523Y-77743251D01*
X157828496Y-77616108D01*
X157789357Y-77560211D01*
X157789355Y-77560208D01*
X157786198Y-77555700D01*
X157624300Y-77393802D01*
X157619792Y-77390645D01*
X157619789Y-77390643D01*
X157467229Y-77283819D01*
X157422901Y-77228362D01*
X157413500Y-77180606D01*
X157413500Y-76019394D01*
X157433502Y-75951273D01*
X157467229Y-75916181D01*
X157619789Y-75809357D01*
X157619792Y-75809355D01*
X157624300Y-75806198D01*
X157786198Y-75644300D01*
X157797551Y-75628087D01*
X157844098Y-75561611D01*
X157917523Y-75456749D01*
X157919846Y-75451767D01*
X157919849Y-75451762D01*
X158011961Y-75254225D01*
X158011961Y-75254224D01*
X158014284Y-75249243D01*
X158040626Y-75150936D01*
X158072119Y-75033402D01*
X158072119Y-75033400D01*
X158073543Y-75028087D01*
X158093498Y-74800000D01*
X158073543Y-74571913D01*
X158072117Y-74566591D01*
X158015707Y-74356067D01*
X158015706Y-74356065D01*
X158014284Y-74350757D01*
X158003906Y-74328501D01*
X157919849Y-74148238D01*
X157919846Y-74148233D01*
X157917523Y-74143251D01*
X157829820Y-74017998D01*
X157789357Y-73960211D01*
X157789355Y-73960208D01*
X157786198Y-73955700D01*
X157624300Y-73793802D01*
X157619792Y-73790645D01*
X157619789Y-73790643D01*
X157444692Y-73668039D01*
X157436749Y-73662477D01*
X157431767Y-73660154D01*
X157431762Y-73660151D01*
X157234225Y-73568039D01*
X157234224Y-73568039D01*
X157229243Y-73565716D01*
X157223935Y-73564294D01*
X157223933Y-73564293D01*
X157013402Y-73507881D01*
X157013400Y-73507881D01*
X157008087Y-73506457D01*
X156780000Y-73486502D01*
X156551913Y-73506457D01*
X156546608Y-73507879D01*
X156546594Y-73507881D01*
X156488461Y-73523459D01*
X156417484Y-73521771D01*
X156366752Y-73490848D01*
X156158646Y-73282741D01*
X156151112Y-73274462D01*
X156146999Y-73267981D01*
X156097347Y-73221355D01*
X156094506Y-73218601D01*
X156074769Y-73198864D01*
X156071572Y-73196384D01*
X156062550Y-73188679D01*
X156049121Y-73176068D01*
X156030320Y-73158413D01*
X156023374Y-73154594D01*
X156023371Y-73154592D01*
X156012565Y-73148651D01*
X155996046Y-73137800D01*
X155995582Y-73137440D01*
X155980040Y-73125385D01*
X155972771Y-73122240D01*
X155972767Y-73122237D01*
X155939462Y-73107825D01*
X155928812Y-73102608D01*
X155890059Y-73081304D01*
X155870436Y-73076266D01*
X155851733Y-73069862D01*
X155840419Y-73064966D01*
X155840418Y-73064966D01*
X155833144Y-73061818D01*
X155825321Y-73060579D01*
X155825311Y-73060576D01*
X155789475Y-73054900D01*
X155777855Y-73052494D01*
X155742710Y-73043471D01*
X155742709Y-73043471D01*
X155735029Y-73041499D01*
X155714775Y-73041499D01*
X155695064Y-73039948D01*
X155682885Y-73038019D01*
X155675056Y-73036779D01*
X155645785Y-73039546D01*
X155631038Y-73040940D01*
X155619180Y-73041499D01*
X151238766Y-73041499D01*
X151227583Y-73040972D01*
X151220090Y-73039297D01*
X151212164Y-73039546D01*
X151212163Y-73039546D01*
X151152000Y-73041437D01*
X151148042Y-73041499D01*
X151120143Y-73041499D01*
X151116153Y-73042003D01*
X151104319Y-73042935D01*
X151060110Y-73044325D01*
X151052496Y-73046537D01*
X151052491Y-73046538D01*
X151040658Y-73049976D01*
X151021295Y-73053987D01*
X151001202Y-73056525D01*
X150993835Y-73059442D01*
X150993830Y-73059443D01*
X150960091Y-73072801D01*
X150948864Y-73076645D01*
X150906406Y-73088981D01*
X150899580Y-73093018D01*
X150888971Y-73099292D01*
X150871223Y-73107987D01*
X150852382Y-73115447D01*
X150845966Y-73120109D01*
X150845965Y-73120109D01*
X150816612Y-73141435D01*
X150806692Y-73147951D01*
X150775464Y-73166419D01*
X150775461Y-73166421D01*
X150768637Y-73170457D01*
X150754316Y-73184778D01*
X150739283Y-73197618D01*
X150722892Y-73209527D01*
X150696515Y-73241412D01*
X150694711Y-73243592D01*
X150686721Y-73252373D01*
X150182741Y-73756352D01*
X150174462Y-73763886D01*
X150167981Y-73767999D01*
X150146717Y-73790643D01*
X150121356Y-73817650D01*
X150118601Y-73820492D01*
X150098864Y-73840229D01*
X150096384Y-73843426D01*
X150088681Y-73852446D01*
X150058413Y-73884678D01*
X150054594Y-73891624D01*
X150054592Y-73891627D01*
X150048651Y-73902433D01*
X150037800Y-73918952D01*
X150025385Y-73934958D01*
X150022240Y-73942227D01*
X150022237Y-73942231D01*
X150007825Y-73975536D01*
X150002608Y-73986186D01*
X149981304Y-74024939D01*
X149979333Y-74032614D01*
X149979333Y-74032615D01*
X149976266Y-74044561D01*
X149969862Y-74063265D01*
X149961818Y-74081854D01*
X149960579Y-74089677D01*
X149960576Y-74089687D01*
X149954900Y-74125523D01*
X149952494Y-74137143D01*
X149951173Y-74142288D01*
X149941499Y-74179969D01*
X149941499Y-74200223D01*
X149939948Y-74219933D01*
X149936779Y-74239942D01*
X149937525Y-74247834D01*
X149940940Y-74283960D01*
X149941499Y-74295818D01*
X149941499Y-78861234D01*
X149940972Y-78872417D01*
X149939297Y-78879910D01*
X149939546Y-78887836D01*
X149939546Y-78887837D01*
X149941437Y-78947987D01*
X149941499Y-78951946D01*
X149941499Y-78979857D01*
X149941996Y-78983791D01*
X149941996Y-78983792D01*
X149942004Y-78983857D01*
X149942937Y-78995694D01*
X149944326Y-79039890D01*
X149949224Y-79056749D01*
X149949977Y-79059340D01*
X149953986Y-79078701D01*
X149956525Y-79098798D01*
X149959444Y-79106169D01*
X149959444Y-79106171D01*
X149972803Y-79139913D01*
X149976648Y-79151143D01*
X149985343Y-79181072D01*
X149988981Y-79193594D01*
X149993014Y-79200413D01*
X149993016Y-79200418D01*
X149999292Y-79211029D01*
X150007987Y-79228777D01*
X150015447Y-79247618D01*
X150020109Y-79254034D01*
X150020109Y-79254035D01*
X150041435Y-79283388D01*
X150047951Y-79293308D01*
X150070457Y-79331363D01*
X150084778Y-79345684D01*
X150097618Y-79360717D01*
X150109527Y-79377108D01*
X150115633Y-79382159D01*
X150143604Y-79405299D01*
X150152383Y-79413289D01*
X154196341Y-83457247D01*
X154203885Y-83465537D01*
X154207998Y-83472018D01*
X154213775Y-83477443D01*
X154220384Y-83483649D01*
X154256350Y-83544862D01*
X154253513Y-83615802D01*
X154212773Y-83673946D01*
X154147065Y-83700835D01*
X154134132Y-83701500D01*
X147649594Y-83701500D01*
X147581473Y-83681498D01*
X147560499Y-83664595D01*
X146551218Y-82655313D01*
X146517192Y-82593001D01*
X146519755Y-82529589D01*
X146530865Y-82493022D01*
X146532370Y-82488069D01*
X146561529Y-82266590D01*
X146563156Y-82200000D01*
X146544852Y-81977361D01*
X146490431Y-81760702D01*
X146401354Y-81555840D01*
X146280014Y-81368277D01*
X146129670Y-81203051D01*
X146125619Y-81199852D01*
X146125615Y-81199848D01*
X145958414Y-81067800D01*
X145958410Y-81067798D01*
X145954359Y-81064598D01*
X145758789Y-80956638D01*
X145753624Y-80954809D01*
X145749285Y-80953272D01*
X145691750Y-80911677D01*
X145665835Y-80845579D01*
X145679770Y-80775964D01*
X145729129Y-80724933D01*
X145791347Y-80708500D01*
X145910012Y-80708500D01*
X146088175Y-80693383D01*
X146093339Y-80692043D01*
X146093343Y-80692042D01*
X146314375Y-80634673D01*
X146314380Y-80634671D01*
X146319540Y-80633332D01*
X146340233Y-80624010D01*
X146532619Y-80537347D01*
X146532622Y-80537346D01*
X146537480Y-80535157D01*
X146735762Y-80401666D01*
X146908718Y-80236674D01*
X147051402Y-80044900D01*
X147094491Y-79960151D01*
X147157314Y-79836586D01*
X147157314Y-79836585D01*
X147159733Y-79831828D01*
X147218048Y-79644025D01*
X147229032Y-79608651D01*
X147229033Y-79608645D01*
X147230616Y-79603548D01*
X147247506Y-79476117D01*
X147261323Y-79371873D01*
X147261323Y-79371869D01*
X147262023Y-79366589D01*
X147261502Y-79352698D01*
X147253563Y-79141249D01*
X147253055Y-79127726D01*
X147215756Y-78949959D01*
X147205067Y-78899016D01*
X147205066Y-78899013D01*
X147203970Y-78893789D01*
X147116171Y-78671467D01*
X146992168Y-78467117D01*
X146902103Y-78363326D01*
X146839007Y-78290614D01*
X146839005Y-78290612D01*
X146835507Y-78286581D01*
X146831381Y-78283198D01*
X146831377Y-78283194D01*
X146654795Y-78138407D01*
X146650667Y-78135022D01*
X146646031Y-78132383D01*
X146646028Y-78132381D01*
X146447577Y-78019416D01*
X146442934Y-78016773D01*
X146218247Y-77935216D01*
X146212998Y-77934267D01*
X146212995Y-77934266D01*
X145987115Y-77893420D01*
X145987107Y-77893419D01*
X145983031Y-77892682D01*
X145964641Y-77891815D01*
X145959456Y-77891570D01*
X145959449Y-77891570D01*
X145957968Y-77891500D01*
X144589988Y-77891500D01*
X144411825Y-77906617D01*
X144406661Y-77907957D01*
X144406657Y-77907958D01*
X144185625Y-77965327D01*
X144185620Y-77965329D01*
X144180460Y-77966668D01*
X144175594Y-77968860D01*
X143967381Y-78062653D01*
X143967378Y-78062654D01*
X143962520Y-78064843D01*
X143764238Y-78198334D01*
X143591282Y-78363326D01*
X143448598Y-78555100D01*
X143446182Y-78559851D01*
X143446180Y-78559855D01*
X143408787Y-78633402D01*
X143340267Y-78768172D01*
X143308630Y-78870059D01*
X143270968Y-78991349D01*
X143270967Y-78991355D01*
X143269384Y-78996452D01*
X143261393Y-79056749D01*
X143258795Y-79076347D01*
X143230016Y-79141249D01*
X143170717Y-79180289D01*
X143099724Y-79181072D01*
X143044792Y-79148887D01*
X131770405Y-67874500D01*
X131736379Y-67812188D01*
X131733500Y-67785405D01*
X131733500Y-62069394D01*
X131753502Y-62001273D01*
X131787229Y-61966181D01*
X131939789Y-61859357D01*
X131939792Y-61859355D01*
X131944300Y-61856198D01*
X132106198Y-61694300D01*
X132118037Y-61677393D01*
X132196998Y-61564624D01*
X132237523Y-61506749D01*
X132239846Y-61501767D01*
X132239849Y-61501762D01*
X132331961Y-61304225D01*
X132331961Y-61304224D01*
X132334284Y-61299243D01*
X132354784Y-61222739D01*
X132392119Y-61083402D01*
X132392119Y-61083400D01*
X132393543Y-61078087D01*
X132413498Y-60850000D01*
X132393543Y-60621913D01*
X132383244Y-60583478D01*
X132335707Y-60406067D01*
X132335706Y-60406065D01*
X132334284Y-60400757D01*
X132239966Y-60198489D01*
X132239849Y-60198238D01*
X132239846Y-60198233D01*
X132237523Y-60193251D01*
X132110846Y-60012338D01*
X132109357Y-60010211D01*
X132109355Y-60010208D01*
X132106198Y-60005700D01*
X131944300Y-59843802D01*
X131939792Y-59840645D01*
X131939789Y-59840643D01*
X131822476Y-59758500D01*
X131756749Y-59712477D01*
X131751767Y-59710154D01*
X131751762Y-59710151D01*
X131554225Y-59618039D01*
X131554224Y-59618039D01*
X131549243Y-59615716D01*
X131543935Y-59614294D01*
X131543933Y-59614293D01*
X131333402Y-59557881D01*
X131333400Y-59557881D01*
X131328087Y-59556457D01*
X131100000Y-59536502D01*
X130871913Y-59556457D01*
X130808458Y-59573460D01*
X130737482Y-59571770D01*
X130686753Y-59540848D01*
X127745405Y-56599500D01*
X127711379Y-56537188D01*
X127708500Y-56510405D01*
X127708500Y-55750000D01*
X129766835Y-55750000D01*
X129785465Y-55986711D01*
X129786619Y-55991518D01*
X129786620Y-55991524D01*
X129809522Y-56086917D01*
X129840895Y-56217594D01*
X129842788Y-56222165D01*
X129842789Y-56222167D01*
X129916450Y-56400000D01*
X129931760Y-56436963D01*
X129934346Y-56441183D01*
X130053241Y-56635202D01*
X130053245Y-56635208D01*
X130055824Y-56639416D01*
X130210031Y-56819969D01*
X130213787Y-56823177D01*
X130234618Y-56840968D01*
X130390584Y-56974176D01*
X130394792Y-56976755D01*
X130394798Y-56976759D01*
X130588817Y-57095654D01*
X130593037Y-57098240D01*
X130597607Y-57100133D01*
X130597611Y-57100135D01*
X130783191Y-57177004D01*
X130812406Y-57189105D01*
X130860349Y-57200615D01*
X131038476Y-57243380D01*
X131038482Y-57243381D01*
X131043289Y-57244535D01*
X131280000Y-57263165D01*
X131516711Y-57244535D01*
X131521518Y-57243381D01*
X131521524Y-57243380D01*
X131699651Y-57200615D01*
X131747594Y-57189105D01*
X131776809Y-57177004D01*
X131962389Y-57100135D01*
X131962393Y-57100133D01*
X131966963Y-57098240D01*
X131971183Y-57095654D01*
X132165202Y-56976759D01*
X132165208Y-56976755D01*
X132169416Y-56974176D01*
X132325382Y-56840968D01*
X132346213Y-56823177D01*
X132349969Y-56819969D01*
X132504176Y-56639416D01*
X132506755Y-56635208D01*
X132506759Y-56635202D01*
X132625654Y-56441183D01*
X132628240Y-56436963D01*
X132643551Y-56400000D01*
X132717211Y-56222167D01*
X132717212Y-56222165D01*
X132719105Y-56217594D01*
X132750478Y-56086917D01*
X132773380Y-55991524D01*
X132773381Y-55991518D01*
X132774535Y-55986711D01*
X132793165Y-55750000D01*
X132774535Y-55513289D01*
X132770561Y-55496733D01*
X132734150Y-55345075D01*
X132719105Y-55282406D01*
X132703453Y-55244619D01*
X132630135Y-55067611D01*
X132630133Y-55067607D01*
X132628240Y-55063037D01*
X132608415Y-55030685D01*
X132506759Y-54864798D01*
X132506755Y-54864792D01*
X132504176Y-54860584D01*
X132349969Y-54680031D01*
X132169416Y-54525824D01*
X132165208Y-54523245D01*
X132165202Y-54523241D01*
X131971183Y-54404346D01*
X131966963Y-54401760D01*
X131962393Y-54399867D01*
X131962389Y-54399865D01*
X131752167Y-54312789D01*
X131752165Y-54312788D01*
X131747594Y-54310895D01*
X131667391Y-54291640D01*
X131521524Y-54256620D01*
X131521518Y-54256619D01*
X131516711Y-54255465D01*
X131280000Y-54236835D01*
X131043289Y-54255465D01*
X131038482Y-54256619D01*
X131038476Y-54256620D01*
X130892609Y-54291640D01*
X130812406Y-54310895D01*
X130807835Y-54312788D01*
X130807833Y-54312789D01*
X130597611Y-54399865D01*
X130597607Y-54399867D01*
X130593037Y-54401760D01*
X130588817Y-54404346D01*
X130394798Y-54523241D01*
X130394792Y-54523245D01*
X130390584Y-54525824D01*
X130210031Y-54680031D01*
X130055824Y-54860584D01*
X130053245Y-54864792D01*
X130053241Y-54864798D01*
X129951585Y-55030685D01*
X129931760Y-55063037D01*
X129929867Y-55067607D01*
X129929865Y-55067611D01*
X129856547Y-55244619D01*
X129840895Y-55282406D01*
X129825850Y-55345075D01*
X129789440Y-55496733D01*
X129785465Y-55513289D01*
X129766835Y-55750000D01*
X127708500Y-55750000D01*
X127708500Y-54701866D01*
X127701745Y-54639684D01*
X127650615Y-54503295D01*
X127563261Y-54386739D01*
X127446705Y-54299385D01*
X127310316Y-54248255D01*
X127248134Y-54241500D01*
X125151866Y-54241500D01*
X125089684Y-54248255D01*
X124953295Y-54299385D01*
X124836739Y-54386739D01*
X124749385Y-54503295D01*
X124698255Y-54639684D01*
X124691500Y-54701866D01*
X124691500Y-54990500D01*
X124671498Y-55058621D01*
X124617842Y-55105114D01*
X124565500Y-55116500D01*
X123719394Y-55116500D01*
X123651273Y-55096498D01*
X123616181Y-55062771D01*
X123509357Y-54910211D01*
X123509355Y-54910208D01*
X123506198Y-54905700D01*
X123344300Y-54743802D01*
X123339792Y-54740645D01*
X123339789Y-54740643D01*
X123206824Y-54647540D01*
X123156749Y-54612477D01*
X123151767Y-54610154D01*
X123151762Y-54610151D01*
X122954225Y-54518039D01*
X122954224Y-54518039D01*
X122949243Y-54515716D01*
X122943935Y-54514294D01*
X122943933Y-54514293D01*
X122733402Y-54457881D01*
X122733400Y-54457881D01*
X122728087Y-54456457D01*
X122500000Y-54436502D01*
X122271913Y-54456457D01*
X122266600Y-54457881D01*
X122266598Y-54457881D01*
X122056067Y-54514293D01*
X122056065Y-54514294D01*
X122050757Y-54515716D01*
X122045776Y-54518039D01*
X122045775Y-54518039D01*
X121848238Y-54610151D01*
X121848233Y-54610154D01*
X121843251Y-54612477D01*
X121793176Y-54647540D01*
X121660211Y-54740643D01*
X121660208Y-54740645D01*
X121655700Y-54743802D01*
X121493802Y-54905700D01*
X121362477Y-55093251D01*
X121360154Y-55098233D01*
X121360151Y-55098238D01*
X121275456Y-55279870D01*
X121265716Y-55300757D01*
X121264294Y-55306065D01*
X121264293Y-55306067D01*
X121214528Y-55491791D01*
X121206457Y-55521913D01*
X121186502Y-55750000D01*
X121206457Y-55978087D01*
X121207881Y-55983400D01*
X121207881Y-55983402D01*
X121263826Y-56192188D01*
X121265716Y-56199243D01*
X121268039Y-56204224D01*
X121268039Y-56204225D01*
X121360151Y-56401762D01*
X121360154Y-56401767D01*
X121362477Y-56406749D01*
X121493802Y-56594300D01*
X121655700Y-56756198D01*
X121660208Y-56759355D01*
X121660211Y-56759357D01*
X121719991Y-56801215D01*
X121843251Y-56887523D01*
X121848233Y-56889846D01*
X121848238Y-56889849D01*
X122022194Y-56970965D01*
X122050757Y-56984284D01*
X122056065Y-56985706D01*
X122056067Y-56985707D01*
X122266598Y-57042119D01*
X122266600Y-57042119D01*
X122271913Y-57043543D01*
X122500000Y-57063498D01*
X122728087Y-57043543D01*
X122733400Y-57042119D01*
X122733402Y-57042119D01*
X122943933Y-56985707D01*
X122943935Y-56985706D01*
X122949243Y-56984284D01*
X122977806Y-56970965D01*
X123151762Y-56889849D01*
X123151767Y-56889846D01*
X123156749Y-56887523D01*
X123280009Y-56801215D01*
X123339789Y-56759357D01*
X123339792Y-56759355D01*
X123344300Y-56756198D01*
X123506198Y-56594300D01*
X123509357Y-56589789D01*
X123616181Y-56437229D01*
X123671638Y-56392901D01*
X123719394Y-56383500D01*
X124565500Y-56383500D01*
X124633621Y-56403502D01*
X124680114Y-56457158D01*
X124691500Y-56509500D01*
X124691500Y-56798134D01*
X124698255Y-56860316D01*
X124749385Y-56996705D01*
X124836739Y-57113261D01*
X124953295Y-57200615D01*
X125089684Y-57251745D01*
X125151866Y-57258500D01*
X126560406Y-57258500D01*
X126628527Y-57278502D01*
X126649501Y-57295405D01*
X129790848Y-60436752D01*
X129824874Y-60499064D01*
X129823459Y-60558459D01*
X129807882Y-60616591D01*
X129807881Y-60616598D01*
X129806457Y-60621913D01*
X129786502Y-60850000D01*
X129806457Y-61078087D01*
X129807881Y-61083400D01*
X129807881Y-61083402D01*
X129845217Y-61222739D01*
X129865716Y-61299243D01*
X129868039Y-61304224D01*
X129868039Y-61304225D01*
X129960151Y-61501762D01*
X129960154Y-61501767D01*
X129962477Y-61506749D01*
X130003002Y-61564624D01*
X130081964Y-61677393D01*
X130093802Y-61694300D01*
X130255700Y-61856198D01*
X130260208Y-61859355D01*
X130260211Y-61859357D01*
X130412771Y-61966181D01*
X130457099Y-62021638D01*
X130466500Y-62069394D01*
X130466500Y-68021233D01*
X130465973Y-68032416D01*
X130464298Y-68039909D01*
X130464547Y-68047835D01*
X130464547Y-68047836D01*
X130466438Y-68107986D01*
X130466500Y-68111945D01*
X130466500Y-68139856D01*
X130466997Y-68143790D01*
X130466997Y-68143791D01*
X130467005Y-68143856D01*
X130467938Y-68155693D01*
X130469327Y-68199889D01*
X130474978Y-68219339D01*
X130478987Y-68238700D01*
X130481526Y-68258797D01*
X130484445Y-68266168D01*
X130484445Y-68266170D01*
X130497804Y-68299912D01*
X130501649Y-68311142D01*
X130511771Y-68345983D01*
X130513982Y-68353593D01*
X130518015Y-68360412D01*
X130518017Y-68360417D01*
X130524293Y-68371028D01*
X130532988Y-68388776D01*
X130540448Y-68407617D01*
X130545110Y-68414033D01*
X130545110Y-68414034D01*
X130566436Y-68443387D01*
X130572952Y-68453307D01*
X130595458Y-68491362D01*
X130609779Y-68505683D01*
X130622619Y-68520716D01*
X130634528Y-68537107D01*
X130640634Y-68542158D01*
X130668605Y-68565298D01*
X130677384Y-68573288D01*
X143849778Y-81745682D01*
X143883804Y-81807994D01*
X143882100Y-81868448D01*
X143860989Y-81944570D01*
X143860441Y-81949700D01*
X143860440Y-81949704D01*
X143856933Y-81982522D01*
X143837251Y-82166695D01*
X143837548Y-82171848D01*
X143837548Y-82171851D01*
X143849131Y-82372739D01*
X143850110Y-82389715D01*
X143851247Y-82394761D01*
X143851248Y-82394767D01*
X143871119Y-82482939D01*
X143899222Y-82607639D01*
X143983266Y-82814616D01*
X143985965Y-82819020D01*
X144065352Y-82948568D01*
X144099987Y-83005088D01*
X144246250Y-83173938D01*
X144418126Y-83316632D01*
X144611000Y-83429338D01*
X144819692Y-83509030D01*
X144824760Y-83510061D01*
X144824763Y-83510062D01*
X144932012Y-83531882D01*
X145038597Y-83553567D01*
X145043772Y-83553757D01*
X145043774Y-83553757D01*
X145256673Y-83561564D01*
X145256677Y-83561564D01*
X145261837Y-83561753D01*
X145266957Y-83561097D01*
X145266959Y-83561097D01*
X145478288Y-83534025D01*
X145478289Y-83534025D01*
X145483416Y-83533368D01*
X145488367Y-83531883D01*
X145488370Y-83531882D01*
X145529829Y-83519444D01*
X145600825Y-83519028D01*
X145655131Y-83551035D01*
X145832537Y-83728441D01*
X145866563Y-83790753D01*
X145861498Y-83861568D01*
X145818951Y-83918404D01*
X145752431Y-83943215D01*
X145701383Y-83936309D01*
X145553091Y-83883796D01*
X145553083Y-83883794D01*
X145548212Y-83882069D01*
X145543119Y-83881162D01*
X145543116Y-83881161D01*
X145333373Y-83843800D01*
X145333367Y-83843799D01*
X145328284Y-83842894D01*
X145254452Y-83841992D01*
X145110081Y-83840228D01*
X145110079Y-83840228D01*
X145104911Y-83840165D01*
X144884091Y-83873955D01*
X144671756Y-83943357D01*
X144473607Y-84046507D01*
X144469474Y-84049610D01*
X144469471Y-84049612D01*
X144299100Y-84177530D01*
X144294965Y-84180635D01*
X144140629Y-84342138D01*
X144014743Y-84526680D01*
X143984306Y-84592252D01*
X143945370Y-84676133D01*
X143920688Y-84729305D01*
X143860989Y-84944570D01*
X143837251Y-85166695D01*
X143837548Y-85171848D01*
X143837548Y-85171851D01*
X143843011Y-85266590D01*
X143850110Y-85389715D01*
X143851247Y-85394761D01*
X143851248Y-85394767D01*
X143868618Y-85471842D01*
X143899222Y-85607639D01*
X143946141Y-85723187D01*
X143975650Y-85795859D01*
X143983266Y-85814616D01*
X144099987Y-86005088D01*
X144246250Y-86173938D01*
X144418126Y-86316632D01*
X144611000Y-86429338D01*
X144819692Y-86509030D01*
X144824760Y-86510061D01*
X144824763Y-86510062D01*
X144932012Y-86531882D01*
X145038597Y-86553567D01*
X145043772Y-86553757D01*
X145043774Y-86553757D01*
X145256673Y-86561564D01*
X145256677Y-86561564D01*
X145261837Y-86561753D01*
X145266957Y-86561097D01*
X145266959Y-86561097D01*
X145478288Y-86534025D01*
X145478289Y-86534025D01*
X145483416Y-86533368D01*
X145488367Y-86531883D01*
X145488370Y-86531882D01*
X145529829Y-86519444D01*
X145600825Y-86519028D01*
X145655131Y-86551035D01*
X145832537Y-86728441D01*
X145866563Y-86790753D01*
X145861498Y-86861568D01*
X145818951Y-86918404D01*
X145752431Y-86943215D01*
X145701383Y-86936309D01*
X145553091Y-86883796D01*
X145553083Y-86883794D01*
X145548212Y-86882069D01*
X145543119Y-86881162D01*
X145543116Y-86881161D01*
X145333373Y-86843800D01*
X145333367Y-86843799D01*
X145328284Y-86842894D01*
X145254452Y-86841992D01*
X145110081Y-86840228D01*
X145110079Y-86840228D01*
X145104911Y-86840165D01*
X144884091Y-86873955D01*
X144671756Y-86943357D01*
X144473607Y-87046507D01*
X144469474Y-87049610D01*
X144469471Y-87049612D01*
X144299100Y-87177530D01*
X144294965Y-87180635D01*
X144140629Y-87342138D01*
X144014743Y-87526680D01*
X143995747Y-87567603D01*
X143952782Y-87660165D01*
X143920688Y-87729305D01*
X143860989Y-87944570D01*
X143837251Y-88166695D01*
X143837548Y-88171848D01*
X143837548Y-88171851D01*
X143845392Y-88307882D01*
X143850110Y-88389715D01*
X143851247Y-88394761D01*
X143851248Y-88394767D01*
X143883453Y-88537668D01*
X143878917Y-88608520D01*
X143849631Y-88654464D01*
X139174500Y-93329595D01*
X139112188Y-93363621D01*
X139085405Y-93366500D01*
X136078767Y-93366500D01*
X136067584Y-93365973D01*
X136060091Y-93364298D01*
X136052165Y-93364547D01*
X136052164Y-93364547D01*
X135992001Y-93366438D01*
X135988043Y-93366500D01*
X135960144Y-93366500D01*
X135956154Y-93367004D01*
X135944320Y-93367936D01*
X135900111Y-93369326D01*
X135892497Y-93371538D01*
X135892492Y-93371539D01*
X135880659Y-93374977D01*
X135861296Y-93378988D01*
X135841203Y-93381526D01*
X135833836Y-93384443D01*
X135833831Y-93384444D01*
X135800092Y-93397802D01*
X135788865Y-93401646D01*
X135746407Y-93413982D01*
X135739581Y-93418019D01*
X135728972Y-93424293D01*
X135711224Y-93432988D01*
X135692383Y-93440448D01*
X135685967Y-93445110D01*
X135685966Y-93445110D01*
X135656613Y-93466436D01*
X135646693Y-93472952D01*
X135615465Y-93491420D01*
X135615462Y-93491422D01*
X135608638Y-93495458D01*
X135594317Y-93509779D01*
X135579284Y-93522619D01*
X135562893Y-93534528D01*
X135557842Y-93540634D01*
X135534702Y-93568605D01*
X135526712Y-93577384D01*
X131113248Y-97990848D01*
X131050936Y-98024874D01*
X130991541Y-98023459D01*
X130933409Y-98007882D01*
X130933398Y-98007880D01*
X130928087Y-98006457D01*
X130700000Y-97986502D01*
X130471913Y-98006457D01*
X130466602Y-98007880D01*
X130466591Y-98007882D01*
X130408459Y-98023459D01*
X130337483Y-98021770D01*
X130286752Y-97990848D01*
X127445405Y-95149500D01*
X127411379Y-95087188D01*
X127408500Y-95060405D01*
X127408500Y-94400000D01*
X129466835Y-94400000D01*
X129485465Y-94636711D01*
X129486619Y-94641518D01*
X129486620Y-94641524D01*
X129521382Y-94786318D01*
X129540895Y-94867594D01*
X129542788Y-94872165D01*
X129542789Y-94872167D01*
X129601240Y-95013280D01*
X129631760Y-95086963D01*
X129634346Y-95091183D01*
X129753241Y-95285202D01*
X129753245Y-95285208D01*
X129755824Y-95289416D01*
X129910031Y-95469969D01*
X130090584Y-95624176D01*
X130094792Y-95626755D01*
X130094798Y-95626759D01*
X130288817Y-95745654D01*
X130293037Y-95748240D01*
X130297607Y-95750133D01*
X130297611Y-95750135D01*
X130507833Y-95837211D01*
X130512406Y-95839105D01*
X130560349Y-95850615D01*
X130738476Y-95893380D01*
X130738482Y-95893381D01*
X130743289Y-95894535D01*
X130980000Y-95913165D01*
X131216711Y-95894535D01*
X131221518Y-95893381D01*
X131221524Y-95893380D01*
X131399651Y-95850615D01*
X131447594Y-95839105D01*
X131452167Y-95837211D01*
X131662389Y-95750135D01*
X131662393Y-95750133D01*
X131666963Y-95748240D01*
X131671183Y-95745654D01*
X131865202Y-95626759D01*
X131865208Y-95626755D01*
X131869416Y-95624176D01*
X132049969Y-95469969D01*
X132204176Y-95289416D01*
X132206755Y-95285208D01*
X132206759Y-95285202D01*
X132325654Y-95091183D01*
X132328240Y-95086963D01*
X132358761Y-95013280D01*
X132417211Y-94872167D01*
X132417212Y-94872165D01*
X132419105Y-94867594D01*
X132438618Y-94786318D01*
X132473380Y-94641524D01*
X132473381Y-94641518D01*
X132474535Y-94636711D01*
X132493165Y-94400000D01*
X132474535Y-94163289D01*
X132419105Y-93932406D01*
X132328240Y-93713037D01*
X132283789Y-93640500D01*
X132206759Y-93514798D01*
X132206755Y-93514792D01*
X132204176Y-93510584D01*
X132049969Y-93330031D01*
X131869416Y-93175824D01*
X131865208Y-93173245D01*
X131865202Y-93173241D01*
X131671183Y-93054346D01*
X131666963Y-93051760D01*
X131662393Y-93049867D01*
X131662389Y-93049865D01*
X131452167Y-92962789D01*
X131452165Y-92962788D01*
X131447594Y-92960895D01*
X131367391Y-92941640D01*
X131221524Y-92906620D01*
X131221518Y-92906619D01*
X131216711Y-92905465D01*
X130980000Y-92886835D01*
X130743289Y-92905465D01*
X130738482Y-92906619D01*
X130738476Y-92906620D01*
X130592609Y-92941640D01*
X130512406Y-92960895D01*
X130507835Y-92962788D01*
X130507833Y-92962789D01*
X130297611Y-93049865D01*
X130297607Y-93049867D01*
X130293037Y-93051760D01*
X130288817Y-93054346D01*
X130094798Y-93173241D01*
X130094792Y-93173245D01*
X130090584Y-93175824D01*
X129910031Y-93330031D01*
X129755824Y-93510584D01*
X129753245Y-93514792D01*
X129753241Y-93514798D01*
X129676211Y-93640500D01*
X129631760Y-93713037D01*
X129540895Y-93932406D01*
X129485465Y-94163289D01*
X129466835Y-94400000D01*
X127408500Y-94400000D01*
X127408500Y-93351866D01*
X127401745Y-93289684D01*
X127350615Y-93153295D01*
X127263261Y-93036739D01*
X127146705Y-92949385D01*
X127010316Y-92898255D01*
X126948134Y-92891500D01*
X124851866Y-92891500D01*
X124789684Y-92898255D01*
X124653295Y-92949385D01*
X124536739Y-93036739D01*
X124449385Y-93153295D01*
X124398255Y-93289684D01*
X124391500Y-93351866D01*
X124391500Y-93640500D01*
X124371498Y-93708621D01*
X124317842Y-93755114D01*
X124265500Y-93766500D01*
X123275266Y-93766500D01*
X123207145Y-93746498D01*
X123161071Y-93693750D01*
X123139849Y-93648238D01*
X123139846Y-93648233D01*
X123137523Y-93643251D01*
X123034037Y-93495458D01*
X123009357Y-93460211D01*
X123009355Y-93460208D01*
X123006198Y-93455700D01*
X122844300Y-93293802D01*
X122839792Y-93290645D01*
X122839789Y-93290643D01*
X122675810Y-93175824D01*
X122656749Y-93162477D01*
X122651767Y-93160154D01*
X122651762Y-93160151D01*
X122454225Y-93068039D01*
X122454224Y-93068039D01*
X122449243Y-93065716D01*
X122443935Y-93064294D01*
X122443933Y-93064293D01*
X122233402Y-93007881D01*
X122233400Y-93007881D01*
X122228087Y-93006457D01*
X122000000Y-92986502D01*
X121771913Y-93006457D01*
X121766600Y-93007881D01*
X121766598Y-93007881D01*
X121556067Y-93064293D01*
X121556065Y-93064294D01*
X121550757Y-93065716D01*
X121545776Y-93068039D01*
X121545775Y-93068039D01*
X121348238Y-93160151D01*
X121348233Y-93160154D01*
X121343251Y-93162477D01*
X121324190Y-93175824D01*
X121160211Y-93290643D01*
X121160208Y-93290645D01*
X121155700Y-93293802D01*
X120993802Y-93455700D01*
X120990645Y-93460208D01*
X120990643Y-93460211D01*
X120965963Y-93495458D01*
X120862477Y-93643251D01*
X120860154Y-93648233D01*
X120860151Y-93648238D01*
X120805005Y-93766500D01*
X120765716Y-93850757D01*
X120706457Y-94071913D01*
X120686502Y-94300000D01*
X118313498Y-94300000D01*
X118293543Y-94071913D01*
X118234284Y-93850757D01*
X118194995Y-93766500D01*
X118139849Y-93648238D01*
X118139846Y-93648233D01*
X118137523Y-93643251D01*
X118034037Y-93495458D01*
X118009357Y-93460211D01*
X118009355Y-93460208D01*
X118006198Y-93455700D01*
X117844300Y-93293802D01*
X117839792Y-93290645D01*
X117839789Y-93290643D01*
X117675810Y-93175824D01*
X117656749Y-93162477D01*
X117651767Y-93160154D01*
X117651762Y-93160151D01*
X117454225Y-93068039D01*
X117454224Y-93068039D01*
X117449243Y-93065716D01*
X117443935Y-93064294D01*
X117443933Y-93064293D01*
X117233402Y-93007881D01*
X117233400Y-93007881D01*
X117228087Y-93006457D01*
X117000000Y-92986502D01*
X116771913Y-93006457D01*
X116766600Y-93007881D01*
X116766598Y-93007881D01*
X116556067Y-93064293D01*
X116556065Y-93064294D01*
X116550757Y-93065716D01*
X116545776Y-93068039D01*
X116545775Y-93068039D01*
X116348238Y-93160151D01*
X116348233Y-93160154D01*
X116343251Y-93162477D01*
X116324190Y-93175824D01*
X116160211Y-93290643D01*
X116160208Y-93290645D01*
X116155700Y-93293802D01*
X115993802Y-93455700D01*
X115990645Y-93460208D01*
X115990643Y-93460211D01*
X115883819Y-93612771D01*
X115828362Y-93657099D01*
X115780606Y-93666500D01*
X113314595Y-93666500D01*
X113246474Y-93646498D01*
X113225500Y-93629595D01*
X112786593Y-93190688D01*
X112752567Y-93128376D01*
X112757632Y-93057561D01*
X112800179Y-93000725D01*
X112866699Y-92975914D01*
X112894747Y-92977043D01*
X113077341Y-93004984D01*
X113085874Y-93005700D01*
X113351045Y-93009867D01*
X113359596Y-93009418D01*
X113622883Y-92977557D01*
X113631284Y-92975955D01*
X113887824Y-92908653D01*
X113895926Y-92905926D01*
X114140949Y-92804434D01*
X114148617Y-92800628D01*
X114377598Y-92666822D01*
X114384679Y-92662009D01*
X114464655Y-92599301D01*
X114473125Y-92587442D01*
X114466608Y-92575818D01*
X112891922Y-91001132D01*
X113614408Y-91001132D01*
X113614539Y-91002965D01*
X113618790Y-91009580D01*
X114825730Y-92216520D01*
X114837939Y-92223187D01*
X114849439Y-92214497D01*
X114946831Y-92081913D01*
X114951418Y-92074685D01*
X115077962Y-91841621D01*
X115081530Y-91833827D01*
X115175271Y-91585750D01*
X115177748Y-91577544D01*
X115236954Y-91319038D01*
X115238294Y-91310577D01*
X115262031Y-91044616D01*
X115262277Y-91039677D01*
X115262666Y-91002485D01*
X115262523Y-90997519D01*
X115244362Y-90731123D01*
X115243201Y-90722649D01*
X115189419Y-90462944D01*
X115187120Y-90454709D01*
X115098588Y-90204705D01*
X115095191Y-90196854D01*
X114973550Y-89961178D01*
X114969122Y-89953866D01*
X114850031Y-89784417D01*
X114839509Y-89776037D01*
X114826121Y-89783089D01*
X113622022Y-90987188D01*
X113614408Y-91001132D01*
X112891922Y-91001132D01*
X111673814Y-89783024D01*
X111661804Y-89776466D01*
X111650064Y-89785434D01*
X111541935Y-89935911D01*
X111537418Y-89943196D01*
X111413325Y-90177567D01*
X111409839Y-90185395D01*
X111318700Y-90434446D01*
X111316311Y-90442670D01*
X111259812Y-90701795D01*
X111258563Y-90710250D01*
X111237754Y-90974653D01*
X111237665Y-90983204D01*
X111252932Y-91247969D01*
X111254005Y-91256470D01*
X111272443Y-91350447D01*
X111265930Y-91421145D01*
X111222229Y-91477098D01*
X111155215Y-91500542D01*
X111086164Y-91484033D01*
X111059705Y-91463800D01*
X109788423Y-90192518D01*
X109754397Y-90130206D01*
X109759462Y-90059391D01*
X109762636Y-90051673D01*
X109778720Y-90015967D01*
X109780641Y-90011703D01*
X109844456Y-89785434D01*
X109851326Y-89761074D01*
X109851327Y-89761071D01*
X109852596Y-89756570D01*
X109871818Y-89605475D01*
X109885652Y-89496733D01*
X109885652Y-89496729D01*
X109886050Y-89493603D01*
X109888174Y-89412500D01*
X112026584Y-89412500D01*
X112032980Y-89423770D01*
X113237188Y-90627978D01*
X113251132Y-90635592D01*
X113252965Y-90635461D01*
X113259580Y-90631210D01*
X114466604Y-89424186D01*
X114473795Y-89411017D01*
X114466473Y-89400780D01*
X114419233Y-89362115D01*
X114412261Y-89357160D01*
X114186122Y-89218582D01*
X114178552Y-89214624D01*
X113935704Y-89108022D01*
X113927644Y-89105120D01*
X113672592Y-89032467D01*
X113664214Y-89030685D01*
X113401656Y-88993318D01*
X113393111Y-88992691D01*
X113127908Y-88991302D01*
X113119374Y-88991839D01*
X112856433Y-89026456D01*
X112848035Y-89028149D01*
X112592238Y-89098127D01*
X112584143Y-89100946D01*
X112340199Y-89204997D01*
X112332577Y-89208881D01*
X112105013Y-89345075D01*
X112097981Y-89349962D01*
X112035053Y-89400377D01*
X112026584Y-89412500D01*
X109888174Y-89412500D01*
X109888501Y-89400000D01*
X109885369Y-89357855D01*
X109869202Y-89140295D01*
X109869201Y-89140291D01*
X109868856Y-89135643D01*
X109810352Y-88877093D01*
X109795392Y-88838622D01*
X109715968Y-88634383D01*
X109715967Y-88634380D01*
X109714275Y-88630030D01*
X109700188Y-88605382D01*
X109635969Y-88493023D01*
X109582735Y-88399883D01*
X109418621Y-88191706D01*
X109225540Y-88010074D01*
X109007733Y-87858975D01*
X109003543Y-87856909D01*
X109003540Y-87856907D01*
X108774172Y-87743796D01*
X108774169Y-87743795D01*
X108769984Y-87741731D01*
X108746761Y-87734297D01*
X108521962Y-87662338D01*
X108521964Y-87662338D01*
X108517517Y-87660915D01*
X108367564Y-87636494D01*
X108260490Y-87619056D01*
X108260489Y-87619056D01*
X108255878Y-87618305D01*
X108123346Y-87616570D01*
X107995492Y-87614896D01*
X107995489Y-87614896D01*
X107990815Y-87614835D01*
X107728150Y-87650582D01*
X107723660Y-87651891D01*
X107723654Y-87651892D01*
X107615430Y-87683437D01*
X107473654Y-87724761D01*
X107469407Y-87726719D01*
X107469404Y-87726720D01*
X107439930Y-87740308D01*
X107232918Y-87835742D01*
X107229009Y-87838305D01*
X107015143Y-87978521D01*
X107015138Y-87978525D01*
X107011230Y-87981087D01*
X106813460Y-88157603D01*
X106643954Y-88361412D01*
X106506434Y-88588038D01*
X106504625Y-88592352D01*
X106504624Y-88592354D01*
X106458725Y-88701811D01*
X106403922Y-88832500D01*
X106402771Y-88837032D01*
X106402770Y-88837035D01*
X106340179Y-89083489D01*
X106338670Y-89089430D01*
X106312112Y-89353183D01*
X104105771Y-89353183D01*
X103886122Y-89218582D01*
X103878552Y-89214624D01*
X103635704Y-89108022D01*
X103627644Y-89105120D01*
X103372592Y-89032467D01*
X103364214Y-89030685D01*
X103101656Y-88993318D01*
X103093111Y-88992691D01*
X102827908Y-88991302D01*
X102819374Y-88991839D01*
X102556433Y-89026456D01*
X102548035Y-89028149D01*
X102292238Y-89098127D01*
X102284143Y-89100946D01*
X102040199Y-89204997D01*
X102032577Y-89208881D01*
X101805013Y-89345075D01*
X101797981Y-89349962D01*
X101735053Y-89400377D01*
X101726584Y-89412500D01*
X100508500Y-89412500D01*
X100508500Y-64939654D01*
X101625618Y-64939654D01*
X101632673Y-64949627D01*
X101663679Y-64975551D01*
X101670598Y-64980579D01*
X101895272Y-65121515D01*
X101902807Y-65125556D01*
X102144520Y-65234694D01*
X102152551Y-65237680D01*
X102406832Y-65313002D01*
X102415184Y-65314869D01*
X102677340Y-65354984D01*
X102685874Y-65355700D01*
X102951045Y-65359867D01*
X102959596Y-65359418D01*
X103222883Y-65327557D01*
X103231284Y-65325955D01*
X103487824Y-65258653D01*
X103495926Y-65255926D01*
X103740949Y-65154434D01*
X103748617Y-65150628D01*
X103977598Y-65016822D01*
X103984679Y-65012009D01*
X104064655Y-64949301D01*
X104071545Y-64939654D01*
X111925618Y-64939654D01*
X111932673Y-64949627D01*
X111963679Y-64975551D01*
X111970598Y-64980579D01*
X112195272Y-65121515D01*
X112202807Y-65125556D01*
X112444520Y-65234694D01*
X112452551Y-65237680D01*
X112706832Y-65313002D01*
X112715184Y-65314869D01*
X112977340Y-65354984D01*
X112985874Y-65355700D01*
X113251045Y-65359867D01*
X113259596Y-65359418D01*
X113522883Y-65327557D01*
X113531284Y-65325955D01*
X113787824Y-65258653D01*
X113795926Y-65255926D01*
X114040949Y-65154434D01*
X114048617Y-65150628D01*
X114277598Y-65016822D01*
X114284679Y-65012009D01*
X114364655Y-64949301D01*
X114373125Y-64937442D01*
X114366608Y-64925818D01*
X113162812Y-63722022D01*
X113148868Y-63714408D01*
X113147035Y-63714539D01*
X113140420Y-63718790D01*
X111932910Y-64926300D01*
X111925618Y-64939654D01*
X104071545Y-64939654D01*
X104073125Y-64937442D01*
X104066608Y-64925818D01*
X102862812Y-63722022D01*
X102848868Y-63714408D01*
X102847035Y-63714539D01*
X102840420Y-63718790D01*
X101632910Y-64926300D01*
X101625618Y-64939654D01*
X100508500Y-64939654D01*
X100508500Y-63333204D01*
X100837665Y-63333204D01*
X100852932Y-63597969D01*
X100854005Y-63606470D01*
X100905065Y-63866722D01*
X100907276Y-63874974D01*
X100993184Y-64125894D01*
X100996499Y-64133779D01*
X101115664Y-64370713D01*
X101120020Y-64378079D01*
X101249347Y-64566250D01*
X101259601Y-64574594D01*
X101273342Y-64567448D01*
X102477978Y-63362812D01*
X102484356Y-63351132D01*
X103214408Y-63351132D01*
X103214539Y-63352965D01*
X103218790Y-63359580D01*
X104425730Y-64566520D01*
X104437939Y-64573187D01*
X104449439Y-64564497D01*
X104546831Y-64431913D01*
X104551418Y-64424685D01*
X104677962Y-64191621D01*
X104681530Y-64183827D01*
X104775271Y-63935750D01*
X104777748Y-63927544D01*
X104836954Y-63669038D01*
X104838294Y-63660577D01*
X104862031Y-63394616D01*
X104862277Y-63389677D01*
X104862666Y-63352485D01*
X104862523Y-63347519D01*
X104844362Y-63081123D01*
X104843201Y-63072649D01*
X104789419Y-62812944D01*
X104787120Y-62804709D01*
X104698588Y-62554705D01*
X104695191Y-62546854D01*
X104573550Y-62311178D01*
X104569122Y-62303866D01*
X104450031Y-62134417D01*
X104439509Y-62126037D01*
X104426121Y-62133089D01*
X103222022Y-63337188D01*
X103214408Y-63351132D01*
X102484356Y-63351132D01*
X102485592Y-63348868D01*
X102485461Y-63347035D01*
X102481210Y-63340420D01*
X101273814Y-62133024D01*
X101261804Y-62126466D01*
X101250064Y-62135434D01*
X101141935Y-62285911D01*
X101137418Y-62293196D01*
X101013325Y-62527567D01*
X101009839Y-62535395D01*
X100918700Y-62784446D01*
X100916311Y-62792670D01*
X100859812Y-63051795D01*
X100858563Y-63060250D01*
X100837754Y-63324653D01*
X100837665Y-63333204D01*
X100508500Y-63333204D01*
X100508500Y-61762500D01*
X101626584Y-61762500D01*
X101632980Y-61773770D01*
X102837188Y-62977978D01*
X102851132Y-62985592D01*
X102852965Y-62985461D01*
X102859580Y-62981210D01*
X104066604Y-61774186D01*
X104073795Y-61761017D01*
X104066473Y-61750780D01*
X104019233Y-61712115D01*
X104012261Y-61707160D01*
X104005771Y-61703183D01*
X106212112Y-61703183D01*
X106212336Y-61707850D01*
X106212336Y-61707855D01*
X106214890Y-61761017D01*
X106224830Y-61967963D01*
X106230877Y-61998364D01*
X106257339Y-62131394D01*
X106276546Y-62227956D01*
X106278125Y-62232354D01*
X106278127Y-62232361D01*
X106364540Y-62473040D01*
X106366123Y-62477449D01*
X106491594Y-62710961D01*
X106650201Y-62923362D01*
X106653510Y-62926642D01*
X106653515Y-62926648D01*
X106809345Y-63081123D01*
X106838462Y-63109987D01*
X106842224Y-63112745D01*
X106842227Y-63112748D01*
X106979633Y-63213498D01*
X107052239Y-63266735D01*
X107056382Y-63268915D01*
X107056384Y-63268916D01*
X107282687Y-63387980D01*
X107282692Y-63387982D01*
X107286837Y-63390163D01*
X107291260Y-63391708D01*
X107291261Y-63391708D01*
X107435998Y-63442252D01*
X107537102Y-63477559D01*
X107541695Y-63478431D01*
X107792947Y-63526133D01*
X107792950Y-63526133D01*
X107797536Y-63527004D01*
X107923411Y-63531950D01*
X108057750Y-63537228D01*
X108057755Y-63537228D01*
X108062418Y-63537411D01*
X108165397Y-63526133D01*
X108321275Y-63509062D01*
X108321280Y-63509061D01*
X108325928Y-63508552D01*
X108449506Y-63476017D01*
X108577756Y-63442252D01*
X108577759Y-63442251D01*
X108582279Y-63441061D01*
X108690383Y-63394616D01*
X108821544Y-63338265D01*
X108821546Y-63338264D01*
X108825838Y-63336420D01*
X108831035Y-63333204D01*
X111137665Y-63333204D01*
X111152932Y-63597969D01*
X111154005Y-63606470D01*
X111205065Y-63866722D01*
X111207276Y-63874974D01*
X111293184Y-64125894D01*
X111296499Y-64133779D01*
X111415664Y-64370713D01*
X111420020Y-64378079D01*
X111549347Y-64566250D01*
X111559601Y-64574594D01*
X111573342Y-64567448D01*
X112777978Y-63362812D01*
X112784356Y-63351132D01*
X113514408Y-63351132D01*
X113514539Y-63352965D01*
X113518790Y-63359580D01*
X114725730Y-64566520D01*
X114737939Y-64573187D01*
X114749439Y-64564497D01*
X114846831Y-64431913D01*
X114851418Y-64424685D01*
X114977962Y-64191621D01*
X114981530Y-64183827D01*
X115075271Y-63935750D01*
X115077748Y-63927544D01*
X115136954Y-63669038D01*
X115138294Y-63660577D01*
X115162031Y-63394616D01*
X115162277Y-63389677D01*
X115162666Y-63352485D01*
X115162523Y-63347519D01*
X115144362Y-63081123D01*
X115143201Y-63072649D01*
X115089419Y-62812944D01*
X115087120Y-62804709D01*
X114998588Y-62554705D01*
X114995191Y-62546854D01*
X114873550Y-62311178D01*
X114869122Y-62303866D01*
X114750031Y-62134417D01*
X114739509Y-62126037D01*
X114726121Y-62133089D01*
X113522022Y-63337188D01*
X113514408Y-63351132D01*
X112784356Y-63351132D01*
X112785592Y-63348868D01*
X112785461Y-63347035D01*
X112781210Y-63340420D01*
X111573814Y-62133024D01*
X111561804Y-62126466D01*
X111550064Y-62135434D01*
X111441935Y-62285911D01*
X111437418Y-62293196D01*
X111313325Y-62527567D01*
X111309839Y-62535395D01*
X111218700Y-62784446D01*
X111216311Y-62792670D01*
X111159812Y-63051795D01*
X111158563Y-63060250D01*
X111137754Y-63324653D01*
X111137665Y-63333204D01*
X108831035Y-63333204D01*
X108925458Y-63274773D01*
X109047282Y-63199387D01*
X109047286Y-63199384D01*
X109051255Y-63196928D01*
X109253577Y-63025649D01*
X109295383Y-62977978D01*
X109425278Y-62829862D01*
X109425281Y-62829857D01*
X109428360Y-62826347D01*
X109571765Y-62603399D01*
X109680641Y-62361703D01*
X109736676Y-62163019D01*
X109751326Y-62111074D01*
X109751327Y-62111071D01*
X109752596Y-62106570D01*
X109767741Y-61987523D01*
X109785652Y-61846733D01*
X109785652Y-61846729D01*
X109786050Y-61843603D01*
X109788174Y-61762500D01*
X111926584Y-61762500D01*
X111932980Y-61773770D01*
X113137188Y-62977978D01*
X113151132Y-62985592D01*
X113152965Y-62985461D01*
X113159580Y-62981210D01*
X114366604Y-61774186D01*
X114373795Y-61761017D01*
X114366473Y-61750780D01*
X114319233Y-61712115D01*
X114312261Y-61707160D01*
X114086122Y-61568582D01*
X114078552Y-61564624D01*
X113835704Y-61458022D01*
X113827644Y-61455120D01*
X113572592Y-61382467D01*
X113564214Y-61380685D01*
X113301656Y-61343318D01*
X113293111Y-61342691D01*
X113027908Y-61341302D01*
X113019374Y-61341839D01*
X112756433Y-61376456D01*
X112748035Y-61378149D01*
X112492238Y-61448127D01*
X112484143Y-61450946D01*
X112240199Y-61554997D01*
X112232577Y-61558881D01*
X112005013Y-61695075D01*
X111997981Y-61699962D01*
X111935053Y-61750377D01*
X111926584Y-61762500D01*
X109788174Y-61762500D01*
X109788501Y-61750000D01*
X109785369Y-61707855D01*
X109769202Y-61490295D01*
X109769201Y-61490291D01*
X109768856Y-61485643D01*
X109710352Y-61227093D01*
X109667353Y-61116522D01*
X115737273Y-61116522D01*
X115784764Y-61293761D01*
X115788510Y-61304053D01*
X115880586Y-61501511D01*
X115886069Y-61511007D01*
X116011028Y-61689467D01*
X116018084Y-61697875D01*
X116172125Y-61851916D01*
X116180533Y-61858972D01*
X116358993Y-61983931D01*
X116368489Y-61989414D01*
X116565947Y-62081490D01*
X116576239Y-62085236D01*
X116748503Y-62131394D01*
X116762599Y-62131058D01*
X116766000Y-62123116D01*
X116766000Y-62117967D01*
X117274000Y-62117967D01*
X117277973Y-62131498D01*
X117286522Y-62132727D01*
X117463761Y-62085236D01*
X117474053Y-62081490D01*
X117671511Y-61989414D01*
X117681007Y-61983931D01*
X117859467Y-61858972D01*
X117867875Y-61851916D01*
X118021916Y-61697875D01*
X118028972Y-61689467D01*
X118153931Y-61511007D01*
X118159414Y-61501511D01*
X118251490Y-61304053D01*
X118255236Y-61293761D01*
X118301394Y-61121497D01*
X118301058Y-61107401D01*
X118293116Y-61104000D01*
X117292115Y-61104000D01*
X117276876Y-61108475D01*
X117275671Y-61109865D01*
X117274000Y-61117548D01*
X117274000Y-62117967D01*
X116766000Y-62117967D01*
X116766000Y-61122115D01*
X116761525Y-61106876D01*
X116760135Y-61105671D01*
X116752452Y-61104000D01*
X115752033Y-61104000D01*
X115738502Y-61107973D01*
X115737273Y-61116522D01*
X109667353Y-61116522D01*
X109658520Y-61093807D01*
X109652472Y-61023070D01*
X109686858Y-60959046D01*
X110067401Y-60578503D01*
X115738606Y-60578503D01*
X115738942Y-60592599D01*
X115746884Y-60596000D01*
X116747885Y-60596000D01*
X116763124Y-60591525D01*
X116764329Y-60590135D01*
X116766000Y-60582452D01*
X116766000Y-60577885D01*
X117274000Y-60577885D01*
X117278475Y-60593124D01*
X117279865Y-60594329D01*
X117287548Y-60596000D01*
X118287967Y-60596000D01*
X118301498Y-60592027D01*
X118302727Y-60583478D01*
X118255236Y-60406239D01*
X118251490Y-60395947D01*
X118159414Y-60198489D01*
X118153931Y-60188993D01*
X118028972Y-60010533D01*
X118021916Y-60002125D01*
X117867875Y-59848084D01*
X117859467Y-59841028D01*
X117681007Y-59716069D01*
X117671511Y-59710586D01*
X117474053Y-59618510D01*
X117463761Y-59614764D01*
X117291497Y-59568606D01*
X117277401Y-59568942D01*
X117274000Y-59576884D01*
X117274000Y-60577885D01*
X116766000Y-60577885D01*
X116766000Y-59582033D01*
X116762027Y-59568502D01*
X116753478Y-59567273D01*
X116576239Y-59614764D01*
X116565947Y-59618510D01*
X116368489Y-59710586D01*
X116358993Y-59716069D01*
X116180533Y-59841028D01*
X116172125Y-59848084D01*
X116018084Y-60002125D01*
X116011028Y-60010533D01*
X115886069Y-60188993D01*
X115880586Y-60198489D01*
X115788510Y-60395947D01*
X115784764Y-60406239D01*
X115738606Y-60578503D01*
X110067401Y-60578503D01*
X114225499Y-56420405D01*
X114287811Y-56386379D01*
X114314594Y-56383500D01*
X116280606Y-56383500D01*
X116348727Y-56403502D01*
X116383819Y-56437229D01*
X116490643Y-56589789D01*
X116493802Y-56594300D01*
X116655700Y-56756198D01*
X116660208Y-56759355D01*
X116660211Y-56759357D01*
X116719991Y-56801215D01*
X116843251Y-56887523D01*
X116848233Y-56889846D01*
X116848238Y-56889849D01*
X117022194Y-56970965D01*
X117050757Y-56984284D01*
X117056065Y-56985706D01*
X117056067Y-56985707D01*
X117097112Y-56996705D01*
X117271913Y-57043543D01*
X117364008Y-57051600D01*
X117430127Y-57077463D01*
X117442122Y-57088026D01*
X120790848Y-60436752D01*
X120824874Y-60499064D01*
X120823459Y-60558459D01*
X120807882Y-60616591D01*
X120807881Y-60616598D01*
X120806457Y-60621913D01*
X120786502Y-60850000D01*
X120806457Y-61078087D01*
X120807881Y-61083400D01*
X120807881Y-61083402D01*
X120845217Y-61222739D01*
X120865716Y-61299243D01*
X120868039Y-61304224D01*
X120868039Y-61304225D01*
X120960151Y-61501762D01*
X120960154Y-61501767D01*
X120962477Y-61506749D01*
X121003002Y-61564624D01*
X121081964Y-61677393D01*
X121093802Y-61694300D01*
X121255700Y-61856198D01*
X121260208Y-61859355D01*
X121260211Y-61859357D01*
X121326075Y-61905475D01*
X121443251Y-61987523D01*
X121448233Y-61989846D01*
X121448238Y-61989849D01*
X121618825Y-62069394D01*
X121650757Y-62084284D01*
X121656065Y-62085706D01*
X121656067Y-62085707D01*
X121866598Y-62142119D01*
X121866600Y-62142119D01*
X121871913Y-62143543D01*
X122100000Y-62163498D01*
X122328087Y-62143543D01*
X122333400Y-62142119D01*
X122333402Y-62142119D01*
X122543933Y-62085707D01*
X122543935Y-62085706D01*
X122549243Y-62084284D01*
X122581175Y-62069394D01*
X122751762Y-61989849D01*
X122751767Y-61989846D01*
X122756749Y-61987523D01*
X122873925Y-61905475D01*
X122939789Y-61859357D01*
X122939792Y-61859355D01*
X122944300Y-61856198D01*
X123106198Y-61694300D01*
X123118037Y-61677393D01*
X123196998Y-61564624D01*
X123237523Y-61506749D01*
X123239846Y-61501767D01*
X123239849Y-61501762D01*
X123331961Y-61304225D01*
X123331961Y-61304224D01*
X123334284Y-61299243D01*
X123354784Y-61222739D01*
X123383245Y-61116522D01*
X124737273Y-61116522D01*
X124784764Y-61293761D01*
X124788510Y-61304053D01*
X124880586Y-61501511D01*
X124886069Y-61511007D01*
X125011028Y-61689467D01*
X125018084Y-61697875D01*
X125172125Y-61851916D01*
X125180533Y-61858972D01*
X125358993Y-61983931D01*
X125368489Y-61989414D01*
X125565947Y-62081490D01*
X125576239Y-62085236D01*
X125748503Y-62131394D01*
X125762599Y-62131058D01*
X125766000Y-62123116D01*
X125766000Y-62117967D01*
X126274000Y-62117967D01*
X126277973Y-62131498D01*
X126286522Y-62132727D01*
X126463761Y-62085236D01*
X126474053Y-62081490D01*
X126671511Y-61989414D01*
X126681007Y-61983931D01*
X126859467Y-61858972D01*
X126867875Y-61851916D01*
X127021916Y-61697875D01*
X127028972Y-61689467D01*
X127153931Y-61511007D01*
X127159414Y-61501511D01*
X127251490Y-61304053D01*
X127255236Y-61293761D01*
X127301394Y-61121497D01*
X127301058Y-61107401D01*
X127293116Y-61104000D01*
X126292115Y-61104000D01*
X126276876Y-61108475D01*
X126275671Y-61109865D01*
X126274000Y-61117548D01*
X126274000Y-62117967D01*
X125766000Y-62117967D01*
X125766000Y-61122115D01*
X125761525Y-61106876D01*
X125760135Y-61105671D01*
X125752452Y-61104000D01*
X124752033Y-61104000D01*
X124738502Y-61107973D01*
X124737273Y-61116522D01*
X123383245Y-61116522D01*
X123392119Y-61083402D01*
X123392119Y-61083400D01*
X123393543Y-61078087D01*
X123413498Y-60850000D01*
X123393543Y-60621913D01*
X123383244Y-60583478D01*
X123381911Y-60578503D01*
X124738606Y-60578503D01*
X124738942Y-60592599D01*
X124746884Y-60596000D01*
X125747885Y-60596000D01*
X125763124Y-60591525D01*
X125764329Y-60590135D01*
X125766000Y-60582452D01*
X125766000Y-60577885D01*
X126274000Y-60577885D01*
X126278475Y-60593124D01*
X126279865Y-60594329D01*
X126287548Y-60596000D01*
X127287967Y-60596000D01*
X127301498Y-60592027D01*
X127302727Y-60583478D01*
X127255236Y-60406239D01*
X127251490Y-60395947D01*
X127159414Y-60198489D01*
X127153931Y-60188993D01*
X127028972Y-60010533D01*
X127021916Y-60002125D01*
X126867875Y-59848084D01*
X126859467Y-59841028D01*
X126681007Y-59716069D01*
X126671511Y-59710586D01*
X126474053Y-59618510D01*
X126463761Y-59614764D01*
X126291497Y-59568606D01*
X126277401Y-59568942D01*
X126274000Y-59576884D01*
X126274000Y-60577885D01*
X125766000Y-60577885D01*
X125766000Y-59582033D01*
X125762027Y-59568502D01*
X125753478Y-59567273D01*
X125576239Y-59614764D01*
X125565947Y-59618510D01*
X125368489Y-59710586D01*
X125358993Y-59716069D01*
X125180533Y-59841028D01*
X125172125Y-59848084D01*
X125018084Y-60002125D01*
X125011028Y-60010533D01*
X124886069Y-60188993D01*
X124880586Y-60198489D01*
X124788510Y-60395947D01*
X124784764Y-60406239D01*
X124738606Y-60578503D01*
X123381911Y-60578503D01*
X123335707Y-60406067D01*
X123335706Y-60406065D01*
X123334284Y-60400757D01*
X123239966Y-60198489D01*
X123239849Y-60198238D01*
X123239846Y-60198233D01*
X123237523Y-60193251D01*
X123110846Y-60012338D01*
X123109357Y-60010211D01*
X123109355Y-60010208D01*
X123106198Y-60005700D01*
X122944300Y-59843802D01*
X122939792Y-59840645D01*
X122939789Y-59840643D01*
X122822476Y-59758500D01*
X122756749Y-59712477D01*
X122751767Y-59710154D01*
X122751762Y-59710151D01*
X122554225Y-59618039D01*
X122554224Y-59618039D01*
X122549243Y-59615716D01*
X122543935Y-59614294D01*
X122543933Y-59614293D01*
X122333402Y-59557881D01*
X122333400Y-59557881D01*
X122328087Y-59556457D01*
X122100000Y-59536502D01*
X121871913Y-59556457D01*
X121808458Y-59573460D01*
X121737482Y-59571770D01*
X121686753Y-59540848D01*
X118672919Y-56527014D01*
X118638893Y-56464702D01*
X118643958Y-56393887D01*
X118647819Y-56384669D01*
X118731961Y-56204225D01*
X118731961Y-56204224D01*
X118734284Y-56199243D01*
X118736175Y-56192188D01*
X118792119Y-55983402D01*
X118792119Y-55983400D01*
X118793543Y-55978087D01*
X118813498Y-55750000D01*
X118793543Y-55521913D01*
X118785472Y-55491791D01*
X118735707Y-55306067D01*
X118735706Y-55306065D01*
X118734284Y-55300757D01*
X118724544Y-55279870D01*
X118639849Y-55098238D01*
X118639846Y-55098233D01*
X118637523Y-55093251D01*
X118506198Y-54905700D01*
X118344300Y-54743802D01*
X118339792Y-54740645D01*
X118339789Y-54740643D01*
X118206824Y-54647540D01*
X118156749Y-54612477D01*
X118151767Y-54610154D01*
X118151762Y-54610151D01*
X117954225Y-54518039D01*
X117954224Y-54518039D01*
X117949243Y-54515716D01*
X117943935Y-54514294D01*
X117943933Y-54514293D01*
X117733402Y-54457881D01*
X117733400Y-54457881D01*
X117728087Y-54456457D01*
X117500000Y-54436502D01*
X117271913Y-54456457D01*
X117266600Y-54457881D01*
X117266598Y-54457881D01*
X117056067Y-54514293D01*
X117056065Y-54514294D01*
X117050757Y-54515716D01*
X117045776Y-54518039D01*
X117045775Y-54518039D01*
X116848238Y-54610151D01*
X116848233Y-54610154D01*
X116843251Y-54612477D01*
X116793176Y-54647540D01*
X116660211Y-54740643D01*
X116660208Y-54740645D01*
X116655700Y-54743802D01*
X116493802Y-54905700D01*
X116490645Y-54910208D01*
X116490643Y-54910211D01*
X116383819Y-55062771D01*
X116328362Y-55107099D01*
X116280606Y-55116500D01*
X114078763Y-55116500D01*
X114067579Y-55115973D01*
X114060091Y-55114299D01*
X114052168Y-55114548D01*
X113992033Y-55116438D01*
X113988075Y-55116500D01*
X113960144Y-55116500D01*
X113956229Y-55116995D01*
X113956225Y-55116995D01*
X113956167Y-55117003D01*
X113956138Y-55117006D01*
X113944296Y-55117939D01*
X113900110Y-55119327D01*
X113882744Y-55124372D01*
X113880658Y-55124978D01*
X113861306Y-55128986D01*
X113849068Y-55130532D01*
X113849066Y-55130533D01*
X113841203Y-55131526D01*
X113800086Y-55147806D01*
X113788885Y-55151641D01*
X113746406Y-55163982D01*
X113739587Y-55168015D01*
X113739582Y-55168017D01*
X113728971Y-55174293D01*
X113711221Y-55182990D01*
X113692383Y-55190448D01*
X113685967Y-55195109D01*
X113685966Y-55195110D01*
X113656625Y-55216428D01*
X113646701Y-55222947D01*
X113615460Y-55241422D01*
X113615455Y-55241426D01*
X113608637Y-55245458D01*
X113594313Y-55259782D01*
X113579281Y-55272621D01*
X113562893Y-55284528D01*
X113537626Y-55315071D01*
X113534712Y-55318593D01*
X113526722Y-55327373D01*
X108794295Y-60059800D01*
X108731983Y-60093826D01*
X108666787Y-60090707D01*
X108421962Y-60012338D01*
X108421964Y-60012338D01*
X108417517Y-60010915D01*
X108258894Y-59985082D01*
X108160490Y-59969056D01*
X108160489Y-59969056D01*
X108155878Y-59968305D01*
X108023347Y-59966570D01*
X107895492Y-59964896D01*
X107895489Y-59964896D01*
X107890815Y-59964835D01*
X107628150Y-60000582D01*
X107623660Y-60001891D01*
X107623654Y-60001892D01*
X107515430Y-60033437D01*
X107373654Y-60074761D01*
X107369407Y-60076719D01*
X107369404Y-60076720D01*
X107336843Y-60091731D01*
X107132918Y-60185742D01*
X107113476Y-60198489D01*
X106915143Y-60328521D01*
X106915138Y-60328525D01*
X106911230Y-60331087D01*
X106713460Y-60507603D01*
X106543954Y-60711412D01*
X106406434Y-60938038D01*
X106404625Y-60942352D01*
X106404624Y-60942354D01*
X106329244Y-61122115D01*
X106303922Y-61182500D01*
X106302771Y-61187032D01*
X106302770Y-61187035D01*
X106263079Y-61343318D01*
X106238670Y-61439430D01*
X106212112Y-61703183D01*
X104005771Y-61703183D01*
X103786122Y-61568582D01*
X103778552Y-61564624D01*
X103535704Y-61458022D01*
X103527644Y-61455120D01*
X103272592Y-61382467D01*
X103264214Y-61380685D01*
X103001656Y-61343318D01*
X102993111Y-61342691D01*
X102727908Y-61341302D01*
X102719374Y-61341839D01*
X102456433Y-61376456D01*
X102448035Y-61378149D01*
X102192238Y-61448127D01*
X102184143Y-61450946D01*
X101940199Y-61554997D01*
X101932577Y-61558881D01*
X101705013Y-61695075D01*
X101697981Y-61699962D01*
X101635053Y-61750377D01*
X101626584Y-61762500D01*
X100508500Y-61762500D01*
X100508500Y-54227885D01*
X142742000Y-54227885D01*
X142746475Y-54243124D01*
X142747865Y-54244329D01*
X142755548Y-54246000D01*
X144727885Y-54246000D01*
X144743124Y-54241525D01*
X144744329Y-54240135D01*
X144746000Y-54232452D01*
X144746000Y-54227885D01*
X145254000Y-54227885D01*
X145258475Y-54243124D01*
X145259865Y-54244329D01*
X145267548Y-54246000D01*
X147239884Y-54246000D01*
X147255123Y-54241525D01*
X147256328Y-54240135D01*
X147257999Y-54232452D01*
X147257999Y-53690039D01*
X147257791Y-53684929D01*
X147246918Y-53551233D01*
X147245148Y-53540680D01*
X147192033Y-53333815D01*
X147188299Y-53323269D01*
X147099490Y-53129295D01*
X147093954Y-53119588D01*
X146972197Y-52944403D01*
X146965024Y-52935824D01*
X146814176Y-52784976D01*
X146805597Y-52777803D01*
X146630412Y-52656046D01*
X146620705Y-52650510D01*
X146510383Y-52600000D01*
X150986502Y-52600000D01*
X151006457Y-52828087D01*
X151007881Y-52833400D01*
X151007881Y-52833402D01*
X151021588Y-52884555D01*
X151065716Y-53049243D01*
X151068039Y-53054224D01*
X151068039Y-53054225D01*
X151160151Y-53251762D01*
X151160154Y-53251767D01*
X151162477Y-53256749D01*
X151293802Y-53444300D01*
X151455700Y-53606198D01*
X151460208Y-53609355D01*
X151460211Y-53609357D01*
X151532773Y-53660165D01*
X151643251Y-53737523D01*
X151648233Y-53739846D01*
X151648238Y-53739849D01*
X151845775Y-53831961D01*
X151850757Y-53834284D01*
X151856065Y-53835706D01*
X151856067Y-53835707D01*
X152066598Y-53892119D01*
X152066600Y-53892119D01*
X152071913Y-53893543D01*
X152300000Y-53913498D01*
X152528087Y-53893543D01*
X152533400Y-53892119D01*
X152533402Y-53892119D01*
X152743933Y-53835707D01*
X152743935Y-53835706D01*
X152749243Y-53834284D01*
X152754225Y-53831961D01*
X152951762Y-53739849D01*
X152951767Y-53739846D01*
X152956749Y-53737523D01*
X153067227Y-53660165D01*
X153139789Y-53609357D01*
X153139792Y-53609355D01*
X153144300Y-53606198D01*
X153306198Y-53444300D01*
X153437523Y-53256749D01*
X153439846Y-53251767D01*
X153439849Y-53251762D01*
X153531961Y-53054225D01*
X153531961Y-53054224D01*
X153534284Y-53049243D01*
X153578413Y-52884555D01*
X153592119Y-52833402D01*
X153592119Y-52833400D01*
X153593543Y-52828087D01*
X153613498Y-52600000D01*
X156066502Y-52600000D01*
X156086457Y-52828087D01*
X156087881Y-52833400D01*
X156087881Y-52833402D01*
X156101588Y-52884555D01*
X156145716Y-53049243D01*
X156148039Y-53054224D01*
X156148039Y-53054225D01*
X156240151Y-53251762D01*
X156240154Y-53251767D01*
X156242477Y-53256749D01*
X156373802Y-53444300D01*
X156535700Y-53606198D01*
X156540208Y-53609355D01*
X156540211Y-53609357D01*
X156612773Y-53660165D01*
X156723251Y-53737523D01*
X156728233Y-53739846D01*
X156728238Y-53739849D01*
X156925775Y-53831961D01*
X156930757Y-53834284D01*
X156936065Y-53835706D01*
X156936067Y-53835707D01*
X157146598Y-53892119D01*
X157146600Y-53892119D01*
X157151913Y-53893543D01*
X157380000Y-53913498D01*
X157608087Y-53893543D01*
X157613400Y-53892119D01*
X157613402Y-53892119D01*
X157823933Y-53835707D01*
X157823935Y-53835706D01*
X157829243Y-53834284D01*
X157834225Y-53831961D01*
X158031762Y-53739849D01*
X158031767Y-53739846D01*
X158036749Y-53737523D01*
X158147227Y-53660165D01*
X158219789Y-53609357D01*
X158219792Y-53609355D01*
X158224300Y-53606198D01*
X158386198Y-53444300D01*
X158517523Y-53256749D01*
X158519846Y-53251767D01*
X158519849Y-53251762D01*
X158611961Y-53054225D01*
X158611961Y-53054224D01*
X158614284Y-53049243D01*
X158658413Y-52884555D01*
X158672119Y-52833402D01*
X158672119Y-52833400D01*
X158673543Y-52828087D01*
X158693498Y-52600000D01*
X158673543Y-52371913D01*
X158614284Y-52150757D01*
X158597320Y-52114377D01*
X158519849Y-51948238D01*
X158519846Y-51948233D01*
X158517523Y-51943251D01*
X158411051Y-51791193D01*
X158389357Y-51760211D01*
X158389355Y-51760208D01*
X158386198Y-51755700D01*
X158224300Y-51593802D01*
X158219792Y-51590645D01*
X158219789Y-51590643D01*
X158095231Y-51503427D01*
X158036749Y-51462477D01*
X158031767Y-51460154D01*
X158031762Y-51460151D01*
X157834225Y-51368039D01*
X157834224Y-51368039D01*
X157829243Y-51365716D01*
X157823935Y-51364294D01*
X157823933Y-51364293D01*
X157613402Y-51307881D01*
X157613400Y-51307881D01*
X157608087Y-51306457D01*
X157380000Y-51286502D01*
X157151913Y-51306457D01*
X157146600Y-51307881D01*
X157146598Y-51307881D01*
X156936067Y-51364293D01*
X156936065Y-51364294D01*
X156930757Y-51365716D01*
X156925776Y-51368039D01*
X156925775Y-51368039D01*
X156728238Y-51460151D01*
X156728233Y-51460154D01*
X156723251Y-51462477D01*
X156664769Y-51503427D01*
X156540211Y-51590643D01*
X156540208Y-51590645D01*
X156535700Y-51593802D01*
X156373802Y-51755700D01*
X156370645Y-51760208D01*
X156370643Y-51760211D01*
X156348949Y-51791193D01*
X156242477Y-51943251D01*
X156240154Y-51948233D01*
X156240151Y-51948238D01*
X156162680Y-52114377D01*
X156145716Y-52150757D01*
X156086457Y-52371913D01*
X156066502Y-52600000D01*
X153613498Y-52600000D01*
X153593543Y-52371913D01*
X153534284Y-52150757D01*
X153517320Y-52114377D01*
X153439849Y-51948238D01*
X153439846Y-51948233D01*
X153437523Y-51943251D01*
X153331051Y-51791193D01*
X153309357Y-51760211D01*
X153309355Y-51760208D01*
X153306198Y-51755700D01*
X153144300Y-51593802D01*
X153139792Y-51590645D01*
X153139789Y-51590643D01*
X153015231Y-51503427D01*
X152956749Y-51462477D01*
X152951767Y-51460154D01*
X152951762Y-51460151D01*
X152754225Y-51368039D01*
X152754224Y-51368039D01*
X152749243Y-51365716D01*
X152743935Y-51364294D01*
X152743933Y-51364293D01*
X152533402Y-51307881D01*
X152533400Y-51307881D01*
X152528087Y-51306457D01*
X152300000Y-51286502D01*
X152071913Y-51306457D01*
X152066600Y-51307881D01*
X152066598Y-51307881D01*
X151856067Y-51364293D01*
X151856065Y-51364294D01*
X151850757Y-51365716D01*
X151845776Y-51368039D01*
X151845775Y-51368039D01*
X151648238Y-51460151D01*
X151648233Y-51460154D01*
X151643251Y-51462477D01*
X151584769Y-51503427D01*
X151460211Y-51590643D01*
X151460208Y-51590645D01*
X151455700Y-51593802D01*
X151293802Y-51755700D01*
X151290645Y-51760208D01*
X151290643Y-51760211D01*
X151268949Y-51791193D01*
X151162477Y-51943251D01*
X151160154Y-51948233D01*
X151160151Y-51948238D01*
X151082680Y-52114377D01*
X151065716Y-52150757D01*
X151006457Y-52371913D01*
X150986502Y-52600000D01*
X146510383Y-52600000D01*
X146426731Y-52561701D01*
X146416185Y-52557967D01*
X146209321Y-52504853D01*
X146198766Y-52503082D01*
X146065070Y-52492207D01*
X146059964Y-52492000D01*
X145272115Y-52492000D01*
X145256876Y-52496475D01*
X145255671Y-52497865D01*
X145254000Y-52505548D01*
X145254000Y-54227885D01*
X144746000Y-54227885D01*
X144746000Y-52510116D01*
X144741525Y-52494877D01*
X144740135Y-52493672D01*
X144732452Y-52492001D01*
X143940039Y-52492001D01*
X143934929Y-52492209D01*
X143801233Y-52503082D01*
X143790680Y-52504852D01*
X143583815Y-52557967D01*
X143573269Y-52561701D01*
X143379295Y-52650510D01*
X143369588Y-52656046D01*
X143194403Y-52777803D01*
X143185824Y-52784976D01*
X143034976Y-52935824D01*
X143027803Y-52944403D01*
X142906046Y-53119588D01*
X142900510Y-53129295D01*
X142811701Y-53323269D01*
X142807967Y-53333815D01*
X142754853Y-53540679D01*
X142753082Y-53551234D01*
X142742207Y-53684930D01*
X142742000Y-53690036D01*
X142742000Y-54227885D01*
X100508500Y-54227885D01*
X100508500Y-53553250D01*
X100510246Y-53532345D01*
X100512770Y-53517344D01*
X100512770Y-53517341D01*
X100513576Y-53512552D01*
X100513729Y-53500000D01*
X100513039Y-53495180D01*
X100511644Y-53485437D01*
X100510545Y-53460983D01*
X100524542Y-53193902D01*
X100525920Y-53180785D01*
X100572838Y-52884555D01*
X100575580Y-52871655D01*
X100634835Y-52650510D01*
X100653207Y-52581948D01*
X100657281Y-52569409D01*
X100684745Y-52497865D01*
X100764763Y-52289412D01*
X100770126Y-52277365D01*
X100906289Y-52010130D01*
X100912883Y-51998709D01*
X100944537Y-51949966D01*
X101076236Y-51747168D01*
X101083984Y-51736505D01*
X101272727Y-51503427D01*
X101281552Y-51493626D01*
X101493626Y-51281552D01*
X101503427Y-51272727D01*
X101736505Y-51083984D01*
X101747168Y-51076236D01*
X101998714Y-50912880D01*
X102010130Y-50906289D01*
X102277365Y-50770126D01*
X102289413Y-50764762D01*
X102569414Y-50657279D01*
X102581948Y-50653207D01*
X102726804Y-50614392D01*
X102871655Y-50575580D01*
X102884555Y-50572838D01*
X102965866Y-50559960D01*
X103180791Y-50525919D01*
X103193899Y-50524542D01*
X103269063Y-50520603D01*
X103457299Y-50510738D01*
X103483276Y-50512065D01*
X103484846Y-50512309D01*
X103484850Y-50512309D01*
X103493724Y-50513691D01*
X103502626Y-50512527D01*
X103502628Y-50512527D01*
X103517677Y-50510559D01*
X103525286Y-50509564D01*
X103541621Y-50508500D01*
X186450633Y-50508500D01*
X186470018Y-50510000D01*
G37*
%TD.AperFunction*%
%TA.AperFunction,Conductor*%
G36*
X159433621Y-83093492D02*
G01*
X159480114Y-83147148D01*
X159491500Y-83199490D01*
X159491500Y-83281502D01*
X159491693Y-83283950D01*
X159491693Y-83283958D01*
X159491730Y-83284418D01*
X159494438Y-83318831D01*
X159523472Y-83418769D01*
X159537202Y-83466026D01*
X159540855Y-83478601D01*
X159625547Y-83621807D01*
X159628229Y-83624489D01*
X159653502Y-83688861D01*
X159639600Y-83758484D01*
X159629428Y-83774312D01*
X159625547Y-83778193D01*
X159540855Y-83921399D01*
X159538644Y-83929010D01*
X159538643Y-83929012D01*
X159534675Y-83942670D01*
X159494438Y-84081169D01*
X159491500Y-84118498D01*
X159491500Y-84551502D01*
X159491693Y-84553950D01*
X159491693Y-84553958D01*
X159493150Y-84572462D01*
X159494438Y-84588831D01*
X159540855Y-84748601D01*
X159625547Y-84891807D01*
X159628229Y-84894489D01*
X159653502Y-84958861D01*
X159639600Y-85028484D01*
X159629428Y-85044312D01*
X159625547Y-85048193D01*
X159540855Y-85191399D01*
X159538644Y-85199010D01*
X159538643Y-85199012D01*
X159533908Y-85215312D01*
X159494438Y-85351169D01*
X159493934Y-85357574D01*
X159493933Y-85357579D01*
X159491811Y-85384547D01*
X159491500Y-85388498D01*
X159491500Y-85821502D01*
X159491693Y-85823950D01*
X159491693Y-85823958D01*
X159492160Y-85829885D01*
X159494438Y-85858831D01*
X159523472Y-85958769D01*
X159538586Y-86010790D01*
X159540855Y-86018601D01*
X159544892Y-86025427D01*
X159593166Y-86107054D01*
X159610626Y-86175870D01*
X159588109Y-86243201D01*
X159573808Y-86260288D01*
X158298921Y-87535174D01*
X157029499Y-88804596D01*
X156967187Y-88838622D01*
X156940404Y-88841501D01*
X149789596Y-88841501D01*
X149721475Y-88821499D01*
X149700501Y-88804596D01*
X146766776Y-85870871D01*
X154548456Y-85870871D01*
X154589107Y-86010790D01*
X154595352Y-86025221D01*
X154671911Y-86154678D01*
X154681551Y-86167104D01*
X154787896Y-86273449D01*
X154800322Y-86283089D01*
X154929779Y-86359648D01*
X154944210Y-86365893D01*
X155090065Y-86408269D01*
X155102667Y-86410570D01*
X155131084Y-86412807D01*
X155136014Y-86413000D01*
X155752885Y-86413000D01*
X155768124Y-86408525D01*
X155769329Y-86407135D01*
X155771000Y-86399452D01*
X155771000Y-86394884D01*
X156279000Y-86394884D01*
X156283475Y-86410123D01*
X156284865Y-86411328D01*
X156292548Y-86412999D01*
X156913984Y-86412999D01*
X156918920Y-86412805D01*
X156947336Y-86410570D01*
X156959931Y-86408270D01*
X157105790Y-86365893D01*
X157120221Y-86359648D01*
X157249678Y-86283089D01*
X157262104Y-86273449D01*
X157368449Y-86167104D01*
X157378089Y-86154678D01*
X157454648Y-86025221D01*
X157460893Y-86010790D01*
X157499939Y-85876395D01*
X157499899Y-85862294D01*
X157492630Y-85859000D01*
X156297115Y-85859000D01*
X156281876Y-85863475D01*
X156280671Y-85864865D01*
X156279000Y-85872548D01*
X156279000Y-86394884D01*
X155771000Y-86394884D01*
X155771000Y-85877115D01*
X155766525Y-85861876D01*
X155765135Y-85860671D01*
X155757452Y-85859000D01*
X154563122Y-85859000D01*
X154549591Y-85862973D01*
X154548456Y-85870871D01*
X146766776Y-85870871D01*
X146551218Y-85655313D01*
X146517192Y-85593001D01*
X146519755Y-85529589D01*
X146530865Y-85493022D01*
X146532370Y-85488069D01*
X146561529Y-85266590D01*
X146563156Y-85200000D01*
X146544852Y-84977361D01*
X146490431Y-84760702D01*
X146478950Y-84734297D01*
X146467055Y-84706940D01*
X146458236Y-84636494D01*
X146488903Y-84572462D01*
X146549319Y-84535175D01*
X146620304Y-84536471D01*
X146671696Y-84567601D01*
X146831359Y-84727264D01*
X146838888Y-84735538D01*
X146843000Y-84742018D01*
X146848777Y-84747443D01*
X146892651Y-84788643D01*
X146895493Y-84791398D01*
X146915230Y-84811135D01*
X146918427Y-84813615D01*
X146927447Y-84821318D01*
X146959679Y-84851586D01*
X146966625Y-84855405D01*
X146966628Y-84855407D01*
X146977434Y-84861348D01*
X146993953Y-84872199D01*
X147009959Y-84884614D01*
X147017228Y-84887759D01*
X147017232Y-84887762D01*
X147050537Y-84902174D01*
X147061187Y-84907391D01*
X147099940Y-84928695D01*
X147107615Y-84930666D01*
X147107616Y-84930666D01*
X147119562Y-84933733D01*
X147138267Y-84940137D01*
X147156855Y-84948181D01*
X147164678Y-84949420D01*
X147164688Y-84949423D01*
X147200524Y-84955099D01*
X147212144Y-84957505D01*
X147247289Y-84966528D01*
X147254970Y-84968500D01*
X147275224Y-84968500D01*
X147294934Y-84970051D01*
X147314943Y-84973220D01*
X147322835Y-84972474D01*
X147358961Y-84969059D01*
X147370819Y-84968500D01*
X154502357Y-84968500D01*
X154570478Y-84988502D01*
X154616971Y-85042158D01*
X154627075Y-85112432D01*
X154610811Y-85158639D01*
X154595352Y-85184779D01*
X154589107Y-85199210D01*
X154550061Y-85333605D01*
X154550101Y-85347706D01*
X154557370Y-85351000D01*
X157486878Y-85351000D01*
X157500409Y-85347027D01*
X157501544Y-85339129D01*
X157460893Y-85199210D01*
X157454648Y-85184779D01*
X157378089Y-85055323D01*
X157372129Y-85047640D01*
X157346180Y-84981556D01*
X157360078Y-84911933D01*
X157370421Y-84895839D01*
X157374453Y-84891807D01*
X157459145Y-84748601D01*
X157505562Y-84588831D01*
X157506851Y-84572462D01*
X157508307Y-84553958D01*
X157508307Y-84553950D01*
X157508500Y-84551502D01*
X157508500Y-84118498D01*
X157505562Y-84081169D01*
X157465325Y-83942670D01*
X157461357Y-83929012D01*
X157461356Y-83929010D01*
X157459145Y-83921399D01*
X157374453Y-83778193D01*
X157371771Y-83775511D01*
X157346498Y-83711139D01*
X157360400Y-83641516D01*
X157370572Y-83625688D01*
X157374453Y-83621807D01*
X157459145Y-83478601D01*
X157462799Y-83466026D01*
X157476528Y-83418769D01*
X157505562Y-83318831D01*
X157508271Y-83284418D01*
X157508307Y-83283958D01*
X157508307Y-83283950D01*
X157508500Y-83281502D01*
X157508500Y-83199490D01*
X157528502Y-83131369D01*
X157582158Y-83084876D01*
X157634500Y-83073490D01*
X159365500Y-83073490D01*
X159433621Y-83093492D01*
G37*
%TD.AperFunction*%
%TD*%
M02*
