%TF.GenerationSoftware,KiCad,Pcbnew,6.0.7*%
%TF.CreationDate,2023-10-05T16:11:41+13:00*%
%TF.ProjectId,_bisect_,5f626973-6563-4745-9f2e-6b696361645f,rev?*%
%TF.SameCoordinates,Original*%
%TF.FileFunction,Legend,Top*%
%TF.FilePolarity,Positive*%
%FSLAX46Y46*%
G04 Gerber Fmt 4.6, Leading zero omitted, Abs format (unit mm)*
G04 Created by KiCad (PCBNEW 6.0.7) date 2023-10-05 16:11:41*
%MOMM*%
%LPD*%
G01*
G04 APERTURE LIST*
%ADD10C,0.120000*%
%ADD11C,0.700000*%
%ADD12C,0.350000*%
%ADD13C,0.200000*%
%ADD14C,0.150000*%
%ADD15C,0.110000*%
%ADD16C,0.127000*%
%ADD17C,0.400000*%
G04 APERTURE END LIST*
D10*
X158400000Y-81700000D02*
X158900000Y-82300000D01*
X158400000Y-81700000D02*
X157900000Y-82300000D01*
X158400000Y-83400000D02*
X158400000Y-81700000D01*
D11*
X173700000Y-84750000D02*
X166000000Y-84750000D01*
X174000000Y-97750000D02*
X166000000Y-97750000D01*
X159500000Y-91250000D02*
X149750000Y-91250000D01*
X159600000Y-91350000D02*
X166000000Y-97750000D01*
X159600000Y-91150000D02*
X166000000Y-84750000D01*
X174000000Y-70000000D02*
X166000000Y-70000000D01*
X159600000Y-63400000D02*
X166000000Y-57000000D01*
X159600000Y-63600000D02*
X166000000Y-70000000D01*
X159500000Y-63500000D02*
X116200000Y-63500000D01*
X140500000Y-91250000D02*
X116000000Y-91250000D01*
X133750000Y-73000000D02*
X140150000Y-79400000D01*
X133750000Y-63500000D02*
X133750000Y-73000000D01*
X174000000Y-57000000D02*
X166000000Y-57000000D01*
D12*
X136572500Y-101665476D02*
X139620119Y-101665476D01*
X140001071Y-97665476D02*
X140762976Y-97094047D01*
X141524880Y-97665476D01*
X146667738Y-97284523D02*
X147048690Y-97284523D01*
X147429642Y-97475000D01*
X147620119Y-97665476D01*
X147810595Y-98046428D01*
X148001071Y-98808333D01*
X148001071Y-99760714D01*
X147810595Y-100522619D01*
X147620119Y-100903571D01*
X147429642Y-101094047D01*
X147048690Y-101284523D01*
X146667738Y-101284523D01*
X146286785Y-101094047D01*
X146096309Y-100903571D01*
X145905833Y-100522619D01*
X145715357Y-99760714D01*
X145715357Y-98808333D01*
X145905833Y-98046428D01*
X146096309Y-97665476D01*
X146286785Y-97475000D01*
X146667738Y-97284523D01*
X150286785Y-98998809D02*
X149905833Y-98808333D01*
X149715357Y-98617857D01*
X149524880Y-98236904D01*
X149524880Y-98046428D01*
X149715357Y-97665476D01*
X149905833Y-97475000D01*
X150286785Y-97284523D01*
X151048690Y-97284523D01*
X151429642Y-97475000D01*
X151620119Y-97665476D01*
X151810595Y-98046428D01*
X151810595Y-98236904D01*
X151620119Y-98617857D01*
X151429642Y-98808333D01*
X151048690Y-98998809D01*
X150286785Y-98998809D01*
X149905833Y-99189285D01*
X149715357Y-99379761D01*
X149524880Y-99760714D01*
X149524880Y-100522619D01*
X149715357Y-100903571D01*
X149905833Y-101094047D01*
X150286785Y-101284523D01*
X151048690Y-101284523D01*
X151429642Y-101094047D01*
X151620119Y-100903571D01*
X151810595Y-100522619D01*
X151810595Y-99760714D01*
X151620119Y-99379761D01*
X151429642Y-99189285D01*
X151048690Y-98998809D01*
X168000000Y-51607142D02*
X168571428Y-51607142D01*
X168857142Y-51750000D01*
X169142857Y-52035714D01*
X169285714Y-52607142D01*
X169285714Y-53607142D01*
X169142857Y-54178571D01*
X168857142Y-54464285D01*
X168571428Y-54607142D01*
X168000000Y-54607142D01*
X167714285Y-54464285D01*
X167428571Y-54178571D01*
X167285714Y-53607142D01*
X167285714Y-52607142D01*
X167428571Y-52035714D01*
X167714285Y-51750000D01*
X168000000Y-51607142D01*
X170571428Y-51607142D02*
X170571428Y-54035714D01*
X170714285Y-54321428D01*
X170857142Y-54464285D01*
X171142857Y-54607142D01*
X171714285Y-54607142D01*
X172000000Y-54464285D01*
X172142857Y-54321428D01*
X172285714Y-54035714D01*
X172285714Y-51607142D01*
X173285714Y-51607142D02*
X175000000Y-51607142D01*
X174142857Y-54607142D02*
X174142857Y-51607142D01*
D13*
X137664285Y-51629761D02*
X136711904Y-51629761D01*
X136616666Y-52582142D01*
X136711904Y-52486904D01*
X136902380Y-52391666D01*
X137378571Y-52391666D01*
X137569047Y-52486904D01*
X137664285Y-52582142D01*
X137759523Y-52772619D01*
X137759523Y-53248809D01*
X137664285Y-53439285D01*
X137569047Y-53534523D01*
X137378571Y-53629761D01*
X136902380Y-53629761D01*
X136711904Y-53534523D01*
X136616666Y-53439285D01*
X138426190Y-52296428D02*
X138902380Y-53629761D01*
X139378571Y-52296428D01*
D12*
X103328571Y-54257142D02*
X103328571Y-51257142D01*
X104757142Y-54257142D02*
X104757142Y-51257142D01*
X106471428Y-54257142D01*
X106471428Y-51257142D01*
D14*
X101420238Y-103602380D02*
X102258333Y-103602380D01*
X102520238Y-103497619D02*
X102520238Y-102397619D01*
X102520238Y-102816666D02*
X102625000Y-102764285D01*
X102834523Y-102764285D01*
X102939285Y-102816666D01*
X102991666Y-102869047D01*
X103044047Y-102973809D01*
X103044047Y-103288095D01*
X102991666Y-103392857D01*
X102939285Y-103445238D01*
X102834523Y-103497619D01*
X102625000Y-103497619D01*
X102520238Y-103445238D01*
X103515476Y-103497619D02*
X103515476Y-102764285D01*
X103515476Y-102397619D02*
X103463095Y-102450000D01*
X103515476Y-102502380D01*
X103567857Y-102450000D01*
X103515476Y-102397619D01*
X103515476Y-102502380D01*
X103986904Y-103445238D02*
X104091666Y-103497619D01*
X104301190Y-103497619D01*
X104405952Y-103445238D01*
X104458333Y-103340476D01*
X104458333Y-103288095D01*
X104405952Y-103183333D01*
X104301190Y-103130952D01*
X104144047Y-103130952D01*
X104039285Y-103078571D01*
X103986904Y-102973809D01*
X103986904Y-102921428D01*
X104039285Y-102816666D01*
X104144047Y-102764285D01*
X104301190Y-102764285D01*
X104405952Y-102816666D01*
X105348809Y-103445238D02*
X105244047Y-103497619D01*
X105034523Y-103497619D01*
X104929761Y-103445238D01*
X104877380Y-103340476D01*
X104877380Y-102921428D01*
X104929761Y-102816666D01*
X105034523Y-102764285D01*
X105244047Y-102764285D01*
X105348809Y-102816666D01*
X105401190Y-102921428D01*
X105401190Y-103026190D01*
X104877380Y-103130952D01*
X106344047Y-103445238D02*
X106239285Y-103497619D01*
X106029761Y-103497619D01*
X105925000Y-103445238D01*
X105872619Y-103392857D01*
X105820238Y-103288095D01*
X105820238Y-102973809D01*
X105872619Y-102869047D01*
X105925000Y-102816666D01*
X106029761Y-102764285D01*
X106239285Y-102764285D01*
X106344047Y-102816666D01*
X106658333Y-102764285D02*
X107077380Y-102764285D01*
X106815476Y-102397619D02*
X106815476Y-103340476D01*
X106867857Y-103445238D01*
X106972619Y-103497619D01*
X107077380Y-103497619D01*
X107182142Y-103602380D02*
X108020238Y-103602380D01*
X108963095Y-102397619D02*
X109329761Y-103497619D01*
X109696428Y-102397619D01*
X110272619Y-102397619D02*
X110377380Y-102397619D01*
X110482142Y-102450000D01*
X110534523Y-102502380D01*
X110586904Y-102607142D01*
X110639285Y-102816666D01*
X110639285Y-103078571D01*
X110586904Y-103288095D01*
X110534523Y-103392857D01*
X110482142Y-103445238D01*
X110377380Y-103497619D01*
X110272619Y-103497619D01*
X110167857Y-103445238D01*
X110115476Y-103392857D01*
X110063095Y-103288095D01*
X110010714Y-103078571D01*
X110010714Y-102816666D01*
X110063095Y-102607142D01*
X110115476Y-102502380D01*
X110167857Y-102450000D01*
X110272619Y-102397619D01*
X110848809Y-103602380D02*
X111686904Y-103602380D01*
X112525000Y-103497619D02*
X111896428Y-103497619D01*
X112210714Y-103497619D02*
X112210714Y-102397619D01*
X112105952Y-102554761D01*
X112001190Y-102659523D01*
X111896428Y-102711904D01*
X112734523Y-103602380D02*
X113572619Y-103602380D01*
X114410714Y-103497619D02*
X113782142Y-103497619D01*
X114096428Y-103497619D02*
X114096428Y-102397619D01*
X113991666Y-102554761D01*
X113886904Y-102659523D01*
X113782142Y-102711904D01*
X115720238Y-103078571D02*
X116558333Y-103078571D01*
X118391666Y-103445238D02*
X118286904Y-103497619D01*
X118077380Y-103497619D01*
X117972619Y-103445238D01*
X117920238Y-103392857D01*
X117867857Y-103288095D01*
X117867857Y-102973809D01*
X117920238Y-102869047D01*
X117972619Y-102816666D01*
X118077380Y-102764285D01*
X118286904Y-102764285D01*
X118391666Y-102816666D01*
X118758333Y-102764285D02*
X119020238Y-103497619D01*
X119282142Y-102764285D02*
X119020238Y-103497619D01*
X118915476Y-103759523D01*
X118863095Y-103811904D01*
X118758333Y-103864285D01*
X119701190Y-103497619D02*
X119701190Y-102397619D01*
X119701190Y-102816666D02*
X119805952Y-102764285D01*
X120015476Y-102764285D01*
X120120238Y-102816666D01*
X120172619Y-102869047D01*
X120225000Y-102973809D01*
X120225000Y-103288095D01*
X120172619Y-103392857D01*
X120120238Y-103445238D01*
X120015476Y-103497619D01*
X119805952Y-103497619D01*
X119701190Y-103445238D01*
X121115476Y-103445238D02*
X121010714Y-103497619D01*
X120801190Y-103497619D01*
X120696428Y-103445238D01*
X120644047Y-103340476D01*
X120644047Y-102921428D01*
X120696428Y-102816666D01*
X120801190Y-102764285D01*
X121010714Y-102764285D01*
X121115476Y-102816666D01*
X121167857Y-102921428D01*
X121167857Y-103026190D01*
X120644047Y-103130952D01*
X121639285Y-103497619D02*
X121639285Y-102764285D01*
X121639285Y-102973809D02*
X121691666Y-102869047D01*
X121744047Y-102816666D01*
X121848809Y-102764285D01*
X121953571Y-102764285D01*
X122320238Y-103497619D02*
X122320238Y-102397619D01*
X122320238Y-102816666D02*
X122425000Y-102764285D01*
X122634523Y-102764285D01*
X122739285Y-102816666D01*
X122791666Y-102869047D01*
X122844047Y-102973809D01*
X122844047Y-103288095D01*
X122791666Y-103392857D01*
X122739285Y-103445238D01*
X122634523Y-103497619D01*
X122425000Y-103497619D01*
X122320238Y-103445238D01*
X123472619Y-103497619D02*
X123367857Y-103445238D01*
X123315476Y-103392857D01*
X123263095Y-103288095D01*
X123263095Y-102973809D01*
X123315476Y-102869047D01*
X123367857Y-102816666D01*
X123472619Y-102764285D01*
X123629761Y-102764285D01*
X123734523Y-102816666D01*
X123786904Y-102869047D01*
X123839285Y-102973809D01*
X123839285Y-103288095D01*
X123786904Y-103392857D01*
X123734523Y-103445238D01*
X123629761Y-103497619D01*
X123472619Y-103497619D01*
X124205952Y-102764285D02*
X124467857Y-103497619D01*
X124729761Y-102764285D02*
X124467857Y-103497619D01*
X124363095Y-103759523D01*
X124310714Y-103811904D01*
X124205952Y-103864285D01*
X125620238Y-102397619D02*
X125410714Y-102397619D01*
X125305952Y-102450000D01*
X125253571Y-102502380D01*
X125148809Y-102659523D01*
X125096428Y-102869047D01*
X125096428Y-103288095D01*
X125148809Y-103392857D01*
X125201190Y-103445238D01*
X125305952Y-103497619D01*
X125515476Y-103497619D01*
X125620238Y-103445238D01*
X125672619Y-103392857D01*
X125725000Y-103288095D01*
X125725000Y-103026190D01*
X125672619Y-102921428D01*
X125620238Y-102869047D01*
X125515476Y-102816666D01*
X125305952Y-102816666D01*
X125201190Y-102869047D01*
X125148809Y-102921428D01*
X125096428Y-103026190D01*
X126667857Y-102397619D02*
X126458333Y-102397619D01*
X126353571Y-102450000D01*
X126301190Y-102502380D01*
X126196428Y-102659523D01*
X126144047Y-102869047D01*
X126144047Y-103288095D01*
X126196428Y-103392857D01*
X126248809Y-103445238D01*
X126353571Y-103497619D01*
X126563095Y-103497619D01*
X126667857Y-103445238D01*
X126720238Y-103392857D01*
X126772619Y-103288095D01*
X126772619Y-103026190D01*
X126720238Y-102921428D01*
X126667857Y-102869047D01*
X126563095Y-102816666D01*
X126353571Y-102816666D01*
X126248809Y-102869047D01*
X126196428Y-102921428D01*
X126144047Y-103026190D01*
X127715476Y-102397619D02*
X127505952Y-102397619D01*
X127401190Y-102450000D01*
X127348809Y-102502380D01*
X127244047Y-102659523D01*
X127191666Y-102869047D01*
X127191666Y-103288095D01*
X127244047Y-103392857D01*
X127296428Y-103445238D01*
X127401190Y-103497619D01*
X127610714Y-103497619D01*
X127715476Y-103445238D01*
X127767857Y-103392857D01*
X127820238Y-103288095D01*
X127820238Y-103026190D01*
X127767857Y-102921428D01*
X127715476Y-102869047D01*
X127610714Y-102816666D01*
X127401190Y-102816666D01*
X127296428Y-102869047D01*
X127244047Y-102921428D01*
X127191666Y-103026190D01*
D13*
X137435714Y-103071428D02*
X137435714Y-103938095D01*
X136878571Y-103071428D02*
X136878571Y-103752380D01*
X136940476Y-103876190D01*
X137064285Y-103938095D01*
X137250000Y-103938095D01*
X137373809Y-103876190D01*
X137435714Y-103814285D01*
X138054761Y-103071428D02*
X138054761Y-103938095D01*
X138054761Y-103195238D02*
X138116666Y-103133333D01*
X138240476Y-103071428D01*
X138426190Y-103071428D01*
X138550000Y-103133333D01*
X138611904Y-103257142D01*
X138611904Y-103938095D01*
X139788095Y-103938095D02*
X139788095Y-102638095D01*
X139788095Y-103876190D02*
X139664285Y-103938095D01*
X139416666Y-103938095D01*
X139292857Y-103876190D01*
X139230952Y-103814285D01*
X139169047Y-103690476D01*
X139169047Y-103319047D01*
X139230952Y-103195238D01*
X139292857Y-103133333D01*
X139416666Y-103071428D01*
X139664285Y-103071428D01*
X139788095Y-103133333D01*
X140902380Y-103876190D02*
X140778571Y-103938095D01*
X140530952Y-103938095D01*
X140407142Y-103876190D01*
X140345238Y-103752380D01*
X140345238Y-103257142D01*
X140407142Y-103133333D01*
X140530952Y-103071428D01*
X140778571Y-103071428D01*
X140902380Y-103133333D01*
X140964285Y-103257142D01*
X140964285Y-103380952D01*
X140345238Y-103504761D01*
X141521428Y-103938095D02*
X141521428Y-103071428D01*
X141521428Y-103319047D02*
X141583333Y-103195238D01*
X141645238Y-103133333D01*
X141769047Y-103071428D01*
X141892857Y-103071428D01*
X142264285Y-103876190D02*
X142388095Y-103938095D01*
X142635714Y-103938095D01*
X142759523Y-103876190D01*
X142821428Y-103752380D01*
X142821428Y-103690476D01*
X142759523Y-103566666D01*
X142635714Y-103504761D01*
X142450000Y-103504761D01*
X142326190Y-103442857D01*
X142264285Y-103319047D01*
X142264285Y-103257142D01*
X142326190Y-103133333D01*
X142450000Y-103071428D01*
X142635714Y-103071428D01*
X142759523Y-103133333D01*
X143935714Y-103876190D02*
X143811904Y-103938095D01*
X143564285Y-103938095D01*
X143440476Y-103876190D01*
X143378571Y-103814285D01*
X143316666Y-103690476D01*
X143316666Y-103319047D01*
X143378571Y-103195238D01*
X143440476Y-103133333D01*
X143564285Y-103071428D01*
X143811904Y-103071428D01*
X143935714Y-103133333D01*
X144678571Y-103938095D02*
X144554761Y-103876190D01*
X144492857Y-103814285D01*
X144430952Y-103690476D01*
X144430952Y-103319047D01*
X144492857Y-103195238D01*
X144554761Y-103133333D01*
X144678571Y-103071428D01*
X144864285Y-103071428D01*
X144988095Y-103133333D01*
X145050000Y-103195238D01*
X145111904Y-103319047D01*
X145111904Y-103690476D01*
X145050000Y-103814285D01*
X144988095Y-103876190D01*
X144864285Y-103938095D01*
X144678571Y-103938095D01*
X145669047Y-103938095D02*
X145669047Y-103071428D01*
X145669047Y-103319047D02*
X145730952Y-103195238D01*
X145792857Y-103133333D01*
X145916666Y-103071428D01*
X146040476Y-103071428D01*
X146969047Y-103876190D02*
X146845238Y-103938095D01*
X146597619Y-103938095D01*
X146473809Y-103876190D01*
X146411904Y-103752380D01*
X146411904Y-103257142D01*
X146473809Y-103133333D01*
X146597619Y-103071428D01*
X146845238Y-103071428D01*
X146969047Y-103133333D01*
X147030952Y-103257142D01*
X147030952Y-103380952D01*
X146411904Y-103504761D01*
X147526190Y-103876190D02*
X147650000Y-103938095D01*
X147897619Y-103938095D01*
X148021428Y-103876190D01*
X148083333Y-103752380D01*
X148083333Y-103690476D01*
X148021428Y-103566666D01*
X147897619Y-103504761D01*
X147711904Y-103504761D01*
X147588095Y-103442857D01*
X147526190Y-103319047D01*
X147526190Y-103257142D01*
X147588095Y-103133333D01*
X147711904Y-103071428D01*
X147897619Y-103071428D01*
X148021428Y-103133333D01*
X148640476Y-103814285D02*
X148702380Y-103876190D01*
X148640476Y-103938095D01*
X148578571Y-103876190D01*
X148640476Y-103814285D01*
X148640476Y-103938095D01*
X149197619Y-103876190D02*
X149321428Y-103938095D01*
X149569047Y-103938095D01*
X149692857Y-103876190D01*
X149754761Y-103752380D01*
X149754761Y-103690476D01*
X149692857Y-103566666D01*
X149569047Y-103504761D01*
X149383333Y-103504761D01*
X149259523Y-103442857D01*
X149197619Y-103319047D01*
X149197619Y-103257142D01*
X149259523Y-103133333D01*
X149383333Y-103071428D01*
X149569047Y-103071428D01*
X149692857Y-103133333D01*
X150311904Y-103938095D02*
X150311904Y-102638095D01*
X150869047Y-103938095D02*
X150869047Y-103257142D01*
X150807142Y-103133333D01*
X150683333Y-103071428D01*
X150497619Y-103071428D01*
X150373809Y-103133333D01*
X150311904Y-103195238D01*
X151673809Y-103938095D02*
X151550000Y-103876190D01*
X151488095Y-103814285D01*
X151426190Y-103690476D01*
X151426190Y-103319047D01*
X151488095Y-103195238D01*
X151550000Y-103133333D01*
X151673809Y-103071428D01*
X151859523Y-103071428D01*
X151983333Y-103133333D01*
X152045238Y-103195238D01*
X152107142Y-103319047D01*
X152107142Y-103690476D01*
X152045238Y-103814285D01*
X151983333Y-103876190D01*
X151859523Y-103938095D01*
X151673809Y-103938095D01*
X152664285Y-103071428D02*
X152664285Y-104371428D01*
X152664285Y-103133333D02*
X152788095Y-103071428D01*
X153035714Y-103071428D01*
X153159523Y-103133333D01*
X153221428Y-103195238D01*
X153283333Y-103319047D01*
X153283333Y-103690476D01*
X153221428Y-103814285D01*
X153159523Y-103876190D01*
X153035714Y-103938095D01*
X152788095Y-103938095D01*
X152664285Y-103876190D01*
D15*
X178658571Y-99781428D02*
X178658571Y-100360000D01*
X178620000Y-100475714D01*
X178542857Y-100552857D01*
X178427142Y-100591428D01*
X178350000Y-100591428D01*
X179430000Y-100591428D02*
X179044285Y-100591428D01*
X179044285Y-99781428D01*
X180162857Y-100514285D02*
X180124285Y-100552857D01*
X180008571Y-100591428D01*
X179931428Y-100591428D01*
X179815714Y-100552857D01*
X179738571Y-100475714D01*
X179700000Y-100398571D01*
X179661428Y-100244285D01*
X179661428Y-100128571D01*
X179700000Y-99974285D01*
X179738571Y-99897142D01*
X179815714Y-99820000D01*
X179931428Y-99781428D01*
X180008571Y-99781428D01*
X180124285Y-99820000D01*
X180162857Y-99858571D01*
X180741428Y-99781428D02*
X180741428Y-100360000D01*
X180702857Y-100475714D01*
X180625714Y-100552857D01*
X180510000Y-100591428D01*
X180432857Y-100591428D01*
X181512857Y-100591428D02*
X181127142Y-100591428D01*
X181127142Y-99781428D01*
X182245714Y-100514285D02*
X182207142Y-100552857D01*
X182091428Y-100591428D01*
X182014285Y-100591428D01*
X181898571Y-100552857D01*
X181821428Y-100475714D01*
X181782857Y-100398571D01*
X181744285Y-100244285D01*
X181744285Y-100128571D01*
X181782857Y-99974285D01*
X181821428Y-99897142D01*
X181898571Y-99820000D01*
X182014285Y-99781428D01*
X182091428Y-99781428D01*
X182207142Y-99820000D01*
X182245714Y-99858571D01*
X182824285Y-99781428D02*
X182824285Y-100360000D01*
X182785714Y-100475714D01*
X182708571Y-100552857D01*
X182592857Y-100591428D01*
X182515714Y-100591428D01*
X183595714Y-100591428D02*
X183210000Y-100591428D01*
X183210000Y-99781428D01*
X184328571Y-100514285D02*
X184290000Y-100552857D01*
X184174285Y-100591428D01*
X184097142Y-100591428D01*
X183981428Y-100552857D01*
X183904285Y-100475714D01*
X183865714Y-100398571D01*
X183827142Y-100244285D01*
X183827142Y-100128571D01*
X183865714Y-99974285D01*
X183904285Y-99897142D01*
X183981428Y-99820000D01*
X184097142Y-99781428D01*
X184174285Y-99781428D01*
X184290000Y-99820000D01*
X184328571Y-99858571D01*
X184907142Y-99781428D02*
X184907142Y-100360000D01*
X184868571Y-100475714D01*
X184791428Y-100552857D01*
X184675714Y-100591428D01*
X184598571Y-100591428D01*
X185678571Y-100591428D02*
X185292857Y-100591428D01*
X185292857Y-99781428D01*
X186411428Y-100514285D02*
X186372857Y-100552857D01*
X186257142Y-100591428D01*
X186180000Y-100591428D01*
X186064285Y-100552857D01*
X185987142Y-100475714D01*
X185948571Y-100398571D01*
X185910000Y-100244285D01*
X185910000Y-100128571D01*
X185948571Y-99974285D01*
X185987142Y-99897142D01*
X186064285Y-99820000D01*
X186180000Y-99781428D01*
X186257142Y-99781428D01*
X186372857Y-99820000D01*
X186411428Y-99858571D01*
D14*
%TO.C,C1*%
X119883333Y-56157142D02*
X119835714Y-56204761D01*
X119692857Y-56252380D01*
X119597619Y-56252380D01*
X119454761Y-56204761D01*
X119359523Y-56109523D01*
X119311904Y-56014285D01*
X119264285Y-55823809D01*
X119264285Y-55680952D01*
X119311904Y-55490476D01*
X119359523Y-55395238D01*
X119454761Y-55300000D01*
X119597619Y-55252380D01*
X119692857Y-55252380D01*
X119835714Y-55300000D01*
X119883333Y-55347619D01*
X120835714Y-56252380D02*
X120264285Y-56252380D01*
X120550000Y-56252380D02*
X120550000Y-55252380D01*
X120454761Y-55395238D01*
X120359523Y-55490476D01*
X120264285Y-55538095D01*
%TO.C,C2*%
X119308333Y-94607142D02*
X119260714Y-94654761D01*
X119117857Y-94702380D01*
X119022619Y-94702380D01*
X118879761Y-94654761D01*
X118784523Y-94559523D01*
X118736904Y-94464285D01*
X118689285Y-94273809D01*
X118689285Y-94130952D01*
X118736904Y-93940476D01*
X118784523Y-93845238D01*
X118879761Y-93750000D01*
X119022619Y-93702380D01*
X119117857Y-93702380D01*
X119260714Y-93750000D01*
X119308333Y-93797619D01*
X119689285Y-93797619D02*
X119736904Y-93750000D01*
X119832142Y-93702380D01*
X120070238Y-93702380D01*
X120165476Y-93750000D01*
X120213095Y-93797619D01*
X120260714Y-93892857D01*
X120260714Y-93988095D01*
X120213095Y-94130952D01*
X119641666Y-94702380D01*
X120260714Y-94702380D01*
%TO.C,D1*%
X128361904Y-56202380D02*
X128361904Y-55202380D01*
X128600000Y-55202380D01*
X128742857Y-55250000D01*
X128838095Y-55345238D01*
X128885714Y-55440476D01*
X128933333Y-55630952D01*
X128933333Y-55773809D01*
X128885714Y-55964285D01*
X128838095Y-56059523D01*
X128742857Y-56154761D01*
X128600000Y-56202380D01*
X128361904Y-56202380D01*
X129885714Y-56202380D02*
X129314285Y-56202380D01*
X129600000Y-56202380D02*
X129600000Y-55202380D01*
X129504761Y-55345238D01*
X129409523Y-55440476D01*
X129314285Y-55488095D01*
X125938095Y-54202380D02*
X125938095Y-53202380D01*
X126509523Y-54202380D02*
X126080952Y-53630952D01*
X126509523Y-53202380D02*
X125938095Y-53773809D01*
%TO.C,D2*%
X127961904Y-94852380D02*
X127961904Y-93852380D01*
X128200000Y-93852380D01*
X128342857Y-93900000D01*
X128438095Y-93995238D01*
X128485714Y-94090476D01*
X128533333Y-94280952D01*
X128533333Y-94423809D01*
X128485714Y-94614285D01*
X128438095Y-94709523D01*
X128342857Y-94804761D01*
X128200000Y-94852380D01*
X127961904Y-94852380D01*
X128914285Y-93947619D02*
X128961904Y-93900000D01*
X129057142Y-93852380D01*
X129295238Y-93852380D01*
X129390476Y-93900000D01*
X129438095Y-93947619D01*
X129485714Y-94042857D01*
X129485714Y-94138095D01*
X129438095Y-94280952D01*
X128866666Y-94852380D01*
X129485714Y-94852380D01*
X125638095Y-92852380D02*
X125638095Y-91852380D01*
X126209523Y-92852380D02*
X125780952Y-92280952D01*
X126209523Y-91852380D02*
X125638095Y-92423809D01*
%TO.C,J2*%
X103166190Y-85951597D02*
X103166190Y-86666905D01*
X103118502Y-86809966D01*
X103023128Y-86905340D01*
X102880067Y-86953027D01*
X102784692Y-86953027D01*
X103595374Y-86046972D02*
X103643061Y-85999285D01*
X103738435Y-85951597D01*
X103976871Y-85951597D01*
X104072245Y-85999285D01*
X104119932Y-86046972D01*
X104167620Y-86142346D01*
X104167620Y-86237720D01*
X104119932Y-86380782D01*
X103547687Y-86953027D01*
X104167620Y-86953027D01*
X112296628Y-86952851D02*
X112296628Y-86285491D01*
X112296628Y-86476165D02*
X112344297Y-86380828D01*
X112391965Y-86333160D01*
X112487302Y-86285491D01*
X112582640Y-86285491D01*
X113345337Y-86905182D02*
X113250000Y-86952851D01*
X113059325Y-86952851D01*
X112963988Y-86905182D01*
X112916320Y-86857514D01*
X112868651Y-86762177D01*
X112868651Y-86476165D01*
X112916320Y-86380828D01*
X112963988Y-86333160D01*
X113059325Y-86285491D01*
X113250000Y-86285491D01*
X113345337Y-86333160D01*
X114203371Y-86952851D02*
X114203371Y-86428497D01*
X114155702Y-86333160D01*
X114060365Y-86285491D01*
X113869691Y-86285491D01*
X113774354Y-86333160D01*
X114203371Y-86905182D02*
X114108034Y-86952851D01*
X113869691Y-86952851D01*
X113774354Y-86905182D01*
X113726685Y-86809845D01*
X113726685Y-86714508D01*
X113774354Y-86619171D01*
X113869691Y-86571502D01*
X114108034Y-86571502D01*
X114203371Y-86523834D01*
%TO.C,J3*%
X177366190Y-52151597D02*
X177366190Y-52866905D01*
X177318502Y-53009966D01*
X177223128Y-53105340D01*
X177080067Y-53153027D01*
X176984692Y-53153027D01*
X177747687Y-52151597D02*
X178367620Y-52151597D01*
X178033810Y-52533095D01*
X178176871Y-52533095D01*
X178272245Y-52580782D01*
X178319932Y-52628469D01*
X178367620Y-52723843D01*
X178367620Y-52962279D01*
X178319932Y-53057653D01*
X178272245Y-53105340D01*
X178176871Y-53153027D01*
X177890748Y-53153027D01*
X177795374Y-53105340D01*
X177747687Y-53057653D01*
X186546628Y-52952851D02*
X186546628Y-52285491D01*
X186546628Y-52476165D02*
X186594297Y-52380828D01*
X186641965Y-52333160D01*
X186737302Y-52285491D01*
X186832640Y-52285491D01*
X187595337Y-52905182D02*
X187500000Y-52952851D01*
X187309325Y-52952851D01*
X187213988Y-52905182D01*
X187166320Y-52857514D01*
X187118651Y-52762177D01*
X187118651Y-52476165D01*
X187166320Y-52380828D01*
X187213988Y-52333160D01*
X187309325Y-52285491D01*
X187500000Y-52285491D01*
X187595337Y-52333160D01*
X188453371Y-52952851D02*
X188453371Y-52428497D01*
X188405702Y-52333160D01*
X188310365Y-52285491D01*
X188119691Y-52285491D01*
X188024354Y-52333160D01*
X188453371Y-52905182D02*
X188358034Y-52952851D01*
X188119691Y-52952851D01*
X188024354Y-52905182D01*
X187976685Y-52809845D01*
X187976685Y-52714508D01*
X188024354Y-52619171D01*
X188119691Y-52571502D01*
X188358034Y-52571502D01*
X188453371Y-52523834D01*
%TO.C,J4*%
X177366190Y-65451597D02*
X177366190Y-66166905D01*
X177318502Y-66309966D01*
X177223128Y-66405340D01*
X177080067Y-66453027D01*
X176984692Y-66453027D01*
X178272245Y-65785407D02*
X178272245Y-66453027D01*
X178033810Y-65403910D02*
X177795374Y-66119217D01*
X178415307Y-66119217D01*
X186546628Y-66452851D02*
X186546628Y-65785491D01*
X186546628Y-65976165D02*
X186594297Y-65880828D01*
X186641965Y-65833160D01*
X186737302Y-65785491D01*
X186832640Y-65785491D01*
X187595337Y-66405182D02*
X187500000Y-66452851D01*
X187309325Y-66452851D01*
X187213988Y-66405182D01*
X187166320Y-66357514D01*
X187118651Y-66262177D01*
X187118651Y-65976165D01*
X187166320Y-65880828D01*
X187213988Y-65833160D01*
X187309325Y-65785491D01*
X187500000Y-65785491D01*
X187595337Y-65833160D01*
X188453371Y-66452851D02*
X188453371Y-65928497D01*
X188405702Y-65833160D01*
X188310365Y-65785491D01*
X188119691Y-65785491D01*
X188024354Y-65833160D01*
X188453371Y-66405182D02*
X188358034Y-66452851D01*
X188119691Y-66452851D01*
X188024354Y-66405182D01*
X187976685Y-66309845D01*
X187976685Y-66214508D01*
X188024354Y-66119171D01*
X188119691Y-66071502D01*
X188358034Y-66071502D01*
X188453371Y-66023834D01*
%TO.C,J6*%
X177366190Y-93151597D02*
X177366190Y-93866905D01*
X177318502Y-94009966D01*
X177223128Y-94105340D01*
X177080067Y-94153027D01*
X176984692Y-94153027D01*
X178272245Y-93151597D02*
X178081497Y-93151597D01*
X177986122Y-93199285D01*
X177938435Y-93246972D01*
X177843061Y-93390033D01*
X177795374Y-93580782D01*
X177795374Y-93962279D01*
X177843061Y-94057653D01*
X177890748Y-94105340D01*
X177986122Y-94153027D01*
X178176871Y-94153027D01*
X178272245Y-94105340D01*
X178319932Y-94057653D01*
X178367620Y-93962279D01*
X178367620Y-93723843D01*
X178319932Y-93628469D01*
X178272245Y-93580782D01*
X178176871Y-93533095D01*
X177986122Y-93533095D01*
X177890748Y-93580782D01*
X177843061Y-93628469D01*
X177795374Y-93723843D01*
X186796628Y-93952851D02*
X186796628Y-93285491D01*
X186796628Y-93476165D02*
X186844297Y-93380828D01*
X186891965Y-93333160D01*
X186987302Y-93285491D01*
X187082640Y-93285491D01*
X187845337Y-93905182D02*
X187750000Y-93952851D01*
X187559325Y-93952851D01*
X187463988Y-93905182D01*
X187416320Y-93857514D01*
X187368651Y-93762177D01*
X187368651Y-93476165D01*
X187416320Y-93380828D01*
X187463988Y-93333160D01*
X187559325Y-93285491D01*
X187750000Y-93285491D01*
X187845337Y-93333160D01*
X188703371Y-93952851D02*
X188703371Y-93428497D01*
X188655702Y-93333160D01*
X188560365Y-93285491D01*
X188369691Y-93285491D01*
X188274354Y-93333160D01*
X188703371Y-93905182D02*
X188608034Y-93952851D01*
X188369691Y-93952851D01*
X188274354Y-93905182D01*
X188226685Y-93809845D01*
X188226685Y-93714508D01*
X188274354Y-93619171D01*
X188369691Y-93571502D01*
X188608034Y-93571502D01*
X188703371Y-93523834D01*
%TO.C,J7*%
X150591666Y-59127380D02*
X150591666Y-59841666D01*
X150544047Y-59984523D01*
X150448809Y-60079761D01*
X150305952Y-60127380D01*
X150210714Y-60127380D01*
X150972619Y-59127380D02*
X151639285Y-59127380D01*
X151210714Y-60127380D01*
%TO.C,R1*%
X119333333Y-62202380D02*
X119000000Y-61726190D01*
X118761904Y-62202380D02*
X118761904Y-61202380D01*
X119142857Y-61202380D01*
X119238095Y-61250000D01*
X119285714Y-61297619D01*
X119333333Y-61392857D01*
X119333333Y-61535714D01*
X119285714Y-61630952D01*
X119238095Y-61678571D01*
X119142857Y-61726190D01*
X118761904Y-61726190D01*
X120285714Y-62202380D02*
X119714285Y-62202380D01*
X120000000Y-62202380D02*
X120000000Y-61202380D01*
X119904761Y-61345238D01*
X119809523Y-61440476D01*
X119714285Y-61488095D01*
%TO.C,R2*%
X128233333Y-62202380D02*
X127900000Y-61726190D01*
X127661904Y-62202380D02*
X127661904Y-61202380D01*
X128042857Y-61202380D01*
X128138095Y-61250000D01*
X128185714Y-61297619D01*
X128233333Y-61392857D01*
X128233333Y-61535714D01*
X128185714Y-61630952D01*
X128138095Y-61678571D01*
X128042857Y-61726190D01*
X127661904Y-61726190D01*
X128614285Y-61297619D02*
X128661904Y-61250000D01*
X128757142Y-61202380D01*
X128995238Y-61202380D01*
X129090476Y-61250000D01*
X129138095Y-61297619D01*
X129185714Y-61392857D01*
X129185714Y-61488095D01*
X129138095Y-61630952D01*
X128566666Y-62202380D01*
X129185714Y-62202380D01*
%TO.C,R3*%
X154233333Y-74452380D02*
X153900000Y-73976190D01*
X153661904Y-74452380D02*
X153661904Y-73452380D01*
X154042857Y-73452380D01*
X154138095Y-73500000D01*
X154185714Y-73547619D01*
X154233333Y-73642857D01*
X154233333Y-73785714D01*
X154185714Y-73880952D01*
X154138095Y-73928571D01*
X154042857Y-73976190D01*
X153661904Y-73976190D01*
X154566666Y-73452380D02*
X155185714Y-73452380D01*
X154852380Y-73833333D01*
X154995238Y-73833333D01*
X155090476Y-73880952D01*
X155138095Y-73928571D01*
X155185714Y-74023809D01*
X155185714Y-74261904D01*
X155138095Y-74357142D01*
X155090476Y-74404761D01*
X154995238Y-74452380D01*
X154709523Y-74452380D01*
X154614285Y-74404761D01*
X154566666Y-74357142D01*
%TO.C,R4*%
X154333333Y-78152380D02*
X154000000Y-77676190D01*
X153761904Y-78152380D02*
X153761904Y-77152380D01*
X154142857Y-77152380D01*
X154238095Y-77200000D01*
X154285714Y-77247619D01*
X154333333Y-77342857D01*
X154333333Y-77485714D01*
X154285714Y-77580952D01*
X154238095Y-77628571D01*
X154142857Y-77676190D01*
X153761904Y-77676190D01*
X155190476Y-77485714D02*
X155190476Y-78152380D01*
X154952380Y-77104761D02*
X154714285Y-77819047D01*
X155333333Y-77819047D01*
%TO.C,R5*%
X172633333Y-63252380D02*
X172300000Y-62776190D01*
X172061904Y-63252380D02*
X172061904Y-62252380D01*
X172442857Y-62252380D01*
X172538095Y-62300000D01*
X172585714Y-62347619D01*
X172633333Y-62442857D01*
X172633333Y-62585714D01*
X172585714Y-62680952D01*
X172538095Y-62728571D01*
X172442857Y-62776190D01*
X172061904Y-62776190D01*
X173538095Y-62252380D02*
X173061904Y-62252380D01*
X173014285Y-62728571D01*
X173061904Y-62680952D01*
X173157142Y-62633333D01*
X173395238Y-62633333D01*
X173490476Y-62680952D01*
X173538095Y-62728571D01*
X173585714Y-62823809D01*
X173585714Y-63061904D01*
X173538095Y-63157142D01*
X173490476Y-63204761D01*
X173395238Y-63252380D01*
X173157142Y-63252380D01*
X173061904Y-63204761D01*
X173014285Y-63157142D01*
%TO.C,R6*%
X172533333Y-76752380D02*
X172200000Y-76276190D01*
X171961904Y-76752380D02*
X171961904Y-75752380D01*
X172342857Y-75752380D01*
X172438095Y-75800000D01*
X172485714Y-75847619D01*
X172533333Y-75942857D01*
X172533333Y-76085714D01*
X172485714Y-76180952D01*
X172438095Y-76228571D01*
X172342857Y-76276190D01*
X171961904Y-76276190D01*
X173390476Y-75752380D02*
X173200000Y-75752380D01*
X173104761Y-75800000D01*
X173057142Y-75847619D01*
X172961904Y-75990476D01*
X172914285Y-76180952D01*
X172914285Y-76561904D01*
X172961904Y-76657142D01*
X173009523Y-76704761D01*
X173104761Y-76752380D01*
X173295238Y-76752380D01*
X173390476Y-76704761D01*
X173438095Y-76657142D01*
X173485714Y-76561904D01*
X173485714Y-76323809D01*
X173438095Y-76228571D01*
X173390476Y-76180952D01*
X173295238Y-76133333D01*
X173104761Y-76133333D01*
X173009523Y-76180952D01*
X172961904Y-76228571D01*
X172914285Y-76323809D01*
%TO.C,R7*%
X118733333Y-100552380D02*
X118400000Y-100076190D01*
X118161904Y-100552380D02*
X118161904Y-99552380D01*
X118542857Y-99552380D01*
X118638095Y-99600000D01*
X118685714Y-99647619D01*
X118733333Y-99742857D01*
X118733333Y-99885714D01*
X118685714Y-99980952D01*
X118638095Y-100028571D01*
X118542857Y-100076190D01*
X118161904Y-100076190D01*
X119066666Y-99552380D02*
X119733333Y-99552380D01*
X119304761Y-100552380D01*
%TO.C,R8*%
X127833333Y-100552380D02*
X127500000Y-100076190D01*
X127261904Y-100552380D02*
X127261904Y-99552380D01*
X127642857Y-99552380D01*
X127738095Y-99600000D01*
X127785714Y-99647619D01*
X127833333Y-99742857D01*
X127833333Y-99885714D01*
X127785714Y-99980952D01*
X127738095Y-100028571D01*
X127642857Y-100076190D01*
X127261904Y-100076190D01*
X128404761Y-99980952D02*
X128309523Y-99933333D01*
X128261904Y-99885714D01*
X128214285Y-99790476D01*
X128214285Y-99742857D01*
X128261904Y-99647619D01*
X128309523Y-99600000D01*
X128404761Y-99552380D01*
X128595238Y-99552380D01*
X128690476Y-99600000D01*
X128738095Y-99647619D01*
X128785714Y-99742857D01*
X128785714Y-99790476D01*
X128738095Y-99885714D01*
X128690476Y-99933333D01*
X128595238Y-99980952D01*
X128404761Y-99980952D01*
X128309523Y-100028571D01*
X128261904Y-100076190D01*
X128214285Y-100171428D01*
X128214285Y-100361904D01*
X128261904Y-100457142D01*
X128309523Y-100504761D01*
X128404761Y-100552380D01*
X128595238Y-100552380D01*
X128690476Y-100504761D01*
X128738095Y-100457142D01*
X128785714Y-100361904D01*
X128785714Y-100171428D01*
X128738095Y-100076190D01*
X128690476Y-100028571D01*
X128595238Y-99980952D01*
%TO.C,R9*%
X163833333Y-74652380D02*
X163500000Y-74176190D01*
X163261904Y-74652380D02*
X163261904Y-73652380D01*
X163642857Y-73652380D01*
X163738095Y-73700000D01*
X163785714Y-73747619D01*
X163833333Y-73842857D01*
X163833333Y-73985714D01*
X163785714Y-74080952D01*
X163738095Y-74128571D01*
X163642857Y-74176190D01*
X163261904Y-74176190D01*
X164309523Y-74652380D02*
X164500000Y-74652380D01*
X164595238Y-74604761D01*
X164642857Y-74557142D01*
X164738095Y-74414285D01*
X164785714Y-74223809D01*
X164785714Y-73842857D01*
X164738095Y-73747619D01*
X164690476Y-73700000D01*
X164595238Y-73652380D01*
X164404761Y-73652380D01*
X164309523Y-73700000D01*
X164261904Y-73747619D01*
X164214285Y-73842857D01*
X164214285Y-74080952D01*
X164261904Y-74176190D01*
X164309523Y-74223809D01*
X164404761Y-74271428D01*
X164595238Y-74271428D01*
X164690476Y-74223809D01*
X164738095Y-74176190D01*
X164785714Y-74080952D01*
%TO.C,R10*%
X163557142Y-78252380D02*
X163223809Y-77776190D01*
X162985714Y-78252380D02*
X162985714Y-77252380D01*
X163366666Y-77252380D01*
X163461904Y-77300000D01*
X163509523Y-77347619D01*
X163557142Y-77442857D01*
X163557142Y-77585714D01*
X163509523Y-77680952D01*
X163461904Y-77728571D01*
X163366666Y-77776190D01*
X162985714Y-77776190D01*
X164509523Y-78252380D02*
X163938095Y-78252380D01*
X164223809Y-78252380D02*
X164223809Y-77252380D01*
X164128571Y-77395238D01*
X164033333Y-77490476D01*
X163938095Y-77538095D01*
X165128571Y-77252380D02*
X165223809Y-77252380D01*
X165319047Y-77300000D01*
X165366666Y-77347619D01*
X165414285Y-77442857D01*
X165461904Y-77633333D01*
X165461904Y-77871428D01*
X165414285Y-78061904D01*
X165366666Y-78157142D01*
X165319047Y-78204761D01*
X165223809Y-78252380D01*
X165128571Y-78252380D01*
X165033333Y-78204761D01*
X164985714Y-78157142D01*
X164938095Y-78061904D01*
X164890476Y-77871428D01*
X164890476Y-77633333D01*
X164938095Y-77442857D01*
X164985714Y-77347619D01*
X165033333Y-77300000D01*
X165128571Y-77252380D01*
%TO.C,R12*%
X172057142Y-104252380D02*
X171723809Y-103776190D01*
X171485714Y-104252380D02*
X171485714Y-103252380D01*
X171866666Y-103252380D01*
X171961904Y-103300000D01*
X172009523Y-103347619D01*
X172057142Y-103442857D01*
X172057142Y-103585714D01*
X172009523Y-103680952D01*
X171961904Y-103728571D01*
X171866666Y-103776190D01*
X171485714Y-103776190D01*
X173009523Y-104252380D02*
X172438095Y-104252380D01*
X172723809Y-104252380D02*
X172723809Y-103252380D01*
X172628571Y-103395238D01*
X172533333Y-103490476D01*
X172438095Y-103538095D01*
X173390476Y-103347619D02*
X173438095Y-103300000D01*
X173533333Y-103252380D01*
X173771428Y-103252380D01*
X173866666Y-103300000D01*
X173914285Y-103347619D01*
X173961904Y-103442857D01*
X173961904Y-103538095D01*
X173914285Y-103680952D01*
X173342857Y-104252380D01*
X173961904Y-104252380D01*
%TO.C,R13*%
X154357142Y-52252380D02*
X154023809Y-51776190D01*
X153785714Y-52252380D02*
X153785714Y-51252380D01*
X154166666Y-51252380D01*
X154261904Y-51300000D01*
X154309523Y-51347619D01*
X154357142Y-51442857D01*
X154357142Y-51585714D01*
X154309523Y-51680952D01*
X154261904Y-51728571D01*
X154166666Y-51776190D01*
X153785714Y-51776190D01*
X155309523Y-52252380D02*
X154738095Y-52252380D01*
X155023809Y-52252380D02*
X155023809Y-51252380D01*
X154928571Y-51395238D01*
X154833333Y-51490476D01*
X154738095Y-51538095D01*
X155642857Y-51252380D02*
X156261904Y-51252380D01*
X155928571Y-51633333D01*
X156071428Y-51633333D01*
X156166666Y-51680952D01*
X156214285Y-51728571D01*
X156261904Y-51823809D01*
X156261904Y-52061904D01*
X156214285Y-52157142D01*
X156166666Y-52204761D01*
X156071428Y-52252380D01*
X155785714Y-52252380D01*
X155690476Y-52204761D01*
X155642857Y-52157142D01*
%TO.C,R14*%
X154457142Y-56052380D02*
X154123809Y-55576190D01*
X153885714Y-56052380D02*
X153885714Y-55052380D01*
X154266666Y-55052380D01*
X154361904Y-55100000D01*
X154409523Y-55147619D01*
X154457142Y-55242857D01*
X154457142Y-55385714D01*
X154409523Y-55480952D01*
X154361904Y-55528571D01*
X154266666Y-55576190D01*
X153885714Y-55576190D01*
X155409523Y-56052380D02*
X154838095Y-56052380D01*
X155123809Y-56052380D02*
X155123809Y-55052380D01*
X155028571Y-55195238D01*
X154933333Y-55290476D01*
X154838095Y-55338095D01*
X156266666Y-55385714D02*
X156266666Y-56052380D01*
X156028571Y-55004761D02*
X155790476Y-55719047D01*
X156409523Y-55719047D01*
%TO.C,SW1*%
X143654761Y-86533333D02*
X143702380Y-86390476D01*
X143702380Y-86152380D01*
X143654761Y-86057142D01*
X143607142Y-86009523D01*
X143511904Y-85961904D01*
X143416666Y-85961904D01*
X143321428Y-86009523D01*
X143273809Y-86057142D01*
X143226190Y-86152380D01*
X143178571Y-86342857D01*
X143130952Y-86438095D01*
X143083333Y-86485714D01*
X142988095Y-86533333D01*
X142892857Y-86533333D01*
X142797619Y-86485714D01*
X142750000Y-86438095D01*
X142702380Y-86342857D01*
X142702380Y-86104761D01*
X142750000Y-85961904D01*
X142702380Y-85628571D02*
X143702380Y-85390476D01*
X142988095Y-85200000D01*
X143702380Y-85009523D01*
X142702380Y-84771428D01*
X143702380Y-83866666D02*
X143702380Y-84438095D01*
X143702380Y-84152380D02*
X142702380Y-84152380D01*
X142845238Y-84247619D01*
X142940476Y-84342857D01*
X142988095Y-84438095D01*
%TO.C,U1*%
X157738095Y-79752380D02*
X157738095Y-80561904D01*
X157785714Y-80657142D01*
X157833333Y-80704761D01*
X157928571Y-80752380D01*
X158119047Y-80752380D01*
X158214285Y-80704761D01*
X158261904Y-80657142D01*
X158309523Y-80561904D01*
X158309523Y-79752380D01*
X159309523Y-80752380D02*
X158738095Y-80752380D01*
X159023809Y-80752380D02*
X159023809Y-79752380D01*
X158928571Y-79895238D01*
X158833333Y-79990476D01*
X158738095Y-80038095D01*
%TO.C,U2*%
X163938095Y-51052380D02*
X163938095Y-51861904D01*
X163985714Y-51957142D01*
X164033333Y-52004761D01*
X164128571Y-52052380D01*
X164319047Y-52052380D01*
X164414285Y-52004761D01*
X164461904Y-51957142D01*
X164509523Y-51861904D01*
X164509523Y-51052380D01*
X164938095Y-51147619D02*
X164985714Y-51100000D01*
X165080952Y-51052380D01*
X165319047Y-51052380D01*
X165414285Y-51100000D01*
X165461904Y-51147619D01*
X165509523Y-51242857D01*
X165509523Y-51338095D01*
X165461904Y-51480952D01*
X164890476Y-52052380D01*
X165509523Y-52052380D01*
%TO.C,J5*%
X177466190Y-79551597D02*
X177466190Y-80266905D01*
X177418502Y-80409966D01*
X177323128Y-80505340D01*
X177180067Y-80553027D01*
X177084692Y-80553027D01*
X178419932Y-79551597D02*
X177943061Y-79551597D01*
X177895374Y-80028469D01*
X177943061Y-79980782D01*
X178038435Y-79933095D01*
X178276871Y-79933095D01*
X178372245Y-79980782D01*
X178419932Y-80028469D01*
X178467620Y-80123843D01*
X178467620Y-80362279D01*
X178419932Y-80457653D01*
X178372245Y-80505340D01*
X178276871Y-80553027D01*
X178038435Y-80553027D01*
X177943061Y-80505340D01*
X177895374Y-80457653D01*
X186546628Y-80452851D02*
X186546628Y-79785491D01*
X186546628Y-79976165D02*
X186594297Y-79880828D01*
X186641965Y-79833160D01*
X186737302Y-79785491D01*
X186832640Y-79785491D01*
X187595337Y-80405182D02*
X187500000Y-80452851D01*
X187309325Y-80452851D01*
X187213988Y-80405182D01*
X187166320Y-80357514D01*
X187118651Y-80262177D01*
X187118651Y-79976165D01*
X187166320Y-79880828D01*
X187213988Y-79833160D01*
X187309325Y-79785491D01*
X187500000Y-79785491D01*
X187595337Y-79833160D01*
X188453371Y-80452851D02*
X188453371Y-79928497D01*
X188405702Y-79833160D01*
X188310365Y-79785491D01*
X188119691Y-79785491D01*
X188024354Y-79833160D01*
X188453371Y-80405182D02*
X188358034Y-80452851D01*
X188119691Y-80452851D01*
X188024354Y-80405182D01*
X187976685Y-80309845D01*
X187976685Y-80214508D01*
X188024354Y-80119171D01*
X188119691Y-80071502D01*
X188358034Y-80071502D01*
X188453371Y-80023834D01*
%TO.C,R11*%
X172057142Y-90852380D02*
X171723809Y-90376190D01*
X171485714Y-90852380D02*
X171485714Y-89852380D01*
X171866666Y-89852380D01*
X171961904Y-89900000D01*
X172009523Y-89947619D01*
X172057142Y-90042857D01*
X172057142Y-90185714D01*
X172009523Y-90280952D01*
X171961904Y-90328571D01*
X171866666Y-90376190D01*
X171485714Y-90376190D01*
X173009523Y-90852380D02*
X172438095Y-90852380D01*
X172723809Y-90852380D02*
X172723809Y-89852380D01*
X172628571Y-89995238D01*
X172533333Y-90090476D01*
X172438095Y-90138095D01*
X173961904Y-90852380D02*
X173390476Y-90852380D01*
X173676190Y-90852380D02*
X173676190Y-89852380D01*
X173580952Y-89995238D01*
X173485714Y-90090476D01*
X173390476Y-90138095D01*
%TO.C,J1*%
X103166190Y-57951597D02*
X103166190Y-58666905D01*
X103118502Y-58809966D01*
X103023128Y-58905340D01*
X102880067Y-58953027D01*
X102784692Y-58953027D01*
X104167620Y-58953027D02*
X103595374Y-58953027D01*
X103881497Y-58953027D02*
X103881497Y-57951597D01*
X103786122Y-58094659D01*
X103690748Y-58190033D01*
X103595374Y-58237720D01*
X111546628Y-58702851D02*
X111546628Y-58035491D01*
X111546628Y-58226165D02*
X111594297Y-58130828D01*
X111641965Y-58083160D01*
X111737302Y-58035491D01*
X111832640Y-58035491D01*
X112595337Y-58655182D02*
X112500000Y-58702851D01*
X112309325Y-58702851D01*
X112213988Y-58655182D01*
X112166320Y-58607514D01*
X112118651Y-58512177D01*
X112118651Y-58226165D01*
X112166320Y-58130828D01*
X112213988Y-58083160D01*
X112309325Y-58035491D01*
X112500000Y-58035491D01*
X112595337Y-58083160D01*
X113453371Y-58702851D02*
X113453371Y-58178497D01*
X113405702Y-58083160D01*
X113310365Y-58035491D01*
X113119691Y-58035491D01*
X113024354Y-58083160D01*
X113453371Y-58655182D02*
X113358034Y-58702851D01*
X113119691Y-58702851D01*
X113024354Y-58655182D01*
X112976685Y-58559845D01*
X112976685Y-58464508D01*
X113024354Y-58369171D01*
X113119691Y-58321502D01*
X113358034Y-58321502D01*
X113453371Y-58273834D01*
%TO.C,C3*%
X164157142Y-83766666D02*
X164204761Y-83814285D01*
X164252380Y-83957142D01*
X164252380Y-84052380D01*
X164204761Y-84195238D01*
X164109523Y-84290476D01*
X164014285Y-84338095D01*
X163823809Y-84385714D01*
X163680952Y-84385714D01*
X163490476Y-84338095D01*
X163395238Y-84290476D01*
X163300000Y-84195238D01*
X163252380Y-84052380D01*
X163252380Y-83957142D01*
X163300000Y-83814285D01*
X163347619Y-83766666D01*
X163252380Y-83433333D02*
X163252380Y-82814285D01*
X163633333Y-83147619D01*
X163633333Y-83004761D01*
X163680952Y-82909523D01*
X163728571Y-82861904D01*
X163823809Y-82814285D01*
X164061904Y-82814285D01*
X164157142Y-82861904D01*
X164204761Y-82909523D01*
X164252380Y-83004761D01*
X164252380Y-83290476D01*
X164204761Y-83385714D01*
X164157142Y-83433333D01*
D10*
%TO.C,C1*%
X117530000Y-57120000D02*
X117530000Y-56805000D01*
X122470000Y-57120000D02*
X117530000Y-57120000D01*
X117530000Y-54695000D02*
X117530000Y-54380000D01*
X122470000Y-54380000D02*
X117530000Y-54380000D01*
X122470000Y-57120000D02*
X122470000Y-56805000D01*
X122470000Y-54695000D02*
X122470000Y-54380000D01*
%TO.C,C2*%
X117030000Y-93245000D02*
X117030000Y-92930000D01*
X121970000Y-95670000D02*
X121970000Y-95355000D01*
X117030000Y-95670000D02*
X117030000Y-95355000D01*
X121970000Y-93245000D02*
X121970000Y-92930000D01*
X121970000Y-92930000D02*
X117030000Y-92930000D01*
X121970000Y-95670000D02*
X117030000Y-95670000D01*
%TO.C,D1*%
X127020000Y-54510000D02*
X127020000Y-54330000D01*
X130460000Y-54330000D02*
X130460000Y-54510000D01*
X127020000Y-57170000D02*
X130460000Y-57170000D01*
X127620000Y-54330000D02*
X127620000Y-57170000D01*
X130460000Y-57170000D02*
X130460000Y-56990000D01*
X127740000Y-54330000D02*
X127740000Y-57170000D01*
X127020000Y-56990000D02*
X127020000Y-57170000D01*
X127020000Y-54330000D02*
X130460000Y-54330000D01*
X127500000Y-54330000D02*
X127500000Y-57170000D01*
%TO.C,D2*%
X126720000Y-95640000D02*
X126720000Y-95820000D01*
X127320000Y-92980000D02*
X127320000Y-95820000D01*
X130160000Y-95820000D02*
X130160000Y-95640000D01*
X126720000Y-95820000D02*
X130160000Y-95820000D01*
X127200000Y-92980000D02*
X127200000Y-95820000D01*
X130160000Y-92980000D02*
X130160000Y-93160000D01*
X126720000Y-93160000D02*
X126720000Y-92980000D01*
X126720000Y-92980000D02*
X130160000Y-92980000D01*
X127440000Y-92980000D02*
X127440000Y-95820000D01*
D16*
%TO.C,J2*%
X102750000Y-87865000D02*
X102750000Y-89235000D01*
X104216000Y-94135000D02*
X102750000Y-94135000D01*
X104216000Y-87865000D02*
X102750000Y-87865000D01*
X113450000Y-94135000D02*
X111984000Y-94135000D01*
X113450000Y-87865000D02*
X111984000Y-87865000D01*
X113450000Y-87865000D02*
X113450000Y-89235000D01*
X113450000Y-92765000D02*
X113450000Y-94135000D01*
X102750000Y-92765000D02*
X102750000Y-94135000D01*
X104216000Y-94135000D02*
G75*
G03*
X111982076Y-94137372I3884000J3148850D01*
G01*
X111984000Y-87865000D02*
G75*
G03*
X104217924Y-87862628I-3884000J-3148850D01*
G01*
D17*
X100900000Y-91000000D02*
G75*
G03*
X100900000Y-91000000I-200000J0D01*
G01*
D16*
%TO.C,J3*%
X187850000Y-53865000D02*
X186384000Y-53865000D01*
X178616000Y-60135000D02*
X177150000Y-60135000D01*
X187850000Y-58765000D02*
X187850000Y-60135000D01*
X187850000Y-53865000D02*
X187850000Y-55235000D01*
X177150000Y-53865000D02*
X177150000Y-55235000D01*
X177150000Y-58765000D02*
X177150000Y-60135000D01*
X178616000Y-53865000D02*
X177150000Y-53865000D01*
X187850000Y-60135000D02*
X186384000Y-60135000D01*
X186384000Y-53865000D02*
G75*
G03*
X178617924Y-53862628I-3884000J-3148850D01*
G01*
X178616000Y-60135000D02*
G75*
G03*
X186382076Y-60137372I3884000J3148850D01*
G01*
D17*
X175300000Y-57000000D02*
G75*
G03*
X175300000Y-57000000I-200000J0D01*
G01*
D16*
%TO.C,J4*%
X187850000Y-67365000D02*
X186384000Y-67365000D01*
X177150000Y-72265000D02*
X177150000Y-73635000D01*
X187850000Y-67365000D02*
X187850000Y-68735000D01*
X187850000Y-72265000D02*
X187850000Y-73635000D01*
X178616000Y-67365000D02*
X177150000Y-67365000D01*
X177150000Y-67365000D02*
X177150000Y-68735000D01*
X178616000Y-73635000D02*
X177150000Y-73635000D01*
X187850000Y-73635000D02*
X186384000Y-73635000D01*
X178616000Y-73635000D02*
G75*
G03*
X186382076Y-73637372I3884000J3148850D01*
G01*
X186384000Y-67365000D02*
G75*
G03*
X178617924Y-67362628I-3884000J-3148850D01*
G01*
D17*
X175300000Y-70500000D02*
G75*
G03*
X175300000Y-70500000I-200000J0D01*
G01*
D16*
%TO.C,J6*%
X177150000Y-99765000D02*
X177150000Y-101135000D01*
X187850000Y-99765000D02*
X187850000Y-101135000D01*
X187850000Y-101135000D02*
X186384000Y-101135000D01*
X178616000Y-94865000D02*
X177150000Y-94865000D01*
X187850000Y-94865000D02*
X187850000Y-96235000D01*
X178616000Y-101135000D02*
X177150000Y-101135000D01*
X177150000Y-94865000D02*
X177150000Y-96235000D01*
X187850000Y-94865000D02*
X186384000Y-94865000D01*
X178616000Y-101135000D02*
G75*
G03*
X186382076Y-101137372I3884000J3148850D01*
G01*
X186384000Y-94865000D02*
G75*
G03*
X178617924Y-94862628I-3884000J-3148850D01*
G01*
D17*
X175300000Y-98000000D02*
G75*
G03*
X175300000Y-98000000I-200000J0D01*
G01*
D10*
%TO.C,J7*%
X149600000Y-61400000D02*
X147000000Y-61400000D01*
X149600000Y-46700000D02*
X149600000Y-61400000D01*
X143100000Y-61400000D02*
X140400000Y-61400000D01*
X140400000Y-55500000D02*
X140400000Y-46700000D01*
X140400000Y-61400000D02*
X140400000Y-59500000D01*
X140400000Y-46700000D02*
X149600000Y-46700000D01*
X149800000Y-60550000D02*
X149800000Y-61600000D01*
X148750000Y-61600000D02*
X149800000Y-61600000D01*
%TO.C,R1*%
X120730000Y-60850000D02*
X118120000Y-60850000D01*
X123470000Y-60850000D02*
G75*
G03*
X123470000Y-60850000I-1370000J0D01*
G01*
%TO.C,R2*%
X129730000Y-60850000D02*
X127120000Y-60850000D01*
X132470000Y-60850000D02*
G75*
G03*
X132470000Y-60850000I-1370000J0D01*
G01*
%TO.C,R3*%
X153070000Y-74800000D02*
X155680000Y-74800000D01*
X153070000Y-74800000D02*
G75*
G03*
X153070000Y-74800000I-1370000J0D01*
G01*
%TO.C,R4*%
X153070000Y-78400000D02*
X155680000Y-78400000D01*
X153070000Y-78400000D02*
G75*
G03*
X153070000Y-78400000I-1370000J0D01*
G01*
%TO.C,R5*%
X174030000Y-61900000D02*
X171420000Y-61900000D01*
X176770000Y-61900000D02*
G75*
G03*
X176770000Y-61900000I-1370000J0D01*
G01*
%TO.C,R6*%
X174030000Y-75400000D02*
X171420000Y-75400000D01*
X176770000Y-75400000D02*
G75*
G03*
X176770000Y-75400000I-1370000J0D01*
G01*
%TO.C,R7*%
X120230000Y-99300000D02*
X117620000Y-99300000D01*
X122970000Y-99300000D02*
G75*
G03*
X122970000Y-99300000I-1370000J0D01*
G01*
%TO.C,R8*%
X129330000Y-99300000D02*
X126720000Y-99300000D01*
X132070000Y-99300000D02*
G75*
G03*
X132070000Y-99300000I-1370000J0D01*
G01*
%TO.C,R9*%
X162670000Y-74900000D02*
X165280000Y-74900000D01*
X162670000Y-74900000D02*
G75*
G03*
X162670000Y-74900000I-1370000J0D01*
G01*
%TO.C,R10*%
X162670000Y-78500000D02*
X165280000Y-78500000D01*
X162670000Y-78500000D02*
G75*
G03*
X162670000Y-78500000I-1370000J0D01*
G01*
%TO.C,R12*%
X174030000Y-102900000D02*
X171420000Y-102900000D01*
X176770000Y-102900000D02*
G75*
G03*
X176770000Y-102900000I-1370000J0D01*
G01*
%TO.C,R13*%
X153670000Y-52600000D02*
X156280000Y-52600000D01*
X153670000Y-52600000D02*
G75*
G03*
X153670000Y-52600000I-1370000J0D01*
G01*
%TO.C,R14*%
X153670000Y-56400000D02*
X156280000Y-56400000D01*
X153670000Y-56400000D02*
G75*
G03*
X153670000Y-56400000I-1370000J0D01*
G01*
%TO.C,SW1*%
X142350000Y-92000000D02*
X142350000Y-78400000D01*
X147950000Y-78400000D02*
X147950000Y-92000000D01*
X147950000Y-92000000D02*
X142350000Y-92000000D01*
X142350000Y-78400000D02*
X147950000Y-78400000D01*
%TO.C,U1*%
X158500000Y-81140000D02*
X155050000Y-81140000D01*
X158500000Y-86260000D02*
X156550000Y-86260000D01*
X158500000Y-86260000D02*
X160450000Y-86260000D01*
X158500000Y-81140000D02*
X160450000Y-81140000D01*
%TO.C,U2*%
X160470000Y-56350000D02*
X164070000Y-56350000D01*
X164078445Y-56327684D02*
G75*
G03*
X163050000Y-52050000I-1808445J1827684D01*
G01*
X161450000Y-52050000D02*
G75*
G03*
X160458125Y-56341741I820000J-2450000D01*
G01*
D16*
%TO.C,J5*%
X187850000Y-86265000D02*
X187850000Y-87635000D01*
X187850000Y-81365000D02*
X186384000Y-81365000D01*
X177150000Y-81365000D02*
X177150000Y-82735000D01*
X187850000Y-87635000D02*
X186384000Y-87635000D01*
X178616000Y-87635000D02*
X177150000Y-87635000D01*
X178616000Y-81365000D02*
X177150000Y-81365000D01*
X187850000Y-81365000D02*
X187850000Y-82735000D01*
X177150000Y-86265000D02*
X177150000Y-87635000D01*
X178616000Y-87635000D02*
G75*
G03*
X186382076Y-87637372I3884000J3148850D01*
G01*
X186384000Y-81365000D02*
G75*
G03*
X178617924Y-81362628I-3884000J-3148850D01*
G01*
D17*
X175300000Y-84500000D02*
G75*
G03*
X175300000Y-84500000I-200000J0D01*
G01*
D10*
%TO.C,R11*%
X174030000Y-89600000D02*
X171420000Y-89600000D01*
X176770000Y-89600000D02*
G75*
G03*
X176770000Y-89600000I-1370000J0D01*
G01*
D16*
%TO.C,J1*%
X102650000Y-60215000D02*
X102650000Y-61585000D01*
X104116000Y-66485000D02*
X102650000Y-66485000D01*
X102650000Y-65115000D02*
X102650000Y-66485000D01*
X104116000Y-60215000D02*
X102650000Y-60215000D01*
X113350000Y-66485000D02*
X111884000Y-66485000D01*
X113350000Y-60215000D02*
X113350000Y-61585000D01*
X113350000Y-65115000D02*
X113350000Y-66485000D01*
X113350000Y-60215000D02*
X111884000Y-60215000D01*
X111884000Y-60215000D02*
G75*
G03*
X104117924Y-60212628I-3884000J-3148850D01*
G01*
X104116000Y-66485000D02*
G75*
G03*
X111882076Y-66487372I3884000J3148850D01*
G01*
D17*
X100800000Y-63350000D02*
G75*
G03*
X100800000Y-63350000I-200000J0D01*
G01*
D10*
%TO.C,C3*%
X162745000Y-86070000D02*
X162430000Y-86070000D01*
X165170000Y-81130000D02*
X165170000Y-86070000D01*
X165170000Y-86070000D02*
X164855000Y-86070000D01*
X162430000Y-81130000D02*
X162430000Y-86070000D01*
X165170000Y-81130000D02*
X164855000Y-81130000D01*
X162745000Y-81130000D02*
X162430000Y-81130000D01*
%TD*%
M02*
